<?xml version="1.0" encoding="utf-8" standalone="no"?>
<!DOCTYPE svg PUBLIC "-//W3C//DTD SVG 1.1//EN"
  "http://www.w3.org/Graphics/SVG/1.1/DTD/svg11.dtd">
<svg xmlns:xlink="http://www.w3.org/1999/xlink" width="928.8pt" height="315.546406pt" viewBox="0 0 928.8 315.546406" xmlns="http://www.w3.org/2000/svg" version="1.1">
 <metadata>
  <rdf:RDF xmlns:dc="http://purl.org/dc/elements/1.1/" xmlns:cc="http://creativecommons.org/ns#" xmlns:rdf="http://www.w3.org/1999/02/22-rdf-syntax-ns#">
   <cc:Work>
    <dc:type rdf:resource="http://purl.org/dc/dcmitype/StillImage"/>
    <dc:date>2026-07-14T23:53:40.127469</dc:date>
    <dc:format>image/svg+xml</dc:format>
    <dc:creator>
     <cc:Agent>
      <dc:title>Matplotlib v3.10.3, https://matplotlib.org/</dc:title>
     </cc:Agent>
    </dc:creator>
   </cc:Work>
  </rdf:RDF>
 </metadata>
 <defs>
  <style type="text/css">*{stroke-linejoin: round; stroke-linecap: butt}</style>
 </defs>
 <g id="figure_1">
  <g id="patch_1">
   <path d="M 0 315.546406 
L 928.8 315.546406 
L 928.8 0 
L 0 0 
z
" style="fill: #ffffff"/>
  </g>
  <g id="axes_1">
   <g id="patch_2">
    <path d="M 7.2 278.957969 
L 921.6 278.957969 
L 921.6 33.077969 
L 7.2 33.077969 
z
" style="fill: #ffffff"/>
   </g>
   <g id="line2d_1">
    <path d="M 112.946939 122.116332 
L 921.6 122.116332 
" clip-path="url(#pd44463cc6f)" style="fill: none; stroke: #dfe6ee; stroke-width: 0.8; stroke-linecap: square"/>
   </g>
   <g id="line2d_2">
    <path d="M 112.946939 264.056151 
L 921.6 264.056151 
" clip-path="url(#pd44463cc6f)" style="fill: none; stroke: #dfe6ee; stroke-width: 0.8; stroke-linecap: square"/>
   </g>
   <g id="matplotlib.axis_1">
    <g id="xtick_1">
     <g id="line2d_3">
      <defs>
       <path id="ma57aff7ae2" d="M 0 0 
L 0 3.5 
" style="stroke: #000000; stroke-width: 0.8"/>
      </defs>
      <g>
       <use xlink:href="#ma57aff7ae2" x="128.497959" y="278.957969" style="stroke: #000000; stroke-width: 0.8"/>
      </g>
     </g>
     <g id="text_1">
      <!-- 0 -->
      <g transform="translate(125.634834 292.796562) scale(0.09 -0.09)">
       <defs>
        <path id="DejaVuSans-30" d="M 2034 4250 
Q 1547 4250 1301 3770 
Q 1056 3291 1056 2328 
Q 1056 1369 1301 889 
Q 1547 409 2034 409 
Q 2525 409 2770 889 
Q 3016 1369 3016 2328 
Q 3016 3291 2770 3770 
Q 2525 4250 2034 4250 
z
M 2034 4750 
Q 2819 4750 3233 4129 
Q 3647 3509 3647 2328 
Q 3647 1150 3233 529 
Q 2819 -91 2034 -91 
Q 1250 -91 836 529 
Q 422 1150 422 2328 
Q 422 3509 836 4129 
Q 1250 4750 2034 4750 
z
" transform="scale(0.015625)"/>
       </defs>
       <use xlink:href="#DejaVuSans-30"/>
      </g>
     </g>
    </g>
    <g id="xtick_2">
     <g id="line2d_4">
      <g>
       <use xlink:href="#ma57aff7ae2" x="252.906122" y="278.957969" style="stroke: #000000; stroke-width: 0.8"/>
      </g>
     </g>
     <g id="text_2">
      <!-- 4 -->
      <g transform="translate(250.042997 292.796562) scale(0.09 -0.09)">
       <defs>
        <path id="DejaVuSans-34" d="M 2419 4116 
L 825 1625 
L 2419 1625 
L 2419 4116 
z
M 2253 4666 
L 3047 4666 
L 3047 1625 
L 3713 1625 
L 3713 1100 
L 3047 1100 
L 3047 0 
L 2419 0 
L 2419 1100 
L 313 1100 
L 313 1709 
L 2253 4666 
z
" transform="scale(0.015625)"/>
       </defs>
       <use xlink:href="#DejaVuSans-34"/>
      </g>
     </g>
    </g>
    <g id="xtick_3">
     <g id="line2d_5">
      <g>
       <use xlink:href="#ma57aff7ae2" x="377.314286" y="278.957969" style="stroke: #000000; stroke-width: 0.8"/>
      </g>
     </g>
     <g id="text_3">
      <!-- 8 -->
      <g transform="translate(374.451161 292.796562) scale(0.09 -0.09)">
       <defs>
        <path id="DejaVuSans-38" d="M 2034 2216 
Q 1584 2216 1326 1975 
Q 1069 1734 1069 1313 
Q 1069 891 1326 650 
Q 1584 409 2034 409 
Q 2484 409 2743 651 
Q 3003 894 3003 1313 
Q 3003 1734 2745 1975 
Q 2488 2216 2034 2216 
z
M 1403 2484 
Q 997 2584 770 2862 
Q 544 3141 544 3541 
Q 544 4100 942 4425 
Q 1341 4750 2034 4750 
Q 2731 4750 3128 4425 
Q 3525 4100 3525 3541 
Q 3525 3141 3298 2862 
Q 3072 2584 2669 2484 
Q 3125 2378 3379 2068 
Q 3634 1759 3634 1313 
Q 3634 634 3220 271 
Q 2806 -91 2034 -91 
Q 1263 -91 848 271 
Q 434 634 434 1313 
Q 434 1759 690 2068 
Q 947 2378 1403 2484 
z
M 1172 3481 
Q 1172 3119 1398 2916 
Q 1625 2713 2034 2713 
Q 2441 2713 2670 2916 
Q 2900 3119 2900 3481 
Q 2900 3844 2670 4047 
Q 2441 4250 2034 4250 
Q 1625 4250 1398 4047 
Q 1172 3844 1172 3481 
z
" transform="scale(0.015625)"/>
       </defs>
       <use xlink:href="#DejaVuSans-38"/>
      </g>
     </g>
    </g>
    <g id="xtick_4">
     <g id="line2d_6">
      <g>
       <use xlink:href="#ma57aff7ae2" x="501.722449" y="278.957969" style="stroke: #000000; stroke-width: 0.8"/>
      </g>
     </g>
     <g id="text_4">
      <!-- 12 -->
      <g transform="translate(495.996199 292.796562) scale(0.09 -0.09)">
       <defs>
        <path id="DejaVuSans-31" d="M 794 531 
L 1825 531 
L 1825 4091 
L 703 3866 
L 703 4441 
L 1819 4666 
L 2450 4666 
L 2450 531 
L 3481 531 
L 3481 0 
L 794 0 
L 794 531 
z
" transform="scale(0.015625)"/>
        <path id="DejaVuSans-32" d="M 1228 531 
L 3431 531 
L 3431 0 
L 469 0 
L 469 531 
Q 828 903 1448 1529 
Q 2069 2156 2228 2338 
Q 2531 2678 2651 2914 
Q 2772 3150 2772 3378 
Q 2772 3750 2511 3984 
Q 2250 4219 1831 4219 
Q 1534 4219 1204 4116 
Q 875 4013 500 3803 
L 500 4441 
Q 881 4594 1212 4672 
Q 1544 4750 1819 4750 
Q 2544 4750 2975 4387 
Q 3406 4025 3406 3419 
Q 3406 3131 3298 2873 
Q 3191 2616 2906 2266 
Q 2828 2175 2409 1742 
Q 1991 1309 1228 531 
z
" transform="scale(0.015625)"/>
       </defs>
       <use xlink:href="#DejaVuSans-31"/>
       <use xlink:href="#DejaVuSans-32" transform="translate(63.623047 0)"/>
      </g>
     </g>
    </g>
    <g id="xtick_5">
     <g id="line2d_7">
      <g>
       <use xlink:href="#ma57aff7ae2" x="626.130612" y="278.957969" style="stroke: #000000; stroke-width: 0.8"/>
      </g>
     </g>
     <g id="text_5">
      <!-- 16 -->
      <g transform="translate(620.404362 292.796562) scale(0.09 -0.09)">
       <defs>
        <path id="DejaVuSans-36" d="M 2113 2584 
Q 1688 2584 1439 2293 
Q 1191 2003 1191 1497 
Q 1191 994 1439 701 
Q 1688 409 2113 409 
Q 2538 409 2786 701 
Q 3034 994 3034 1497 
Q 3034 2003 2786 2293 
Q 2538 2584 2113 2584 
z
M 3366 4563 
L 3366 3988 
Q 3128 4100 2886 4159 
Q 2644 4219 2406 4219 
Q 1781 4219 1451 3797 
Q 1122 3375 1075 2522 
Q 1259 2794 1537 2939 
Q 1816 3084 2150 3084 
Q 2853 3084 3261 2657 
Q 3669 2231 3669 1497 
Q 3669 778 3244 343 
Q 2819 -91 2113 -91 
Q 1303 -91 875 529 
Q 447 1150 447 2328 
Q 447 3434 972 4092 
Q 1497 4750 2381 4750 
Q 2619 4750 2861 4703 
Q 3103 4656 3366 4563 
z
" transform="scale(0.015625)"/>
       </defs>
       <use xlink:href="#DejaVuSans-31"/>
       <use xlink:href="#DejaVuSans-36" transform="translate(63.623047 0)"/>
      </g>
     </g>
    </g>
    <g id="xtick_6">
     <g id="line2d_8">
      <g>
       <use xlink:href="#ma57aff7ae2" x="750.538776" y="278.957969" style="stroke: #000000; stroke-width: 0.8"/>
      </g>
     </g>
     <g id="text_6">
      <!-- 20 -->
      <g transform="translate(744.812526 292.796562) scale(0.09 -0.09)">
       <use xlink:href="#DejaVuSans-32"/>
       <use xlink:href="#DejaVuSans-30" transform="translate(63.623047 0)"/>
      </g>
     </g>
    </g>
    <g id="xtick_7">
     <g id="line2d_9">
      <g>
       <use xlink:href="#ma57aff7ae2" x="874.946939" y="278.957969" style="stroke: #000000; stroke-width: 0.8"/>
      </g>
     </g>
     <g id="text_7">
      <!-- 24 -->
      <g transform="translate(869.220689 292.796562) scale(0.09 -0.09)">
       <use xlink:href="#DejaVuSans-32"/>
       <use xlink:href="#DejaVuSans-34" transform="translate(63.623047 0)"/>
      </g>
     </g>
    </g>
    <g id="text_8">
     <!-- clock cycles -->
     <g transform="translate(434.440625 306.266719) scale(0.1 -0.1)">
      <defs>
       <path id="DejaVuSans-63" d="M 3122 3366 
L 3122 2828 
Q 2878 2963 2633 3030 
Q 2388 3097 2138 3097 
Q 1578 3097 1268 2742 
Q 959 2388 959 1747 
Q 959 1106 1268 751 
Q 1578 397 2138 397 
Q 2388 397 2633 464 
Q 2878 531 3122 666 
L 3122 134 
Q 2881 22 2623 -34 
Q 2366 -91 2075 -91 
Q 1284 -91 818 406 
Q 353 903 353 1747 
Q 353 2603 823 3093 
Q 1294 3584 2113 3584 
Q 2378 3584 2631 3529 
Q 2884 3475 3122 3366 
z
" transform="scale(0.015625)"/>
       <path id="DejaVuSans-6c" d="M 603 4863 
L 1178 4863 
L 1178 0 
L 603 0 
L 603 4863 
z
" transform="scale(0.015625)"/>
       <path id="DejaVuSans-6f" d="M 1959 3097 
Q 1497 3097 1228 2736 
Q 959 2375 959 1747 
Q 959 1119 1226 758 
Q 1494 397 1959 397 
Q 2419 397 2687 759 
Q 2956 1122 2956 1747 
Q 2956 2369 2687 2733 
Q 2419 3097 1959 3097 
z
M 1959 3584 
Q 2709 3584 3137 3096 
Q 3566 2609 3566 1747 
Q 3566 888 3137 398 
Q 2709 -91 1959 -91 
Q 1206 -91 779 398 
Q 353 888 353 1747 
Q 353 2609 779 3096 
Q 1206 3584 1959 3584 
z
" transform="scale(0.015625)"/>
       <path id="DejaVuSans-6b" d="M 581 4863 
L 1159 4863 
L 1159 1991 
L 2875 3500 
L 3609 3500 
L 1753 1863 
L 3688 0 
L 2938 0 
L 1159 1709 
L 1159 0 
L 581 0 
L 581 4863 
z
" transform="scale(0.015625)"/>
       <path id="DejaVuSans-20" transform="scale(0.015625)"/>
       <path id="DejaVuSans-79" d="M 2059 -325 
Q 1816 -950 1584 -1140 
Q 1353 -1331 966 -1331 
L 506 -1331 
L 506 -850 
L 844 -850 
Q 1081 -850 1212 -737 
Q 1344 -625 1503 -206 
L 1606 56 
L 191 3500 
L 800 3500 
L 1894 763 
L 2988 3500 
L 3597 3500 
L 2059 -325 
z
" transform="scale(0.015625)"/>
       <path id="DejaVuSans-65" d="M 3597 1894 
L 3597 1613 
L 953 1613 
Q 991 1019 1311 708 
Q 1631 397 2203 397 
Q 2534 397 2845 478 
Q 3156 559 3463 722 
L 3463 178 
Q 3153 47 2828 -22 
Q 2503 -91 2169 -91 
Q 1331 -91 842 396 
Q 353 884 353 1716 
Q 353 2575 817 3079 
Q 1281 3584 2069 3584 
Q 2775 3584 3186 3129 
Q 3597 2675 3597 1894 
z
M 3022 2063 
Q 3016 2534 2758 2815 
Q 2500 3097 2075 3097 
Q 1594 3097 1305 2825 
Q 1016 2553 972 2059 
L 3022 2063 
z
" transform="scale(0.015625)"/>
       <path id="DejaVuSans-73" d="M 2834 3397 
L 2834 2853 
Q 2591 2978 2328 3040 
Q 2066 3103 1784 3103 
Q 1356 3103 1142 2972 
Q 928 2841 928 2578 
Q 928 2378 1081 2264 
Q 1234 2150 1697 2047 
L 1894 2003 
Q 2506 1872 2764 1633 
Q 3022 1394 3022 966 
Q 3022 478 2636 193 
Q 2250 -91 1575 -91 
Q 1294 -91 989 -36 
Q 684 19 347 128 
L 347 722 
Q 666 556 975 473 
Q 1284 391 1588 391 
Q 1994 391 2212 530 
Q 2431 669 2431 922 
Q 2431 1156 2273 1281 
Q 2116 1406 1581 1522 
L 1381 1569 
Q 847 1681 609 1914 
Q 372 2147 372 2553 
Q 372 3047 722 3315 
Q 1072 3584 1716 3584 
Q 2034 3584 2315 3537 
Q 2597 3491 2834 3397 
z
" transform="scale(0.015625)"/>
      </defs>
      <use xlink:href="#DejaVuSans-63"/>
      <use xlink:href="#DejaVuSans-6c" transform="translate(54.980469 0)"/>
      <use xlink:href="#DejaVuSans-6f" transform="translate(82.763672 0)"/>
      <use xlink:href="#DejaVuSans-63" transform="translate(143.945312 0)"/>
      <use xlink:href="#DejaVuSans-6b" transform="translate(198.925781 0)"/>
      <use xlink:href="#DejaVuSans-20" transform="translate(256.835938 0)"/>
      <use xlink:href="#DejaVuSans-63" transform="translate(288.623047 0)"/>
      <use xlink:href="#DejaVuSans-79" transform="translate(343.603516 0)"/>
      <use xlink:href="#DejaVuSans-63" transform="translate(402.783203 0)"/>
      <use xlink:href="#DejaVuSans-6c" transform="translate(457.763672 0)"/>
      <use xlink:href="#DejaVuSans-65" transform="translate(485.546875 0)"/>
      <use xlink:href="#DejaVuSans-73" transform="translate(547.070312 0)"/>
     </g>
    </g>
   </g>
   <g id="matplotlib.axis_2"/>
   <g id="patch_3">
    <path d="M 112.946939 278.957969 
L 921.6 278.957969 
" style="fill: none; stroke: #000000; stroke-width: 0.8; stroke-linejoin: miter; stroke-linecap: square"/>
   </g>
   <g id="text_9">
    <!-- pc -->
    <g transform="translate(56.56133 64.455955) scale(0.11 -0.11)">
     <defs>
      <path id="DejaVuSansMono-70" d="M 1172 441 
L 1172 -1331 
L 594 -1331 
L 594 3500 
L 1172 3500 
L 1172 3053 
Q 1316 3313 1555 3448 
Q 1794 3584 2106 3584 
Q 2741 3584 3102 3093 
Q 3463 2603 3463 1734 
Q 3463 881 3100 395 
Q 2738 -91 2106 -91 
Q 1788 -91 1548 45 
Q 1309 181 1172 441 
z
M 2859 1747 
Q 2859 2416 2648 2756 
Q 2438 3097 2022 3097 
Q 1603 3097 1387 2755 
Q 1172 2413 1172 1747 
Q 1172 1084 1387 740 
Q 1603 397 2022 397 
Q 2438 397 2648 737 
Q 2859 1078 2859 1747 
z
" transform="scale(0.015625)"/>
      <path id="DejaVuSansMono-63" d="M 3316 178 
Q 3084 44 2839 -23 
Q 2594 -91 2338 -91 
Q 1525 -91 1067 396 
Q 609 884 609 1747 
Q 609 2609 1067 3096 
Q 1525 3584 2338 3584 
Q 2591 3584 2831 3518 
Q 3072 3453 3316 3316 
L 3316 2713 
Q 3088 2916 2858 3006 
Q 2628 3097 2338 3097 
Q 1797 3097 1506 2747 
Q 1216 2397 1216 1747 
Q 1216 1100 1508 748 
Q 1800 397 2338 397 
Q 2638 397 2875 489 
Q 3113 581 3316 775 
L 3316 178 
z
" transform="scale(0.015625)"/>
     </defs>
     <use xlink:href="#DejaVuSansMono-70"/>
     <use xlink:href="#DejaVuSansMono-63" transform="translate(60.205078 0)"/>
    </g>
   </g>
   <g id="line2d_10">
    <path d="M 112.946939 47.979787 
L 144.04898 47.979787 
" clip-path="url(#pd44463cc6f)" style="fill: none; stroke: #08306b; stroke-width: 1.7; stroke-linecap: square"/>
   </g>
   <g id="line2d_11">
    <path d="M 112.946939 74.80306 
L 144.04898 74.80306 
" clip-path="url(#pd44463cc6f)" style="fill: none; stroke: #08306b; stroke-width: 1.7; stroke-linecap: square"/>
   </g>
   <g id="line2d_12">
    <path d="M 112.946939 74.80306 
L 112.946939 47.979787 
" clip-path="url(#pd44463cc6f)" style="fill: none; stroke: #08306b; stroke-width: 1.2; stroke-linecap: square"/>
   </g>
   <g id="line2d_13">
    <path d="M 144.04898 74.80306 
L 144.04898 47.979787 
" clip-path="url(#pd44463cc6f)" style="fill: none; stroke: #08306b; stroke-width: 1.2; stroke-linecap: square"/>
   </g>
   <g id="text_10">
    <!-- 0 -->
    <g style="fill: #08306b" transform="translate(125.788819 63.898767) scale(0.09 -0.09)">
     <defs>
      <path id="DejaVuSansMono-30" d="M 1509 2344 
Q 1509 2516 1629 2641 
Q 1750 2766 1919 2766 
Q 2094 2766 2219 2641 
Q 2344 2516 2344 2344 
Q 2344 2169 2220 2047 
Q 2097 1925 1919 1925 
Q 1744 1925 1626 2044 
Q 1509 2163 1509 2344 
z
M 1925 4250 
Q 1484 4250 1267 3775 
Q 1050 3300 1050 2328 
Q 1050 1359 1267 884 
Q 1484 409 1925 409 
Q 2369 409 2586 884 
Q 2803 1359 2803 2328 
Q 2803 3300 2586 3775 
Q 2369 4250 1925 4250 
z
M 1925 4750 
Q 2672 4750 3055 4137 
Q 3438 3525 3438 2328 
Q 3438 1134 3055 521 
Q 2672 -91 1925 -91 
Q 1178 -91 797 521 
Q 416 1134 416 2328 
Q 416 3525 797 4137 
Q 1178 4750 1925 4750 
z
" transform="scale(0.015625)"/>
     </defs>
     <use xlink:href="#DejaVuSansMono-30"/>
    </g>
   </g>
   <g id="line2d_14">
    <path d="M 144.04898 47.979787 
L 175.15102 47.979787 
" clip-path="url(#pd44463cc6f)" style="fill: none; stroke: #08306b; stroke-width: 1.7; stroke-linecap: square"/>
   </g>
   <g id="line2d_15">
    <path d="M 144.04898 74.80306 
L 175.15102 74.80306 
" clip-path="url(#pd44463cc6f)" style="fill: none; stroke: #08306b; stroke-width: 1.7; stroke-linecap: square"/>
   </g>
   <g id="line2d_16">
    <path d="M 144.04898 74.80306 
L 144.04898 47.979787 
" clip-path="url(#pd44463cc6f)" style="fill: none; stroke: #08306b; stroke-width: 1.2; stroke-linecap: square"/>
   </g>
   <g id="line2d_17">
    <path d="M 175.15102 74.80306 
L 175.15102 47.979787 
" clip-path="url(#pd44463cc6f)" style="fill: none; stroke: #08306b; stroke-width: 1.2; stroke-linecap: square"/>
   </g>
   <g id="text_11">
    <!-- 4 -->
    <g style="fill: #08306b" transform="translate(156.890859 63.898767) scale(0.09 -0.09)">
     <defs>
      <path id="DejaVuSansMono-34" d="M 2297 4091 
L 825 1625 
L 2297 1625 
L 2297 4091 
z
M 2194 4666 
L 2925 4666 
L 2925 1625 
L 3547 1625 
L 3547 1113 
L 2925 1113 
L 2925 0 
L 2297 0 
L 2297 1113 
L 319 1113 
L 319 1709 
L 2194 4666 
z
" transform="scale(0.015625)"/>
     </defs>
     <use xlink:href="#DejaVuSansMono-34"/>
    </g>
   </g>
   <g id="line2d_18">
    <path d="M 175.15102 47.979787 
L 206.253061 47.979787 
" clip-path="url(#pd44463cc6f)" style="fill: none; stroke: #08306b; stroke-width: 1.7; stroke-linecap: square"/>
   </g>
   <g id="line2d_19">
    <path d="M 175.15102 74.80306 
L 206.253061 74.80306 
" clip-path="url(#pd44463cc6f)" style="fill: none; stroke: #08306b; stroke-width: 1.7; stroke-linecap: square"/>
   </g>
   <g id="line2d_20">
    <path d="M 175.15102 74.80306 
L 175.15102 47.979787 
" clip-path="url(#pd44463cc6f)" style="fill: none; stroke: #08306b; stroke-width: 1.2; stroke-linecap: square"/>
   </g>
   <g id="line2d_21">
    <path d="M 206.253061 74.80306 
L 206.253061 47.979787 
" clip-path="url(#pd44463cc6f)" style="fill: none; stroke: #08306b; stroke-width: 1.2; stroke-linecap: square"/>
   </g>
   <g id="text_12">
    <!-- 8 -->
    <g style="fill: #08306b" transform="translate(187.9929 63.898767) scale(0.09 -0.09)">
     <defs>
      <path id="DejaVuSansMono-38" d="M 1925 2216 
Q 1503 2216 1273 1980 
Q 1044 1744 1044 1313 
Q 1044 881 1276 642 
Q 1509 403 1925 403 
Q 2350 403 2579 639 
Q 2809 875 2809 1313 
Q 2809 1741 2576 1978 
Q 2344 2216 1925 2216 
z
M 1375 2478 
Q 972 2581 745 2862 
Q 519 3144 519 3541 
Q 519 4097 897 4423 
Q 1275 4750 1925 4750 
Q 2578 4750 2956 4423 
Q 3334 4097 3334 3541 
Q 3334 3144 3107 2862 
Q 2881 2581 2478 2478 
Q 2947 2375 3195 2062 
Q 3444 1750 3444 1253 
Q 3444 622 3041 265 
Q 2638 -91 1925 -91 
Q 1213 -91 811 264 
Q 409 619 409 1247 
Q 409 1747 657 2061 
Q 906 2375 1375 2478 
z
M 1147 3481 
Q 1147 3106 1347 2909 
Q 1547 2713 1925 2713 
Q 2306 2713 2506 2909 
Q 2706 3106 2706 3481 
Q 2706 3863 2507 4063 
Q 2309 4263 1925 4263 
Q 1547 4263 1347 4061 
Q 1147 3859 1147 3481 
z
" transform="scale(0.015625)"/>
     </defs>
     <use xlink:href="#DejaVuSansMono-38"/>
    </g>
   </g>
   <g id="line2d_22">
    <path d="M 206.253061 47.979787 
L 237.355102 47.979787 
" clip-path="url(#pd44463cc6f)" style="fill: none; stroke: #08306b; stroke-width: 1.7; stroke-linecap: square"/>
   </g>
   <g id="line2d_23">
    <path d="M 206.253061 74.80306 
L 237.355102 74.80306 
" clip-path="url(#pd44463cc6f)" style="fill: none; stroke: #08306b; stroke-width: 1.7; stroke-linecap: square"/>
   </g>
   <g id="line2d_24">
    <path d="M 206.253061 74.80306 
L 206.253061 47.979787 
" clip-path="url(#pd44463cc6f)" style="fill: none; stroke: #08306b; stroke-width: 1.2; stroke-linecap: square"/>
   </g>
   <g id="line2d_25">
    <path d="M 237.355102 74.80306 
L 237.355102 47.979787 
" clip-path="url(#pd44463cc6f)" style="fill: none; stroke: #08306b; stroke-width: 1.2; stroke-linecap: square"/>
   </g>
   <g id="text_13">
    <!-- 12 -->
    <g style="fill: #08306b" transform="translate(216.3858 63.898767) scale(0.09 -0.09)">
     <defs>
      <path id="DejaVuSansMono-31" d="M 844 531 
L 1825 531 
L 1825 4097 
L 769 3859 
L 769 4434 
L 1819 4666 
L 2450 4666 
L 2450 531 
L 3419 531 
L 3419 0 
L 844 0 
L 844 531 
z
" transform="scale(0.015625)"/>
      <path id="DejaVuSansMono-32" d="M 1166 531 
L 3309 531 
L 3309 0 
L 475 0 
L 475 531 
Q 1059 1147 1496 1619 
Q 1934 2091 2100 2284 
Q 2413 2666 2522 2902 
Q 2631 3138 2631 3384 
Q 2631 3775 2401 3997 
Q 2172 4219 1772 4219 
Q 1488 4219 1175 4116 
Q 863 4013 513 3803 
L 513 4441 
Q 834 4594 1145 4672 
Q 1456 4750 1759 4750 
Q 2444 4750 2861 4386 
Q 3278 4022 3278 3431 
Q 3278 3131 3139 2831 
Q 3000 2531 2688 2169 
Q 2513 1966 2180 1606 
Q 1847 1247 1166 531 
z
" transform="scale(0.015625)"/>
     </defs>
     <use xlink:href="#DejaVuSansMono-31"/>
     <use xlink:href="#DejaVuSansMono-32" transform="translate(60.205078 0)"/>
    </g>
   </g>
   <g id="line2d_26">
    <path d="M 237.355102 47.979787 
L 268.457143 47.979787 
" clip-path="url(#pd44463cc6f)" style="fill: none; stroke: #08306b; stroke-width: 1.7; stroke-linecap: square"/>
   </g>
   <g id="line2d_27">
    <path d="M 237.355102 74.80306 
L 268.457143 74.80306 
" clip-path="url(#pd44463cc6f)" style="fill: none; stroke: #08306b; stroke-width: 1.7; stroke-linecap: square"/>
   </g>
   <g id="line2d_28">
    <path d="M 237.355102 74.80306 
L 237.355102 47.979787 
" clip-path="url(#pd44463cc6f)" style="fill: none; stroke: #08306b; stroke-width: 1.2; stroke-linecap: square"/>
   </g>
   <g id="line2d_29">
    <path d="M 268.457143 74.80306 
L 268.457143 47.979787 
" clip-path="url(#pd44463cc6f)" style="fill: none; stroke: #08306b; stroke-width: 1.2; stroke-linecap: square"/>
   </g>
   <g id="text_14">
    <!-- 16 -->
    <g style="fill: #08306b" transform="translate(247.487841 63.898767) scale(0.09 -0.09)">
     <defs>
      <path id="DejaVuSansMono-36" d="M 3097 4563 
L 3097 3981 
Q 2900 4097 2678 4158 
Q 2456 4219 2216 4219 
Q 1616 4219 1306 3767 
Q 997 3316 997 2438 
Q 1147 2750 1412 2917 
Q 1678 3084 2022 3084 
Q 2697 3084 3067 2670 
Q 3438 2256 3438 1497 
Q 3438 741 3056 325 
Q 2675 -91 1984 -91 
Q 1172 -91 794 492 
Q 416 1075 416 2328 
Q 416 3509 870 4129 
Q 1325 4750 2188 4750 
Q 2419 4750 2650 4701 
Q 2881 4653 3097 4563 
z
M 1972 2591 
Q 1569 2591 1337 2300 
Q 1106 2009 1106 1497 
Q 1106 984 1337 693 
Q 1569 403 1972 403 
Q 2391 403 2603 679 
Q 2816 956 2816 1497 
Q 2816 2041 2603 2316 
Q 2391 2591 1972 2591 
z
" transform="scale(0.015625)"/>
     </defs>
     <use xlink:href="#DejaVuSansMono-31"/>
     <use xlink:href="#DejaVuSansMono-36" transform="translate(60.205078 0)"/>
    </g>
   </g>
   <g id="line2d_30">
    <path d="M 268.457143 47.979787 
L 299.559184 47.979787 
" clip-path="url(#pd44463cc6f)" style="fill: none; stroke: #08306b; stroke-width: 1.7; stroke-linecap: square"/>
   </g>
   <g id="line2d_31">
    <path d="M 268.457143 74.80306 
L 299.559184 74.80306 
" clip-path="url(#pd44463cc6f)" style="fill: none; stroke: #08306b; stroke-width: 1.7; stroke-linecap: square"/>
   </g>
   <g id="line2d_32">
    <path d="M 268.457143 74.80306 
L 268.457143 47.979787 
" clip-path="url(#pd44463cc6f)" style="fill: none; stroke: #08306b; stroke-width: 1.2; stroke-linecap: square"/>
   </g>
   <g id="line2d_33">
    <path d="M 299.559184 74.80306 
L 299.559184 47.979787 
" clip-path="url(#pd44463cc6f)" style="fill: none; stroke: #08306b; stroke-width: 1.2; stroke-linecap: square"/>
   </g>
   <g id="text_15">
    <!-- 8 -->
    <g style="fill: #08306b" transform="translate(281.299023 63.898767) scale(0.09 -0.09)">
     <use xlink:href="#DejaVuSansMono-38"/>
    </g>
   </g>
   <g id="line2d_34">
    <path d="M 299.559184 47.979787 
L 330.661224 47.979787 
" clip-path="url(#pd44463cc6f)" style="fill: none; stroke: #08306b; stroke-width: 1.7; stroke-linecap: square"/>
   </g>
   <g id="line2d_35">
    <path d="M 299.559184 74.80306 
L 330.661224 74.80306 
" clip-path="url(#pd44463cc6f)" style="fill: none; stroke: #08306b; stroke-width: 1.7; stroke-linecap: square"/>
   </g>
   <g id="line2d_36">
    <path d="M 299.559184 74.80306 
L 299.559184 47.979787 
" clip-path="url(#pd44463cc6f)" style="fill: none; stroke: #08306b; stroke-width: 1.2; stroke-linecap: square"/>
   </g>
   <g id="line2d_37">
    <path d="M 330.661224 74.80306 
L 330.661224 47.979787 
" clip-path="url(#pd44463cc6f)" style="fill: none; stroke: #08306b; stroke-width: 1.2; stroke-linecap: square"/>
   </g>
   <g id="text_16">
    <!-- 12 -->
    <g style="fill: #08306b" transform="translate(309.691923 63.898767) scale(0.09 -0.09)">
     <use xlink:href="#DejaVuSansMono-31"/>
     <use xlink:href="#DejaVuSansMono-32" transform="translate(60.205078 0)"/>
    </g>
   </g>
   <g id="line2d_38">
    <path d="M 330.661224 47.979787 
L 361.763265 47.979787 
" clip-path="url(#pd44463cc6f)" style="fill: none; stroke: #08306b; stroke-width: 1.7; stroke-linecap: square"/>
   </g>
   <g id="line2d_39">
    <path d="M 330.661224 74.80306 
L 361.763265 74.80306 
" clip-path="url(#pd44463cc6f)" style="fill: none; stroke: #08306b; stroke-width: 1.7; stroke-linecap: square"/>
   </g>
   <g id="line2d_40">
    <path d="M 330.661224 74.80306 
L 330.661224 47.979787 
" clip-path="url(#pd44463cc6f)" style="fill: none; stroke: #08306b; stroke-width: 1.2; stroke-linecap: square"/>
   </g>
   <g id="line2d_41">
    <path d="M 361.763265 74.80306 
L 361.763265 47.979787 
" clip-path="url(#pd44463cc6f)" style="fill: none; stroke: #08306b; stroke-width: 1.2; stroke-linecap: square"/>
   </g>
   <g id="text_17">
    <!-- 16 -->
    <g style="fill: #08306b" transform="translate(340.793964 63.898767) scale(0.09 -0.09)">
     <use xlink:href="#DejaVuSansMono-31"/>
     <use xlink:href="#DejaVuSansMono-36" transform="translate(60.205078 0)"/>
    </g>
   </g>
   <g id="line2d_42">
    <path d="M 361.763265 47.979787 
L 392.865306 47.979787 
" clip-path="url(#pd44463cc6f)" style="fill: none; stroke: #08306b; stroke-width: 1.7; stroke-linecap: square"/>
   </g>
   <g id="line2d_43">
    <path d="M 361.763265 74.80306 
L 392.865306 74.80306 
" clip-path="url(#pd44463cc6f)" style="fill: none; stroke: #08306b; stroke-width: 1.7; stroke-linecap: square"/>
   </g>
   <g id="line2d_44">
    <path d="M 361.763265 74.80306 
L 361.763265 47.979787 
" clip-path="url(#pd44463cc6f)" style="fill: none; stroke: #08306b; stroke-width: 1.2; stroke-linecap: square"/>
   </g>
   <g id="line2d_45">
    <path d="M 392.865306 74.80306 
L 392.865306 47.979787 
" clip-path="url(#pd44463cc6f)" style="fill: none; stroke: #08306b; stroke-width: 1.2; stroke-linecap: square"/>
   </g>
   <g id="text_18">
    <!-- 8 -->
    <g style="fill: #08306b" transform="translate(374.605145 63.898767) scale(0.09 -0.09)">
     <use xlink:href="#DejaVuSansMono-38"/>
    </g>
   </g>
   <g id="line2d_46">
    <path d="M 392.865306 47.979787 
L 423.967347 47.979787 
" clip-path="url(#pd44463cc6f)" style="fill: none; stroke: #08306b; stroke-width: 1.7; stroke-linecap: square"/>
   </g>
   <g id="line2d_47">
    <path d="M 392.865306 74.80306 
L 423.967347 74.80306 
" clip-path="url(#pd44463cc6f)" style="fill: none; stroke: #08306b; stroke-width: 1.7; stroke-linecap: square"/>
   </g>
   <g id="line2d_48">
    <path d="M 392.865306 74.80306 
L 392.865306 47.979787 
" clip-path="url(#pd44463cc6f)" style="fill: none; stroke: #08306b; stroke-width: 1.2; stroke-linecap: square"/>
   </g>
   <g id="line2d_49">
    <path d="M 423.967347 74.80306 
L 423.967347 47.979787 
" clip-path="url(#pd44463cc6f)" style="fill: none; stroke: #08306b; stroke-width: 1.2; stroke-linecap: square"/>
   </g>
   <g id="text_19">
    <!-- 12 -->
    <g style="fill: #08306b" transform="translate(402.998045 63.898767) scale(0.09 -0.09)">
     <use xlink:href="#DejaVuSansMono-31"/>
     <use xlink:href="#DejaVuSansMono-32" transform="translate(60.205078 0)"/>
    </g>
   </g>
   <g id="line2d_50">
    <path d="M 423.967347 47.979787 
L 455.069388 47.979787 
" clip-path="url(#pd44463cc6f)" style="fill: none; stroke: #08306b; stroke-width: 1.7; stroke-linecap: square"/>
   </g>
   <g id="line2d_51">
    <path d="M 423.967347 74.80306 
L 455.069388 74.80306 
" clip-path="url(#pd44463cc6f)" style="fill: none; stroke: #08306b; stroke-width: 1.7; stroke-linecap: square"/>
   </g>
   <g id="line2d_52">
    <path d="M 423.967347 74.80306 
L 423.967347 47.979787 
" clip-path="url(#pd44463cc6f)" style="fill: none; stroke: #08306b; stroke-width: 1.2; stroke-linecap: square"/>
   </g>
   <g id="line2d_53">
    <path d="M 455.069388 74.80306 
L 455.069388 47.979787 
" clip-path="url(#pd44463cc6f)" style="fill: none; stroke: #08306b; stroke-width: 1.2; stroke-linecap: square"/>
   </g>
   <g id="text_20">
    <!-- 16 -->
    <g style="fill: #08306b" transform="translate(434.100086 63.898767) scale(0.09 -0.09)">
     <use xlink:href="#DejaVuSansMono-31"/>
     <use xlink:href="#DejaVuSansMono-36" transform="translate(60.205078 0)"/>
    </g>
   </g>
   <g id="line2d_54">
    <path d="M 455.069388 47.979787 
L 486.171429 47.979787 
" clip-path="url(#pd44463cc6f)" style="fill: none; stroke: #08306b; stroke-width: 1.7; stroke-linecap: square"/>
   </g>
   <g id="line2d_55">
    <path d="M 455.069388 74.80306 
L 486.171429 74.80306 
" clip-path="url(#pd44463cc6f)" style="fill: none; stroke: #08306b; stroke-width: 1.7; stroke-linecap: square"/>
   </g>
   <g id="line2d_56">
    <path d="M 455.069388 74.80306 
L 455.069388 47.979787 
" clip-path="url(#pd44463cc6f)" style="fill: none; stroke: #08306b; stroke-width: 1.2; stroke-linecap: square"/>
   </g>
   <g id="line2d_57">
    <path d="M 486.171429 74.80306 
L 486.171429 47.979787 
" clip-path="url(#pd44463cc6f)" style="fill: none; stroke: #08306b; stroke-width: 1.2; stroke-linecap: square"/>
   </g>
   <g id="text_21">
    <!-- 8 -->
    <g style="fill: #08306b" transform="translate(467.911268 63.898767) scale(0.09 -0.09)">
     <use xlink:href="#DejaVuSansMono-38"/>
    </g>
   </g>
   <g id="line2d_58">
    <path d="M 486.171429 47.979787 
L 517.273469 47.979787 
" clip-path="url(#pd44463cc6f)" style="fill: none; stroke: #08306b; stroke-width: 1.7; stroke-linecap: square"/>
   </g>
   <g id="line2d_59">
    <path d="M 486.171429 74.80306 
L 517.273469 74.80306 
" clip-path="url(#pd44463cc6f)" style="fill: none; stroke: #08306b; stroke-width: 1.7; stroke-linecap: square"/>
   </g>
   <g id="line2d_60">
    <path d="M 486.171429 74.80306 
L 486.171429 47.979787 
" clip-path="url(#pd44463cc6f)" style="fill: none; stroke: #08306b; stroke-width: 1.2; stroke-linecap: square"/>
   </g>
   <g id="line2d_61">
    <path d="M 517.273469 74.80306 
L 517.273469 47.979787 
" clip-path="url(#pd44463cc6f)" style="fill: none; stroke: #08306b; stroke-width: 1.2; stroke-linecap: square"/>
   </g>
   <g id="text_22">
    <!-- 12 -->
    <g style="fill: #08306b" transform="translate(496.304168 63.898767) scale(0.09 -0.09)">
     <use xlink:href="#DejaVuSansMono-31"/>
     <use xlink:href="#DejaVuSansMono-32" transform="translate(60.205078 0)"/>
    </g>
   </g>
   <g id="line2d_62">
    <path d="M 517.273469 47.979787 
L 548.37551 47.979787 
" clip-path="url(#pd44463cc6f)" style="fill: none; stroke: #08306b; stroke-width: 1.7; stroke-linecap: square"/>
   </g>
   <g id="line2d_63">
    <path d="M 517.273469 74.80306 
L 548.37551 74.80306 
" clip-path="url(#pd44463cc6f)" style="fill: none; stroke: #08306b; stroke-width: 1.7; stroke-linecap: square"/>
   </g>
   <g id="line2d_64">
    <path d="M 517.273469 74.80306 
L 517.273469 47.979787 
" clip-path="url(#pd44463cc6f)" style="fill: none; stroke: #08306b; stroke-width: 1.2; stroke-linecap: square"/>
   </g>
   <g id="line2d_65">
    <path d="M 548.37551 74.80306 
L 548.37551 47.979787 
" clip-path="url(#pd44463cc6f)" style="fill: none; stroke: #08306b; stroke-width: 1.2; stroke-linecap: square"/>
   </g>
   <g id="text_23">
    <!-- 16 -->
    <g style="fill: #08306b" transform="translate(527.406209 63.898767) scale(0.09 -0.09)">
     <use xlink:href="#DejaVuSansMono-31"/>
     <use xlink:href="#DejaVuSansMono-36" transform="translate(60.205078 0)"/>
    </g>
   </g>
   <g id="line2d_66">
    <path d="M 548.37551 47.979787 
L 579.477551 47.979787 
" clip-path="url(#pd44463cc6f)" style="fill: none; stroke: #08306b; stroke-width: 1.7; stroke-linecap: square"/>
   </g>
   <g id="line2d_67">
    <path d="M 548.37551 74.80306 
L 579.477551 74.80306 
" clip-path="url(#pd44463cc6f)" style="fill: none; stroke: #08306b; stroke-width: 1.7; stroke-linecap: square"/>
   </g>
   <g id="line2d_68">
    <path d="M 548.37551 74.80306 
L 548.37551 47.979787 
" clip-path="url(#pd44463cc6f)" style="fill: none; stroke: #08306b; stroke-width: 1.2; stroke-linecap: square"/>
   </g>
   <g id="line2d_69">
    <path d="M 579.477551 74.80306 
L 579.477551 47.979787 
" clip-path="url(#pd44463cc6f)" style="fill: none; stroke: #08306b; stroke-width: 1.2; stroke-linecap: square"/>
   </g>
   <g id="text_24">
    <!-- 8 -->
    <g style="fill: #08306b" transform="translate(561.21739 63.898767) scale(0.09 -0.09)">
     <use xlink:href="#DejaVuSansMono-38"/>
    </g>
   </g>
   <g id="line2d_70">
    <path d="M 579.477551 47.979787 
L 610.579592 47.979787 
" clip-path="url(#pd44463cc6f)" style="fill: none; stroke: #08306b; stroke-width: 1.7; stroke-linecap: square"/>
   </g>
   <g id="line2d_71">
    <path d="M 579.477551 74.80306 
L 610.579592 74.80306 
" clip-path="url(#pd44463cc6f)" style="fill: none; stroke: #08306b; stroke-width: 1.7; stroke-linecap: square"/>
   </g>
   <g id="line2d_72">
    <path d="M 579.477551 74.80306 
L 579.477551 47.979787 
" clip-path="url(#pd44463cc6f)" style="fill: none; stroke: #08306b; stroke-width: 1.2; stroke-linecap: square"/>
   </g>
   <g id="line2d_73">
    <path d="M 610.579592 74.80306 
L 610.579592 47.979787 
" clip-path="url(#pd44463cc6f)" style="fill: none; stroke: #08306b; stroke-width: 1.2; stroke-linecap: square"/>
   </g>
   <g id="text_25">
    <!-- 12 -->
    <g style="fill: #08306b" transform="translate(589.61029 63.898767) scale(0.09 -0.09)">
     <use xlink:href="#DejaVuSansMono-31"/>
     <use xlink:href="#DejaVuSansMono-32" transform="translate(60.205078 0)"/>
    </g>
   </g>
   <g id="line2d_74">
    <path d="M 610.579592 47.979787 
L 641.681633 47.979787 
" clip-path="url(#pd44463cc6f)" style="fill: none; stroke: #08306b; stroke-width: 1.7; stroke-linecap: square"/>
   </g>
   <g id="line2d_75">
    <path d="M 610.579592 74.80306 
L 641.681633 74.80306 
" clip-path="url(#pd44463cc6f)" style="fill: none; stroke: #08306b; stroke-width: 1.7; stroke-linecap: square"/>
   </g>
   <g id="line2d_76">
    <path d="M 610.579592 74.80306 
L 610.579592 47.979787 
" clip-path="url(#pd44463cc6f)" style="fill: none; stroke: #08306b; stroke-width: 1.2; stroke-linecap: square"/>
   </g>
   <g id="line2d_77">
    <path d="M 641.681633 74.80306 
L 641.681633 47.979787 
" clip-path="url(#pd44463cc6f)" style="fill: none; stroke: #08306b; stroke-width: 1.2; stroke-linecap: square"/>
   </g>
   <g id="text_26">
    <!-- 16 -->
    <g style="fill: #08306b" transform="translate(620.712331 63.898767) scale(0.09 -0.09)">
     <use xlink:href="#DejaVuSansMono-31"/>
     <use xlink:href="#DejaVuSansMono-36" transform="translate(60.205078 0)"/>
    </g>
   </g>
   <g id="line2d_78">
    <path d="M 641.681633 47.979787 
L 672.783673 47.979787 
" clip-path="url(#pd44463cc6f)" style="fill: none; stroke: #08306b; stroke-width: 1.7; stroke-linecap: square"/>
   </g>
   <g id="line2d_79">
    <path d="M 641.681633 74.80306 
L 672.783673 74.80306 
" clip-path="url(#pd44463cc6f)" style="fill: none; stroke: #08306b; stroke-width: 1.7; stroke-linecap: square"/>
   </g>
   <g id="line2d_80">
    <path d="M 641.681633 74.80306 
L 641.681633 47.979787 
" clip-path="url(#pd44463cc6f)" style="fill: none; stroke: #08306b; stroke-width: 1.2; stroke-linecap: square"/>
   </g>
   <g id="line2d_81">
    <path d="M 672.783673 74.80306 
L 672.783673 47.979787 
" clip-path="url(#pd44463cc6f)" style="fill: none; stroke: #08306b; stroke-width: 1.2; stroke-linecap: square"/>
   </g>
   <g id="text_27">
    <!-- 8 -->
    <g style="fill: #08306b" transform="translate(654.523512 63.898767) scale(0.09 -0.09)">
     <use xlink:href="#DejaVuSansMono-38"/>
    </g>
   </g>
   <g id="line2d_82">
    <path d="M 672.783673 47.979787 
L 703.885714 47.979787 
" clip-path="url(#pd44463cc6f)" style="fill: none; stroke: #08306b; stroke-width: 1.7; stroke-linecap: square"/>
   </g>
   <g id="line2d_83">
    <path d="M 672.783673 74.80306 
L 703.885714 74.80306 
" clip-path="url(#pd44463cc6f)" style="fill: none; stroke: #08306b; stroke-width: 1.7; stroke-linecap: square"/>
   </g>
   <g id="line2d_84">
    <path d="M 672.783673 74.80306 
L 672.783673 47.979787 
" clip-path="url(#pd44463cc6f)" style="fill: none; stroke: #08306b; stroke-width: 1.2; stroke-linecap: square"/>
   </g>
   <g id="line2d_85">
    <path d="M 703.885714 74.80306 
L 703.885714 47.979787 
" clip-path="url(#pd44463cc6f)" style="fill: none; stroke: #08306b; stroke-width: 1.2; stroke-linecap: square"/>
   </g>
   <g id="text_28">
    <!-- 12 -->
    <g style="fill: #08306b" transform="translate(682.916413 63.898767) scale(0.09 -0.09)">
     <use xlink:href="#DejaVuSansMono-31"/>
     <use xlink:href="#DejaVuSansMono-32" transform="translate(60.205078 0)"/>
    </g>
   </g>
   <g id="line2d_86">
    <path d="M 703.885714 47.979787 
L 734.987755 47.979787 
" clip-path="url(#pd44463cc6f)" style="fill: none; stroke: #08306b; stroke-width: 1.7; stroke-linecap: square"/>
   </g>
   <g id="line2d_87">
    <path d="M 703.885714 74.80306 
L 734.987755 74.80306 
" clip-path="url(#pd44463cc6f)" style="fill: none; stroke: #08306b; stroke-width: 1.7; stroke-linecap: square"/>
   </g>
   <g id="line2d_88">
    <path d="M 703.885714 74.80306 
L 703.885714 47.979787 
" clip-path="url(#pd44463cc6f)" style="fill: none; stroke: #08306b; stroke-width: 1.2; stroke-linecap: square"/>
   </g>
   <g id="line2d_89">
    <path d="M 734.987755 74.80306 
L 734.987755 47.979787 
" clip-path="url(#pd44463cc6f)" style="fill: none; stroke: #08306b; stroke-width: 1.2; stroke-linecap: square"/>
   </g>
   <g id="text_29">
    <!-- 16 -->
    <g style="fill: #08306b" transform="translate(714.018453 63.898767) scale(0.09 -0.09)">
     <use xlink:href="#DejaVuSansMono-31"/>
     <use xlink:href="#DejaVuSansMono-36" transform="translate(60.205078 0)"/>
    </g>
   </g>
   <g id="line2d_90">
    <path d="M 734.987755 47.979787 
L 766.089796 47.979787 
" clip-path="url(#pd44463cc6f)" style="fill: none; stroke: #08306b; stroke-width: 1.7; stroke-linecap: square"/>
   </g>
   <g id="line2d_91">
    <path d="M 734.987755 74.80306 
L 766.089796 74.80306 
" clip-path="url(#pd44463cc6f)" style="fill: none; stroke: #08306b; stroke-width: 1.7; stroke-linecap: square"/>
   </g>
   <g id="line2d_92">
    <path d="M 734.987755 74.80306 
L 734.987755 47.979787 
" clip-path="url(#pd44463cc6f)" style="fill: none; stroke: #08306b; stroke-width: 1.2; stroke-linecap: square"/>
   </g>
   <g id="line2d_93">
    <path d="M 766.089796 74.80306 
L 766.089796 47.979787 
" clip-path="url(#pd44463cc6f)" style="fill: none; stroke: #08306b; stroke-width: 1.2; stroke-linecap: square"/>
   </g>
   <g id="text_30">
    <!-- 8 -->
    <g style="fill: #08306b" transform="translate(747.829635 63.898767) scale(0.09 -0.09)">
     <use xlink:href="#DejaVuSansMono-38"/>
    </g>
   </g>
   <g id="line2d_94">
    <path d="M 766.089796 47.979787 
L 797.191837 47.979787 
" clip-path="url(#pd44463cc6f)" style="fill: none; stroke: #08306b; stroke-width: 1.7; stroke-linecap: square"/>
   </g>
   <g id="line2d_95">
    <path d="M 766.089796 74.80306 
L 797.191837 74.80306 
" clip-path="url(#pd44463cc6f)" style="fill: none; stroke: #08306b; stroke-width: 1.7; stroke-linecap: square"/>
   </g>
   <g id="line2d_96">
    <path d="M 766.089796 74.80306 
L 766.089796 47.979787 
" clip-path="url(#pd44463cc6f)" style="fill: none; stroke: #08306b; stroke-width: 1.2; stroke-linecap: square"/>
   </g>
   <g id="line2d_97">
    <path d="M 797.191837 74.80306 
L 797.191837 47.979787 
" clip-path="url(#pd44463cc6f)" style="fill: none; stroke: #08306b; stroke-width: 1.2; stroke-linecap: square"/>
   </g>
   <g id="text_31">
    <!-- 12 -->
    <g style="fill: #08306b" transform="translate(776.222535 63.898767) scale(0.09 -0.09)">
     <use xlink:href="#DejaVuSansMono-31"/>
     <use xlink:href="#DejaVuSansMono-32" transform="translate(60.205078 0)"/>
    </g>
   </g>
   <g id="line2d_98">
    <path d="M 797.191837 47.979787 
L 828.293878 47.979787 
" clip-path="url(#pd44463cc6f)" style="fill: none; stroke: #08306b; stroke-width: 1.7; stroke-linecap: square"/>
   </g>
   <g id="line2d_99">
    <path d="M 797.191837 74.80306 
L 828.293878 74.80306 
" clip-path="url(#pd44463cc6f)" style="fill: none; stroke: #08306b; stroke-width: 1.7; stroke-linecap: square"/>
   </g>
   <g id="line2d_100">
    <path d="M 797.191837 74.80306 
L 797.191837 47.979787 
" clip-path="url(#pd44463cc6f)" style="fill: none; stroke: #08306b; stroke-width: 1.2; stroke-linecap: square"/>
   </g>
   <g id="line2d_101">
    <path d="M 828.293878 74.80306 
L 828.293878 47.979787 
" clip-path="url(#pd44463cc6f)" style="fill: none; stroke: #08306b; stroke-width: 1.2; stroke-linecap: square"/>
   </g>
   <g id="text_32">
    <!-- 16 -->
    <g style="fill: #08306b" transform="translate(807.324576 63.898767) scale(0.09 -0.09)">
     <use xlink:href="#DejaVuSansMono-31"/>
     <use xlink:href="#DejaVuSansMono-36" transform="translate(60.205078 0)"/>
    </g>
   </g>
   <g id="line2d_102">
    <path d="M 828.293878 47.979787 
L 859.395918 47.979787 
" clip-path="url(#pd44463cc6f)" style="fill: none; stroke: #08306b; stroke-width: 1.7; stroke-linecap: square"/>
   </g>
   <g id="line2d_103">
    <path d="M 828.293878 74.80306 
L 859.395918 74.80306 
" clip-path="url(#pd44463cc6f)" style="fill: none; stroke: #08306b; stroke-width: 1.7; stroke-linecap: square"/>
   </g>
   <g id="line2d_104">
    <path d="M 828.293878 74.80306 
L 828.293878 47.979787 
" clip-path="url(#pd44463cc6f)" style="fill: none; stroke: #08306b; stroke-width: 1.2; stroke-linecap: square"/>
   </g>
   <g id="line2d_105">
    <path d="M 859.395918 74.80306 
L 859.395918 47.979787 
" clip-path="url(#pd44463cc6f)" style="fill: none; stroke: #08306b; stroke-width: 1.2; stroke-linecap: square"/>
   </g>
   <g id="text_33">
    <!-- 20 -->
    <g style="fill: #08306b" transform="translate(838.426617 63.898767) scale(0.09 -0.09)">
     <use xlink:href="#DejaVuSansMono-32"/>
     <use xlink:href="#DejaVuSansMono-30" transform="translate(60.205078 0)"/>
    </g>
   </g>
   <g id="line2d_106">
    <path d="M 859.395918 47.979787 
L 921.6 47.979787 
" clip-path="url(#pd44463cc6f)" style="fill: none; stroke: #08306b; stroke-width: 1.7; stroke-linecap: square"/>
   </g>
   <g id="line2d_107">
    <path d="M 859.395918 74.80306 
L 921.6 74.80306 
" clip-path="url(#pd44463cc6f)" style="fill: none; stroke: #08306b; stroke-width: 1.7; stroke-linecap: square"/>
   </g>
   <g id="line2d_108">
    <path d="M 859.395918 74.80306 
L 859.395918 47.979787 
" clip-path="url(#pd44463cc6f)" style="fill: none; stroke: #08306b; stroke-width: 1.2; stroke-linecap: square"/>
   </g>
   <g id="line2d_109">
    <path d="M 921.6 74.80306 
L 921.6 47.979787 
" clip-path="url(#pd44463cc6f)" style="fill: none; stroke: #08306b; stroke-width: 1.2; stroke-linecap: square"/>
   </g>
   <g id="text_34">
    <!-- 24 -->
    <g style="fill: #08306b" transform="translate(885.079678 63.898767) scale(0.09 -0.09)">
     <use xlink:href="#DejaVuSansMono-32"/>
     <use xlink:href="#DejaVuSansMono-34" transform="translate(60.205078 0)"/>
    </g>
   </g>
   <g id="text_35">
    <!-- pc_src -->
    <g transform="translate(43.316642 111.46329) scale(0.11 -0.11)">
     <defs>
      <path id="DejaVuSansMono-5f" d="M 3853 -1259 
L 3853 -1509 
L 0 -1509 
L 0 -1259 
L 3853 -1259 
z
" transform="scale(0.015625)"/>
      <path id="DejaVuSansMono-73" d="M 3041 3378 
L 3041 2816 
Q 2794 2959 2544 3031 
Q 2294 3103 2034 3103 
Q 1644 3103 1451 2976 
Q 1259 2850 1259 2591 
Q 1259 2356 1403 2240 
Q 1547 2125 2119 2016 
L 2350 1972 
Q 2778 1891 2998 1647 
Q 3219 1403 3219 1013 
Q 3219 494 2850 201 
Q 2481 -91 1825 -91 
Q 1566 -91 1281 -36 
Q 997 19 666 128 
L 666 722 
Q 988 556 1281 473 
Q 1575 391 1838 391 
Q 2219 391 2428 545 
Q 2638 700 2638 978 
Q 2638 1378 1872 1531 
L 1847 1538 
L 1631 1581 
Q 1134 1678 906 1908 
Q 678 2138 678 2534 
Q 678 3038 1018 3311 
Q 1359 3584 1991 3584 
Q 2272 3584 2531 3532 
Q 2791 3481 3041 3378 
z
" transform="scale(0.015625)"/>
      <path id="DejaVuSansMono-72" d="M 3609 2778 
Q 3425 2922 3234 2987 
Q 3044 3053 2816 3053 
Q 2278 3053 1993 2715 
Q 1709 2378 1709 1741 
L 1709 0 
L 1131 0 
L 1131 3500 
L 1709 3500 
L 1709 2816 
Q 1853 3188 2151 3386 
Q 2450 3584 2859 3584 
Q 3072 3584 3256 3531 
Q 3441 3478 3609 3366 
L 3609 2778 
z
" transform="scale(0.015625)"/>
     </defs>
     <use xlink:href="#DejaVuSansMono-70"/>
     <use xlink:href="#DejaVuSansMono-63" transform="translate(60.205078 0)"/>
     <use xlink:href="#DejaVuSansMono-5f" transform="translate(120.410156 0)"/>
     <use xlink:href="#DejaVuSansMono-73" transform="translate(180.615234 0)"/>
     <use xlink:href="#DejaVuSansMono-72" transform="translate(240.820312 0)"/>
     <use xlink:href="#DejaVuSansMono-63" transform="translate(301.025391 0)"/>
    </g>
   </g>
   <g id="line2d_110">
    <path d="M 112.946939 122.116332 
L 144.04898 122.116332 
L 144.04898 122.116332 
L 175.15102 122.116332 
L 175.15102 122.116332 
L 206.253061 122.116332 
L 206.253061 122.116332 
L 237.355102 122.116332 
L 237.355102 95.29306 
L 268.457143 95.29306 
L 268.457143 122.116332 
L 299.559184 122.116332 
L 299.559184 122.116332 
L 330.661224 122.116332 
L 330.661224 95.29306 
L 361.763265 95.29306 
L 361.763265 122.116332 
L 392.865306 122.116332 
L 392.865306 122.116332 
L 423.967347 122.116332 
L 423.967347 95.29306 
L 455.069388 95.29306 
L 455.069388 122.116332 
L 486.171429 122.116332 
L 486.171429 122.116332 
L 517.273469 122.116332 
L 517.273469 95.29306 
L 548.37551 95.29306 
L 548.37551 122.116332 
L 579.477551 122.116332 
L 579.477551 122.116332 
L 610.579592 122.116332 
L 610.579592 95.29306 
L 641.681633 95.29306 
L 641.681633 122.116332 
L 672.783673 122.116332 
L 672.783673 122.116332 
L 703.885714 122.116332 
L 703.885714 95.29306 
L 734.987755 95.29306 
L 734.987755 122.116332 
L 766.089796 122.116332 
L 766.089796 122.116332 
L 797.191837 122.116332 
L 797.191837 122.116332 
L 828.293878 122.116332 
L 828.293878 122.116332 
L 859.395918 122.116332 
L 859.395918 95.29306 
L 890.497959 95.29306 
L 890.497959 95.29306 
L 921.6 95.29306 
L 921.6 95.29306 
" clip-path="url(#pd44463cc6f)" style="fill: none; stroke: #08306b; stroke-width: 1.8; stroke-linecap: square"/>
   </g>
   <g id="text_36">
    <!-- x1 -->
    <g transform="translate(56.56133 159.0825) scale(0.11 -0.11)">
     <defs>
      <path id="DejaVuSansMono-78" d="M 3494 3500 
L 2241 1825 
L 3616 0 
L 2950 0 
L 1925 1403 
L 903 0 
L 238 0 
L 1613 1825 
L 359 3500 
L 997 3500 
L 1925 2234 
L 2847 3500 
L 3494 3500 
z
" transform="scale(0.015625)"/>
     </defs>
     <use xlink:href="#DejaVuSansMono-78"/>
     <use xlink:href="#DejaVuSansMono-31" transform="translate(60.205078 0)"/>
    </g>
   </g>
   <g id="line2d_111">
    <path d="M 112.946939 142.606332 
L 144.04898 142.606332 
" clip-path="url(#pd44463cc6f)" style="fill: none; stroke: #08306b; stroke-width: 1.7; stroke-linecap: square"/>
   </g>
   <g id="line2d_112">
    <path d="M 112.946939 169.429605 
L 144.04898 169.429605 
" clip-path="url(#pd44463cc6f)" style="fill: none; stroke: #08306b; stroke-width: 1.7; stroke-linecap: square"/>
   </g>
   <g id="line2d_113">
    <path d="M 112.946939 169.429605 
L 112.946939 142.606332 
" clip-path="url(#pd44463cc6f)" style="fill: none; stroke: #08306b; stroke-width: 1.2; stroke-linecap: square"/>
   </g>
   <g id="line2d_114">
    <path d="M 144.04898 169.429605 
L 144.04898 142.606332 
" clip-path="url(#pd44463cc6f)" style="fill: none; stroke: #08306b; stroke-width: 1.2; stroke-linecap: square"/>
   </g>
   <g id="text_37">
    <!-- 0 -->
    <g style="fill: #08306b" transform="translate(125.788819 158.525313) scale(0.09 -0.09)">
     <use xlink:href="#DejaVuSansMono-30"/>
    </g>
   </g>
   <g id="line2d_115">
    <path d="M 144.04898 142.606332 
L 237.355102 142.606332 
" clip-path="url(#pd44463cc6f)" style="fill: none; stroke: #08306b; stroke-width: 1.7; stroke-linecap: square"/>
   </g>
   <g id="line2d_116">
    <path d="M 144.04898 169.429605 
L 237.355102 169.429605 
" clip-path="url(#pd44463cc6f)" style="fill: none; stroke: #08306b; stroke-width: 1.7; stroke-linecap: square"/>
   </g>
   <g id="line2d_117">
    <path d="M 144.04898 169.429605 
L 144.04898 142.606332 
" clip-path="url(#pd44463cc6f)" style="fill: none; stroke: #08306b; stroke-width: 1.2; stroke-linecap: square"/>
   </g>
   <g id="line2d_118">
    <path d="M 237.355102 169.429605 
L 237.355102 142.606332 
" clip-path="url(#pd44463cc6f)" style="fill: none; stroke: #08306b; stroke-width: 1.2; stroke-linecap: square"/>
   </g>
   <g id="text_38">
    <!-- 7 -->
    <g style="fill: #08306b" transform="translate(187.9929 158.525313) scale(0.09 -0.09)">
     <defs>
      <path id="DejaVuSansMono-37" d="M 434 4666 
L 3372 4666 
L 3372 4397 
L 1703 0 
L 1044 0 
L 2669 4134 
L 434 4134 
L 434 4666 
z
" transform="scale(0.015625)"/>
     </defs>
     <use xlink:href="#DejaVuSansMono-37"/>
    </g>
   </g>
   <g id="line2d_119">
    <path d="M 237.355102 142.606332 
L 330.661224 142.606332 
" clip-path="url(#pd44463cc6f)" style="fill: none; stroke: #08306b; stroke-width: 1.7; stroke-linecap: square"/>
   </g>
   <g id="line2d_120">
    <path d="M 237.355102 169.429605 
L 330.661224 169.429605 
" clip-path="url(#pd44463cc6f)" style="fill: none; stroke: #08306b; stroke-width: 1.7; stroke-linecap: square"/>
   </g>
   <g id="line2d_121">
    <path d="M 237.355102 169.429605 
L 237.355102 142.606332 
" clip-path="url(#pd44463cc6f)" style="fill: none; stroke: #08306b; stroke-width: 1.2; stroke-linecap: square"/>
   </g>
   <g id="line2d_122">
    <path d="M 330.661224 169.429605 
L 330.661224 142.606332 
" clip-path="url(#pd44463cc6f)" style="fill: none; stroke: #08306b; stroke-width: 1.2; stroke-linecap: square"/>
   </g>
   <g id="text_39">
    <!-- 6 -->
    <g style="fill: #08306b" transform="translate(281.299023 158.525313) scale(0.09 -0.09)">
     <use xlink:href="#DejaVuSansMono-36"/>
    </g>
   </g>
   <g id="line2d_123">
    <path d="M 330.661224 142.606332 
L 423.967347 142.606332 
" clip-path="url(#pd44463cc6f)" style="fill: none; stroke: #08306b; stroke-width: 1.7; stroke-linecap: square"/>
   </g>
   <g id="line2d_124">
    <path d="M 330.661224 169.429605 
L 423.967347 169.429605 
" clip-path="url(#pd44463cc6f)" style="fill: none; stroke: #08306b; stroke-width: 1.7; stroke-linecap: square"/>
   </g>
   <g id="line2d_125">
    <path d="M 330.661224 169.429605 
L 330.661224 142.606332 
" clip-path="url(#pd44463cc6f)" style="fill: none; stroke: #08306b; stroke-width: 1.2; stroke-linecap: square"/>
   </g>
   <g id="line2d_126">
    <path d="M 423.967347 169.429605 
L 423.967347 142.606332 
" clip-path="url(#pd44463cc6f)" style="fill: none; stroke: #08306b; stroke-width: 1.2; stroke-linecap: square"/>
   </g>
   <g id="text_40">
    <!-- 5 -->
    <g style="fill: #08306b" transform="translate(374.605145 158.525313) scale(0.09 -0.09)">
     <defs>
      <path id="DejaVuSansMono-35" d="M 647 4666 
L 3009 4666 
L 3009 4134 
L 1222 4134 
L 1222 2988 
Q 1356 3038 1492 3061 
Q 1628 3084 1766 3084 
Q 2491 3084 2916 2656 
Q 3341 2228 3341 1497 
Q 3341 759 2895 334 
Q 2450 -91 1678 -91 
Q 1306 -91 998 -41 
Q 691 9 447 109 
L 447 750 
Q 734 594 1025 517 
Q 1316 441 1619 441 
Q 2141 441 2423 716 
Q 2706 991 2706 1497 
Q 2706 1997 2414 2275 
Q 2122 2553 1600 2553 
Q 1347 2553 1106 2495 
Q 866 2438 647 2322 
L 647 4666 
z
" transform="scale(0.015625)"/>
     </defs>
     <use xlink:href="#DejaVuSansMono-35"/>
    </g>
   </g>
   <g id="line2d_127">
    <path d="M 423.967347 142.606332 
L 517.273469 142.606332 
" clip-path="url(#pd44463cc6f)" style="fill: none; stroke: #08306b; stroke-width: 1.7; stroke-linecap: square"/>
   </g>
   <g id="line2d_128">
    <path d="M 423.967347 169.429605 
L 517.273469 169.429605 
" clip-path="url(#pd44463cc6f)" style="fill: none; stroke: #08306b; stroke-width: 1.7; stroke-linecap: square"/>
   </g>
   <g id="line2d_129">
    <path d="M 423.967347 169.429605 
L 423.967347 142.606332 
" clip-path="url(#pd44463cc6f)" style="fill: none; stroke: #08306b; stroke-width: 1.2; stroke-linecap: square"/>
   </g>
   <g id="line2d_130">
    <path d="M 517.273469 169.429605 
L 517.273469 142.606332 
" clip-path="url(#pd44463cc6f)" style="fill: none; stroke: #08306b; stroke-width: 1.2; stroke-linecap: square"/>
   </g>
   <g id="text_41">
    <!-- 4 -->
    <g style="fill: #08306b" transform="translate(467.911268 158.525313) scale(0.09 -0.09)">
     <use xlink:href="#DejaVuSansMono-34"/>
    </g>
   </g>
   <g id="line2d_131">
    <path d="M 517.273469 142.606332 
L 610.579592 142.606332 
" clip-path="url(#pd44463cc6f)" style="fill: none; stroke: #08306b; stroke-width: 1.7; stroke-linecap: square"/>
   </g>
   <g id="line2d_132">
    <path d="M 517.273469 169.429605 
L 610.579592 169.429605 
" clip-path="url(#pd44463cc6f)" style="fill: none; stroke: #08306b; stroke-width: 1.7; stroke-linecap: square"/>
   </g>
   <g id="line2d_133">
    <path d="M 517.273469 169.429605 
L 517.273469 142.606332 
" clip-path="url(#pd44463cc6f)" style="fill: none; stroke: #08306b; stroke-width: 1.2; stroke-linecap: square"/>
   </g>
   <g id="line2d_134">
    <path d="M 610.579592 169.429605 
L 610.579592 142.606332 
" clip-path="url(#pd44463cc6f)" style="fill: none; stroke: #08306b; stroke-width: 1.2; stroke-linecap: square"/>
   </g>
   <g id="text_42">
    <!-- 3 -->
    <g style="fill: #08306b" transform="translate(561.21739 158.525313) scale(0.09 -0.09)">
     <defs>
      <path id="DejaVuSansMono-33" d="M 2425 2497 
Q 2884 2375 3128 2064 
Q 3372 1753 3372 1288 
Q 3372 644 2939 276 
Q 2506 -91 1741 -91 
Q 1419 -91 1084 -31 
Q 750 28 428 141 
L 428 769 
Q 747 603 1056 522 
Q 1366 441 1672 441 
Q 2191 441 2469 675 
Q 2747 909 2747 1350 
Q 2747 1756 2469 1995 
Q 2191 2234 1716 2234 
L 1234 2234 
L 1234 2753 
L 1716 2753 
Q 2150 2753 2394 2943 
Q 2638 3134 2638 3475 
Q 2638 3834 2411 4026 
Q 2184 4219 1766 4219 
Q 1488 4219 1191 4156 
Q 894 4094 569 3969 
L 569 4550 
Q 947 4650 1242 4700 
Q 1538 4750 1766 4750 
Q 2447 4750 2855 4408 
Q 3263 4066 3263 3500 
Q 3263 3116 3048 2859 
Q 2834 2603 2425 2497 
z
" transform="scale(0.015625)"/>
     </defs>
     <use xlink:href="#DejaVuSansMono-33"/>
    </g>
   </g>
   <g id="line2d_135">
    <path d="M 610.579592 142.606332 
L 703.885714 142.606332 
" clip-path="url(#pd44463cc6f)" style="fill: none; stroke: #08306b; stroke-width: 1.7; stroke-linecap: square"/>
   </g>
   <g id="line2d_136">
    <path d="M 610.579592 169.429605 
L 703.885714 169.429605 
" clip-path="url(#pd44463cc6f)" style="fill: none; stroke: #08306b; stroke-width: 1.7; stroke-linecap: square"/>
   </g>
   <g id="line2d_137">
    <path d="M 610.579592 169.429605 
L 610.579592 142.606332 
" clip-path="url(#pd44463cc6f)" style="fill: none; stroke: #08306b; stroke-width: 1.2; stroke-linecap: square"/>
   </g>
   <g id="line2d_138">
    <path d="M 703.885714 169.429605 
L 703.885714 142.606332 
" clip-path="url(#pd44463cc6f)" style="fill: none; stroke: #08306b; stroke-width: 1.2; stroke-linecap: square"/>
   </g>
   <g id="text_43">
    <!-- 2 -->
    <g style="fill: #08306b" transform="translate(654.523512 158.525313) scale(0.09 -0.09)">
     <use xlink:href="#DejaVuSansMono-32"/>
    </g>
   </g>
   <g id="line2d_139">
    <path d="M 703.885714 142.606332 
L 797.191837 142.606332 
" clip-path="url(#pd44463cc6f)" style="fill: none; stroke: #08306b; stroke-width: 1.7; stroke-linecap: square"/>
   </g>
   <g id="line2d_140">
    <path d="M 703.885714 169.429605 
L 797.191837 169.429605 
" clip-path="url(#pd44463cc6f)" style="fill: none; stroke: #08306b; stroke-width: 1.7; stroke-linecap: square"/>
   </g>
   <g id="line2d_141">
    <path d="M 703.885714 169.429605 
L 703.885714 142.606332 
" clip-path="url(#pd44463cc6f)" style="fill: none; stroke: #08306b; stroke-width: 1.2; stroke-linecap: square"/>
   </g>
   <g id="line2d_142">
    <path d="M 797.191837 169.429605 
L 797.191837 142.606332 
" clip-path="url(#pd44463cc6f)" style="fill: none; stroke: #08306b; stroke-width: 1.2; stroke-linecap: square"/>
   </g>
   <g id="text_44">
    <!-- 1 -->
    <g style="fill: #08306b" transform="translate(747.829635 158.525313) scale(0.09 -0.09)">
     <use xlink:href="#DejaVuSansMono-31"/>
    </g>
   </g>
   <g id="line2d_143">
    <path d="M 797.191837 142.606332 
L 921.6 142.606332 
" clip-path="url(#pd44463cc6f)" style="fill: none; stroke: #08306b; stroke-width: 1.7; stroke-linecap: square"/>
   </g>
   <g id="line2d_144">
    <path d="M 797.191837 169.429605 
L 921.6 169.429605 
" clip-path="url(#pd44463cc6f)" style="fill: none; stroke: #08306b; stroke-width: 1.7; stroke-linecap: square"/>
   </g>
   <g id="line2d_145">
    <path d="M 797.191837 169.429605 
L 797.191837 142.606332 
" clip-path="url(#pd44463cc6f)" style="fill: none; stroke: #08306b; stroke-width: 1.2; stroke-linecap: square"/>
   </g>
   <g id="line2d_146">
    <path d="M 921.6 169.429605 
L 921.6 142.606332 
" clip-path="url(#pd44463cc6f)" style="fill: none; stroke: #08306b; stroke-width: 1.2; stroke-linecap: square"/>
   </g>
   <g id="text_45">
    <!-- 0 -->
    <g style="fill: #08306b" transform="translate(856.686778 158.525313) scale(0.09 -0.09)">
     <use xlink:href="#DejaVuSansMono-30"/>
    </g>
   </g>
   <g id="text_46">
    <!-- x2 -->
    <g transform="translate(56.56133 206.395773) scale(0.11 -0.11)">
     <use xlink:href="#DejaVuSansMono-78"/>
     <use xlink:href="#DejaVuSansMono-32" transform="translate(60.205078 0)"/>
    </g>
   </g>
   <g id="line2d_147">
    <path d="M 112.946939 189.919605 
L 206.253061 189.919605 
" clip-path="url(#pd44463cc6f)" style="fill: none; stroke: #08306b; stroke-width: 1.7; stroke-linecap: square"/>
   </g>
   <g id="line2d_148">
    <path d="M 112.946939 216.742878 
L 206.253061 216.742878 
" clip-path="url(#pd44463cc6f)" style="fill: none; stroke: #08306b; stroke-width: 1.7; stroke-linecap: square"/>
   </g>
   <g id="line2d_149">
    <path d="M 112.946939 216.742878 
L 112.946939 189.919605 
" clip-path="url(#pd44463cc6f)" style="fill: none; stroke: #08306b; stroke-width: 1.2; stroke-linecap: square"/>
   </g>
   <g id="line2d_150">
    <path d="M 206.253061 216.742878 
L 206.253061 189.919605 
" clip-path="url(#pd44463cc6f)" style="fill: none; stroke: #08306b; stroke-width: 1.2; stroke-linecap: square"/>
   </g>
   <g id="text_47">
    <!-- 0 -->
    <g style="fill: #08306b" transform="translate(156.890859 205.838585) scale(0.09 -0.09)">
     <use xlink:href="#DejaVuSansMono-30"/>
    </g>
   </g>
   <g id="line2d_151">
    <path d="M 206.253061 189.919605 
L 299.559184 189.919605 
" clip-path="url(#pd44463cc6f)" style="fill: none; stroke: #08306b; stroke-width: 1.7; stroke-linecap: square"/>
   </g>
   <g id="line2d_152">
    <path d="M 206.253061 216.742878 
L 299.559184 216.742878 
" clip-path="url(#pd44463cc6f)" style="fill: none; stroke: #08306b; stroke-width: 1.7; stroke-linecap: square"/>
   </g>
   <g id="line2d_153">
    <path d="M 206.253061 216.742878 
L 206.253061 189.919605 
" clip-path="url(#pd44463cc6f)" style="fill: none; stroke: #08306b; stroke-width: 1.2; stroke-linecap: square"/>
   </g>
   <g id="line2d_154">
    <path d="M 299.559184 216.742878 
L 299.559184 189.919605 
" clip-path="url(#pd44463cc6f)" style="fill: none; stroke: #08306b; stroke-width: 1.2; stroke-linecap: square"/>
   </g>
   <g id="text_48">
    <!-- 7 -->
    <g style="fill: #08306b" transform="translate(250.196982 205.838585) scale(0.09 -0.09)">
     <use xlink:href="#DejaVuSansMono-37"/>
    </g>
   </g>
   <g id="line2d_155">
    <path d="M 299.559184 189.919605 
L 392.865306 189.919605 
" clip-path="url(#pd44463cc6f)" style="fill: none; stroke: #08306b; stroke-width: 1.7; stroke-linecap: square"/>
   </g>
   <g id="line2d_156">
    <path d="M 299.559184 216.742878 
L 392.865306 216.742878 
" clip-path="url(#pd44463cc6f)" style="fill: none; stroke: #08306b; stroke-width: 1.7; stroke-linecap: square"/>
   </g>
   <g id="line2d_157">
    <path d="M 299.559184 216.742878 
L 299.559184 189.919605 
" clip-path="url(#pd44463cc6f)" style="fill: none; stroke: #08306b; stroke-width: 1.2; stroke-linecap: square"/>
   </g>
   <g id="line2d_158">
    <path d="M 392.865306 216.742878 
L 392.865306 189.919605 
" clip-path="url(#pd44463cc6f)" style="fill: none; stroke: #08306b; stroke-width: 1.2; stroke-linecap: square"/>
   </g>
   <g id="text_49">
    <!-- 13 -->
    <g style="fill: #08306b" transform="translate(340.793964 205.838585) scale(0.09 -0.09)">
     <use xlink:href="#DejaVuSansMono-31"/>
     <use xlink:href="#DejaVuSansMono-33" transform="translate(60.205078 0)"/>
    </g>
   </g>
   <g id="line2d_159">
    <path d="M 392.865306 189.919605 
L 486.171429 189.919605 
" clip-path="url(#pd44463cc6f)" style="fill: none; stroke: #08306b; stroke-width: 1.7; stroke-linecap: square"/>
   </g>
   <g id="line2d_160">
    <path d="M 392.865306 216.742878 
L 486.171429 216.742878 
" clip-path="url(#pd44463cc6f)" style="fill: none; stroke: #08306b; stroke-width: 1.7; stroke-linecap: square"/>
   </g>
   <g id="line2d_161">
    <path d="M 392.865306 216.742878 
L 392.865306 189.919605 
" clip-path="url(#pd44463cc6f)" style="fill: none; stroke: #08306b; stroke-width: 1.2; stroke-linecap: square"/>
   </g>
   <g id="line2d_162">
    <path d="M 486.171429 216.742878 
L 486.171429 189.919605 
" clip-path="url(#pd44463cc6f)" style="fill: none; stroke: #08306b; stroke-width: 1.2; stroke-linecap: square"/>
   </g>
   <g id="text_50">
    <!-- 18 -->
    <g style="fill: #08306b" transform="translate(434.100086 205.838585) scale(0.09 -0.09)">
     <use xlink:href="#DejaVuSansMono-31"/>
     <use xlink:href="#DejaVuSansMono-38" transform="translate(60.205078 0)"/>
    </g>
   </g>
   <g id="line2d_163">
    <path d="M 486.171429 189.919605 
L 579.477551 189.919605 
" clip-path="url(#pd44463cc6f)" style="fill: none; stroke: #08306b; stroke-width: 1.7; stroke-linecap: square"/>
   </g>
   <g id="line2d_164">
    <path d="M 486.171429 216.742878 
L 579.477551 216.742878 
" clip-path="url(#pd44463cc6f)" style="fill: none; stroke: #08306b; stroke-width: 1.7; stroke-linecap: square"/>
   </g>
   <g id="line2d_165">
    <path d="M 486.171429 216.742878 
L 486.171429 189.919605 
" clip-path="url(#pd44463cc6f)" style="fill: none; stroke: #08306b; stroke-width: 1.2; stroke-linecap: square"/>
   </g>
   <g id="line2d_166">
    <path d="M 579.477551 216.742878 
L 579.477551 189.919605 
" clip-path="url(#pd44463cc6f)" style="fill: none; stroke: #08306b; stroke-width: 1.2; stroke-linecap: square"/>
   </g>
   <g id="text_51">
    <!-- 22 -->
    <g style="fill: #08306b" transform="translate(527.406209 205.838585) scale(0.09 -0.09)">
     <use xlink:href="#DejaVuSansMono-32"/>
     <use xlink:href="#DejaVuSansMono-32" transform="translate(60.205078 0)"/>
    </g>
   </g>
   <g id="line2d_167">
    <path d="M 579.477551 189.919605 
L 672.783673 189.919605 
" clip-path="url(#pd44463cc6f)" style="fill: none; stroke: #08306b; stroke-width: 1.7; stroke-linecap: square"/>
   </g>
   <g id="line2d_168">
    <path d="M 579.477551 216.742878 
L 672.783673 216.742878 
" clip-path="url(#pd44463cc6f)" style="fill: none; stroke: #08306b; stroke-width: 1.7; stroke-linecap: square"/>
   </g>
   <g id="line2d_169">
    <path d="M 579.477551 216.742878 
L 579.477551 189.919605 
" clip-path="url(#pd44463cc6f)" style="fill: none; stroke: #08306b; stroke-width: 1.2; stroke-linecap: square"/>
   </g>
   <g id="line2d_170">
    <path d="M 672.783673 216.742878 
L 672.783673 189.919605 
" clip-path="url(#pd44463cc6f)" style="fill: none; stroke: #08306b; stroke-width: 1.2; stroke-linecap: square"/>
   </g>
   <g id="text_52">
    <!-- 25 -->
    <g style="fill: #08306b" transform="translate(620.712331 205.838585) scale(0.09 -0.09)">
     <use xlink:href="#DejaVuSansMono-32"/>
     <use xlink:href="#DejaVuSansMono-35" transform="translate(60.205078 0)"/>
    </g>
   </g>
   <g id="line2d_171">
    <path d="M 672.783673 189.919605 
L 766.089796 189.919605 
" clip-path="url(#pd44463cc6f)" style="fill: none; stroke: #08306b; stroke-width: 1.7; stroke-linecap: square"/>
   </g>
   <g id="line2d_172">
    <path d="M 672.783673 216.742878 
L 766.089796 216.742878 
" clip-path="url(#pd44463cc6f)" style="fill: none; stroke: #08306b; stroke-width: 1.7; stroke-linecap: square"/>
   </g>
   <g id="line2d_173">
    <path d="M 672.783673 216.742878 
L 672.783673 189.919605 
" clip-path="url(#pd44463cc6f)" style="fill: none; stroke: #08306b; stroke-width: 1.2; stroke-linecap: square"/>
   </g>
   <g id="line2d_174">
    <path d="M 766.089796 216.742878 
L 766.089796 189.919605 
" clip-path="url(#pd44463cc6f)" style="fill: none; stroke: #08306b; stroke-width: 1.2; stroke-linecap: square"/>
   </g>
   <g id="text_53">
    <!-- 27 -->
    <g style="fill: #08306b" transform="translate(714.018453 205.838585) scale(0.09 -0.09)">
     <use xlink:href="#DejaVuSansMono-32"/>
     <use xlink:href="#DejaVuSansMono-37" transform="translate(60.205078 0)"/>
    </g>
   </g>
   <g id="line2d_175">
    <path d="M 766.089796 189.919605 
L 921.6 189.919605 
" clip-path="url(#pd44463cc6f)" style="fill: none; stroke: #08306b; stroke-width: 1.7; stroke-linecap: square"/>
   </g>
   <g id="line2d_176">
    <path d="M 766.089796 216.742878 
L 921.6 216.742878 
" clip-path="url(#pd44463cc6f)" style="fill: none; stroke: #08306b; stroke-width: 1.7; stroke-linecap: square"/>
   </g>
   <g id="line2d_177">
    <path d="M 766.089796 216.742878 
L 766.089796 189.919605 
" clip-path="url(#pd44463cc6f)" style="fill: none; stroke: #08306b; stroke-width: 1.2; stroke-linecap: square"/>
   </g>
   <g id="line2d_178">
    <path d="M 921.6 216.742878 
L 921.6 189.919605 
" clip-path="url(#pd44463cc6f)" style="fill: none; stroke: #08306b; stroke-width: 1.2; stroke-linecap: square"/>
   </g>
   <g id="text_54">
    <!-- 28 -->
    <g style="fill: #08306b" transform="translate(838.426617 205.838585) scale(0.09 -0.09)">
     <use xlink:href="#DejaVuSansMono-32"/>
     <use xlink:href="#DejaVuSansMono-38" transform="translate(60.205078 0)"/>
    </g>
   </g>
   <g id="text_55">
    <!-- mem_write -->
    <g transform="translate(33.383127 253.526858) scale(0.11 -0.11)">
     <defs>
      <path id="DejaVuSansMono-6d" d="M 2113 3144 
Q 2219 3369 2383 3476 
Q 2547 3584 2778 3584 
Q 3200 3584 3373 3257 
Q 3547 2931 3547 2028 
L 3547 0 
L 3022 0 
L 3022 2003 
Q 3022 2744 2939 2923 
Q 2856 3103 2638 3103 
Q 2388 3103 2295 2911 
Q 2203 2719 2203 2003 
L 2203 0 
L 1678 0 
L 1678 2003 
Q 1678 2753 1589 2928 
Q 1500 3103 1269 3103 
Q 1041 3103 952 2911 
Q 863 2719 863 2003 
L 863 0 
L 341 0 
L 341 3500 
L 863 3500 
L 863 3200 
Q 966 3388 1120 3486 
Q 1275 3584 1472 3584 
Q 1709 3584 1867 3475 
Q 2025 3366 2113 3144 
z
" transform="scale(0.015625)"/>
      <path id="DejaVuSansMono-65" d="M 3475 1894 
L 3475 1613 
L 984 1613 
L 984 1594 
Q 984 1022 1282 709 
Q 1581 397 2125 397 
Q 2400 397 2700 484 
Q 3000 572 3341 750 
L 3341 178 
Q 3013 44 2708 -23 
Q 2403 -91 2119 -91 
Q 1303 -91 843 398 
Q 384 888 384 1747 
Q 384 2584 834 3084 
Q 1284 3584 2034 3584 
Q 2703 3584 3089 3131 
Q 3475 2678 3475 1894 
z
M 2900 2063 
Q 2888 2569 2661 2833 
Q 2434 3097 2009 3097 
Q 1594 3097 1325 2822 
Q 1056 2547 1006 2059 
L 2900 2063 
z
" transform="scale(0.015625)"/>
      <path id="DejaVuSansMono-77" d="M 0 3500 
L 569 3500 
L 1178 672 
L 1678 2478 
L 2169 2478 
L 2675 672 
L 3284 3500 
L 3853 3500 
L 3034 0 
L 2484 0 
L 1925 1919 
L 1369 0 
L 819 0 
L 0 3500 
z
" transform="scale(0.015625)"/>
      <path id="DejaVuSansMono-69" d="M 800 3500 
L 2272 3500 
L 2272 447 
L 3413 447 
L 3413 0 
L 556 0 
L 556 447 
L 1697 447 
L 1697 3053 
L 800 3053 
L 800 3500 
z
M 1697 4863 
L 2272 4863 
L 2272 4134 
L 1697 4134 
L 1697 4863 
z
" transform="scale(0.015625)"/>
      <path id="DejaVuSansMono-74" d="M 1919 4494 
L 1919 3500 
L 3225 3500 
L 3225 3053 
L 1919 3053 
L 1919 1153 
Q 1919 766 2066 612 
Q 2213 459 2578 459 
L 3225 459 
L 3225 0 
L 2522 0 
Q 1875 0 1609 259 
Q 1344 519 1344 1153 
L 1344 3053 
L 409 3053 
L 409 3500 
L 1344 3500 
L 1344 4494 
L 1919 4494 
z
" transform="scale(0.015625)"/>
     </defs>
     <use xlink:href="#DejaVuSansMono-6d"/>
     <use xlink:href="#DejaVuSansMono-65" transform="translate(60.205078 0)"/>
     <use xlink:href="#DejaVuSansMono-6d" transform="translate(120.410156 0)"/>
     <use xlink:href="#DejaVuSansMono-5f" transform="translate(180.615234 0)"/>
     <use xlink:href="#DejaVuSansMono-77" transform="translate(240.820312 0)"/>
     <use xlink:href="#DejaVuSansMono-72" transform="translate(301.025391 0)"/>
     <use xlink:href="#DejaVuSansMono-69" transform="translate(361.230469 0)"/>
     <use xlink:href="#DejaVuSansMono-74" transform="translate(421.435547 0)"/>
     <use xlink:href="#DejaVuSansMono-65" transform="translate(481.640625 0)"/>
    </g>
   </g>
   <g id="line2d_179">
    <path d="M 112.946939 264.056151 
L 144.04898 264.056151 
L 144.04898 264.056151 
L 175.15102 264.056151 
L 175.15102 264.056151 
L 206.253061 264.056151 
L 206.253061 264.056151 
L 237.355102 264.056151 
L 237.355102 264.056151 
L 268.457143 264.056151 
L 268.457143 264.056151 
L 299.559184 264.056151 
L 299.559184 264.056151 
L 330.661224 264.056151 
L 330.661224 264.056151 
L 361.763265 264.056151 
L 361.763265 264.056151 
L 392.865306 264.056151 
L 392.865306 264.056151 
L 423.967347 264.056151 
L 423.967347 264.056151 
L 455.069388 264.056151 
L 455.069388 264.056151 
L 486.171429 264.056151 
L 486.171429 264.056151 
L 517.273469 264.056151 
L 517.273469 264.056151 
L 548.37551 264.056151 
L 548.37551 264.056151 
L 579.477551 264.056151 
L 579.477551 264.056151 
L 610.579592 264.056151 
L 610.579592 264.056151 
L 641.681633 264.056151 
L 641.681633 264.056151 
L 672.783673 264.056151 
L 672.783673 264.056151 
L 703.885714 264.056151 
L 703.885714 264.056151 
L 734.987755 264.056151 
L 734.987755 264.056151 
L 766.089796 264.056151 
L 766.089796 264.056151 
L 797.191837 264.056151 
L 797.191837 264.056151 
L 828.293878 264.056151 
L 828.293878 237.232878 
L 859.395918 237.232878 
L 859.395918 264.056151 
L 890.497959 264.056151 
L 890.497959 264.056151 
L 921.6 264.056151 
L 921.6 264.056151 
" clip-path="url(#pd44463cc6f)" style="fill: none; stroke: #08306b; stroke-width: 1.8; stroke-linecap: square"/>
   </g>
   <g id="text_56">
    <!-- Branch Loop -->
    <g transform="translate(423.817656 17.077969) scale(0.13 -0.13)">
     <defs>
      <path id="DejaVuSans-42" d="M 1259 2228 
L 1259 519 
L 2272 519 
Q 2781 519 3026 730 
Q 3272 941 3272 1375 
Q 3272 1813 3026 2020 
Q 2781 2228 2272 2228 
L 1259 2228 
z
M 1259 4147 
L 1259 2741 
L 2194 2741 
Q 2656 2741 2882 2914 
Q 3109 3088 3109 3444 
Q 3109 3797 2882 3972 
Q 2656 4147 2194 4147 
L 1259 4147 
z
M 628 4666 
L 2241 4666 
Q 2963 4666 3353 4366 
Q 3744 4066 3744 3513 
Q 3744 3084 3544 2831 
Q 3344 2578 2956 2516 
Q 3422 2416 3680 2098 
Q 3938 1781 3938 1306 
Q 3938 681 3513 340 
Q 3088 0 2303 0 
L 628 0 
L 628 4666 
z
" transform="scale(0.015625)"/>
      <path id="DejaVuSans-72" d="M 2631 2963 
Q 2534 3019 2420 3045 
Q 2306 3072 2169 3072 
Q 1681 3072 1420 2755 
Q 1159 2438 1159 1844 
L 1159 0 
L 581 0 
L 581 3500 
L 1159 3500 
L 1159 2956 
Q 1341 3275 1631 3429 
Q 1922 3584 2338 3584 
Q 2397 3584 2469 3576 
Q 2541 3569 2628 3553 
L 2631 2963 
z
" transform="scale(0.015625)"/>
      <path id="DejaVuSans-61" d="M 2194 1759 
Q 1497 1759 1228 1600 
Q 959 1441 959 1056 
Q 959 750 1161 570 
Q 1363 391 1709 391 
Q 2188 391 2477 730 
Q 2766 1069 2766 1631 
L 2766 1759 
L 2194 1759 
z
M 3341 1997 
L 3341 0 
L 2766 0 
L 2766 531 
Q 2569 213 2275 61 
Q 1981 -91 1556 -91 
Q 1019 -91 701 211 
Q 384 513 384 1019 
Q 384 1609 779 1909 
Q 1175 2209 1959 2209 
L 2766 2209 
L 2766 2266 
Q 2766 2663 2505 2880 
Q 2244 3097 1772 3097 
Q 1472 3097 1187 3025 
Q 903 2953 641 2809 
L 641 3341 
Q 956 3463 1253 3523 
Q 1550 3584 1831 3584 
Q 2591 3584 2966 3190 
Q 3341 2797 3341 1997 
z
" transform="scale(0.015625)"/>
      <path id="DejaVuSans-6e" d="M 3513 2113 
L 3513 0 
L 2938 0 
L 2938 2094 
Q 2938 2591 2744 2837 
Q 2550 3084 2163 3084 
Q 1697 3084 1428 2787 
Q 1159 2491 1159 1978 
L 1159 0 
L 581 0 
L 581 3500 
L 1159 3500 
L 1159 2956 
Q 1366 3272 1645 3428 
Q 1925 3584 2291 3584 
Q 2894 3584 3203 3211 
Q 3513 2838 3513 2113 
z
" transform="scale(0.015625)"/>
      <path id="DejaVuSans-68" d="M 3513 2113 
L 3513 0 
L 2938 0 
L 2938 2094 
Q 2938 2591 2744 2837 
Q 2550 3084 2163 3084 
Q 1697 3084 1428 2787 
Q 1159 2491 1159 1978 
L 1159 0 
L 581 0 
L 581 4863 
L 1159 4863 
L 1159 2956 
Q 1366 3272 1645 3428 
Q 1925 3584 2291 3584 
Q 2894 3584 3203 3211 
Q 3513 2838 3513 2113 
z
" transform="scale(0.015625)"/>
      <path id="DejaVuSans-4c" d="M 628 4666 
L 1259 4666 
L 1259 531 
L 3531 531 
L 3531 0 
L 628 0 
L 628 4666 
z
" transform="scale(0.015625)"/>
      <path id="DejaVuSans-70" d="M 1159 525 
L 1159 -1331 
L 581 -1331 
L 581 3500 
L 1159 3500 
L 1159 2969 
Q 1341 3281 1617 3432 
Q 1894 3584 2278 3584 
Q 2916 3584 3314 3078 
Q 3713 2572 3713 1747 
Q 3713 922 3314 415 
Q 2916 -91 2278 -91 
Q 1894 -91 1617 61 
Q 1341 213 1159 525 
z
M 3116 1747 
Q 3116 2381 2855 2742 
Q 2594 3103 2138 3103 
Q 1681 3103 1420 2742 
Q 1159 2381 1159 1747 
Q 1159 1113 1420 752 
Q 1681 391 2138 391 
Q 2594 391 2855 752 
Q 3116 1113 3116 1747 
z
" transform="scale(0.015625)"/>
     </defs>
     <use xlink:href="#DejaVuSans-42"/>
     <use xlink:href="#DejaVuSans-72" transform="translate(68.603516 0)"/>
     <use xlink:href="#DejaVuSans-61" transform="translate(109.716797 0)"/>
     <use xlink:href="#DejaVuSans-6e" transform="translate(170.996094 0)"/>
     <use xlink:href="#DejaVuSans-63" transform="translate(234.375 0)"/>
     <use xlink:href="#DejaVuSans-68" transform="translate(289.355469 0)"/>
     <use xlink:href="#DejaVuSans-20" transform="translate(352.734375 0)"/>
     <use xlink:href="#DejaVuSans-4c" transform="translate(384.521484 0)"/>
     <use xlink:href="#DejaVuSans-6f" transform="translate(438.484375 0)"/>
     <use xlink:href="#DejaVuSans-6f" transform="translate(499.666016 0)"/>
     <use xlink:href="#DejaVuSans-70" transform="translate(560.847656 0)"/>
    </g>
   </g>
  </g>
 </g>
 <defs>
  <clipPath id="pd44463cc6f">
   <rect x="7.2" y="33.077969" width="914.4" height="245.88"/>
  </clipPath>
 </defs>
</svg>
