<?xml version="1.0" encoding="utf-8" standalone="no"?>
<!DOCTYPE svg PUBLIC "-//W3C//DTD SVG 1.1//EN"
  "http://www.w3.org/Graphics/SVG/1.1/DTD/svg11.dtd">
<svg xmlns:xlink="http://www.w3.org/1999/xlink" width="920.397273pt" height="315.546406pt" viewBox="0 0 920.397273 315.546406" xmlns="http://www.w3.org/2000/svg" version="1.1">
 <metadata>
  <rdf:RDF xmlns:dc="http://purl.org/dc/elements/1.1/" xmlns:cc="http://creativecommons.org/ns#" xmlns:rdf="http://www.w3.org/1999/02/22-rdf-syntax-ns#">
   <cc:Work>
    <dc:type rdf:resource="http://purl.org/dc/dcmitype/StillImage"/>
    <dc:date>2026-07-13T13:55:39.894802</dc:date>
    <dc:format>image/svg+xml</dc:format>
    <dc:creator>
     <cc:Agent>
      <dc:title>Matplotlib v3.10.3, https://matplotlib.org/</dc:title>
     </cc:Agent>
    </dc:creator>
   </cc:Work>
  </rdf:RDF>
 </metadata>
 <defs>
  <style type="text/css">*{stroke-linejoin: round; stroke-linecap: butt}</style>
 </defs>
 <g id="figure_1">
  <g id="patch_1">
   <path d="M 0 315.546406 
L 920.397273 315.546406 
L 920.397273 0 
L 0 0 
z
" style="fill: #ffffff"/>
  </g>
  <g id="axes_1">
   <g id="patch_2">
    <path d="M 7.2 278.957969 
L 913.197273 278.957969 
L 913.197273 33.077969 
L 7.2 33.077969 
z
" style="fill: #ffffff"/>
   </g>
   <g id="line2d_1">
    <path d="M 89.563388 122.116332 
L 913.197273 122.116332 
" clip-path="url(#p84e10d4b99)" style="fill: none; stroke: #dfe6ee; stroke-width: 0.8; stroke-linecap: square"/>
   </g>
   <g id="line2d_2">
    <path d="M 89.563388 264.056151 
L 913.197273 264.056151 
" clip-path="url(#p84e10d4b99)" style="fill: none; stroke: #dfe6ee; stroke-width: 0.8; stroke-linecap: square"/>
   </g>
   <g id="matplotlib.axis_1">
    <g id="xtick_1">
     <g id="line2d_3">
      <defs>
       <path id="m0e71b3f361" d="M 0 0 
L 0 3.5 
" style="stroke: #000000; stroke-width: 0.8"/>
      </defs>
      <g>
       <use xlink:href="#m0e71b3f361" x="105.402502" y="278.957969" style="stroke: #000000; stroke-width: 0.8"/>
      </g>
     </g>
     <g id="text_1">
      <!-- 0 -->
      <g transform="translate(102.539377 292.796562) scale(0.09 -0.09)">
       <defs>
        <path id="DejaVuSans-30" d="M 2034 4250 
Q 1547 4250 1301 3770 
Q 1056 3291 1056 2328 
Q 1056 1369 1301 889 
Q 1547 409 2034 409 
Q 2525 409 2770 889 
Q 3016 1369 3016 2328 
Q 3016 3291 2770 3770 
Q 2525 4250 2034 4250 
z
M 2034 4750 
Q 2819 4750 3233 4129 
Q 3647 3509 3647 2328 
Q 3647 1150 3233 529 
Q 2819 -91 2034 -91 
Q 1250 -91 836 529 
Q 422 1150 422 2328 
Q 422 3509 836 4129 
Q 1250 4750 2034 4750 
z
" transform="scale(0.015625)"/>
       </defs>
       <use xlink:href="#DejaVuSans-30"/>
      </g>
     </g>
    </g>
    <g id="xtick_2">
     <g id="line2d_4">
      <g>
       <use xlink:href="#m0e71b3f361" x="232.115407" y="278.957969" style="stroke: #000000; stroke-width: 0.8"/>
      </g>
     </g>
     <g id="text_2">
      <!-- 4 -->
      <g transform="translate(229.252282 292.796562) scale(0.09 -0.09)">
       <defs>
        <path id="DejaVuSans-34" d="M 2419 4116 
L 825 1625 
L 2419 1625 
L 2419 4116 
z
M 2253 4666 
L 3047 4666 
L 3047 1625 
L 3713 1625 
L 3713 1100 
L 3047 1100 
L 3047 0 
L 2419 0 
L 2419 1100 
L 313 1100 
L 313 1709 
L 2253 4666 
z
" transform="scale(0.015625)"/>
       </defs>
       <use xlink:href="#DejaVuSans-34"/>
      </g>
     </g>
    </g>
    <g id="xtick_3">
     <g id="line2d_5">
      <g>
       <use xlink:href="#m0e71b3f361" x="358.828312" y="278.957969" style="stroke: #000000; stroke-width: 0.8"/>
      </g>
     </g>
     <g id="text_3">
      <!-- 8 -->
      <g transform="translate(355.965187 292.796562) scale(0.09 -0.09)">
       <defs>
        <path id="DejaVuSans-38" d="M 2034 2216 
Q 1584 2216 1326 1975 
Q 1069 1734 1069 1313 
Q 1069 891 1326 650 
Q 1584 409 2034 409 
Q 2484 409 2743 651 
Q 3003 894 3003 1313 
Q 3003 1734 2745 1975 
Q 2488 2216 2034 2216 
z
M 1403 2484 
Q 997 2584 770 2862 
Q 544 3141 544 3541 
Q 544 4100 942 4425 
Q 1341 4750 2034 4750 
Q 2731 4750 3128 4425 
Q 3525 4100 3525 3541 
Q 3525 3141 3298 2862 
Q 3072 2584 2669 2484 
Q 3125 2378 3379 2068 
Q 3634 1759 3634 1313 
Q 3634 634 3220 271 
Q 2806 -91 2034 -91 
Q 1263 -91 848 271 
Q 434 634 434 1313 
Q 434 1759 690 2068 
Q 947 2378 1403 2484 
z
M 1172 3481 
Q 1172 3119 1398 2916 
Q 1625 2713 2034 2713 
Q 2441 2713 2670 2916 
Q 2900 3119 2900 3481 
Q 2900 3844 2670 4047 
Q 2441 4250 2034 4250 
Q 1625 4250 1398 4047 
Q 1172 3844 1172 3481 
z
" transform="scale(0.015625)"/>
       </defs>
       <use xlink:href="#DejaVuSans-38"/>
      </g>
     </g>
    </g>
    <g id="xtick_4">
     <g id="line2d_6">
      <g>
       <use xlink:href="#m0e71b3f361" x="485.541217" y="278.957969" style="stroke: #000000; stroke-width: 0.8"/>
      </g>
     </g>
     <g id="text_4">
      <!-- 12 -->
      <g transform="translate(479.814967 292.796562) scale(0.09 -0.09)">
       <defs>
        <path id="DejaVuSans-31" d="M 794 531 
L 1825 531 
L 1825 4091 
L 703 3866 
L 703 4441 
L 1819 4666 
L 2450 4666 
L 2450 531 
L 3481 531 
L 3481 0 
L 794 0 
L 794 531 
z
" transform="scale(0.015625)"/>
        <path id="DejaVuSans-32" d="M 1228 531 
L 3431 531 
L 3431 0 
L 469 0 
L 469 531 
Q 828 903 1448 1529 
Q 2069 2156 2228 2338 
Q 2531 2678 2651 2914 
Q 2772 3150 2772 3378 
Q 2772 3750 2511 3984 
Q 2250 4219 1831 4219 
Q 1534 4219 1204 4116 
Q 875 4013 500 3803 
L 500 4441 
Q 881 4594 1212 4672 
Q 1544 4750 1819 4750 
Q 2544 4750 2975 4387 
Q 3406 4025 3406 3419 
Q 3406 3131 3298 2873 
Q 3191 2616 2906 2266 
Q 2828 2175 2409 1742 
Q 1991 1309 1228 531 
z
" transform="scale(0.015625)"/>
       </defs>
       <use xlink:href="#DejaVuSans-31"/>
       <use xlink:href="#DejaVuSans-32" transform="translate(63.623047 0)"/>
      </g>
     </g>
    </g>
    <g id="xtick_5">
     <g id="line2d_7">
      <g>
       <use xlink:href="#m0e71b3f361" x="612.254123" y="278.957969" style="stroke: #000000; stroke-width: 0.8"/>
      </g>
     </g>
     <g id="text_5">
      <!-- 16 -->
      <g transform="translate(606.527873 292.796562) scale(0.09 -0.09)">
       <defs>
        <path id="DejaVuSans-36" d="M 2113 2584 
Q 1688 2584 1439 2293 
Q 1191 2003 1191 1497 
Q 1191 994 1439 701 
Q 1688 409 2113 409 
Q 2538 409 2786 701 
Q 3034 994 3034 1497 
Q 3034 2003 2786 2293 
Q 2538 2584 2113 2584 
z
M 3366 4563 
L 3366 3988 
Q 3128 4100 2886 4159 
Q 2644 4219 2406 4219 
Q 1781 4219 1451 3797 
Q 1122 3375 1075 2522 
Q 1259 2794 1537 2939 
Q 1816 3084 2150 3084 
Q 2853 3084 3261 2657 
Q 3669 2231 3669 1497 
Q 3669 778 3244 343 
Q 2819 -91 2113 -91 
Q 1303 -91 875 529 
Q 447 1150 447 2328 
Q 447 3434 972 4092 
Q 1497 4750 2381 4750 
Q 2619 4750 2861 4703 
Q 3103 4656 3366 4563 
z
" transform="scale(0.015625)"/>
       </defs>
       <use xlink:href="#DejaVuSans-31"/>
       <use xlink:href="#DejaVuSans-36" transform="translate(63.623047 0)"/>
      </g>
     </g>
    </g>
    <g id="xtick_6">
     <g id="line2d_8">
      <g>
       <use xlink:href="#m0e71b3f361" x="738.967028" y="278.957969" style="stroke: #000000; stroke-width: 0.8"/>
      </g>
     </g>
     <g id="text_6">
      <!-- 20 -->
      <g transform="translate(733.240778 292.796562) scale(0.09 -0.09)">
       <use xlink:href="#DejaVuSans-32"/>
       <use xlink:href="#DejaVuSans-30" transform="translate(63.623047 0)"/>
      </g>
     </g>
    </g>
    <g id="xtick_7">
     <g id="line2d_9">
      <g>
       <use xlink:href="#m0e71b3f361" x="865.679933" y="278.957969" style="stroke: #000000; stroke-width: 0.8"/>
      </g>
     </g>
     <g id="text_7">
      <!-- 24 -->
      <g transform="translate(859.953683 292.796562) scale(0.09 -0.09)">
       <use xlink:href="#DejaVuSans-32"/>
       <use xlink:href="#DejaVuSans-34" transform="translate(63.623047 0)"/>
      </g>
     </g>
    </g>
    <g id="text_8">
     <!-- clock cycles -->
     <g transform="translate(430.239261 306.266719) scale(0.1 -0.1)">
      <defs>
       <path id="DejaVuSans-63" d="M 3122 3366 
L 3122 2828 
Q 2878 2963 2633 3030 
Q 2388 3097 2138 3097 
Q 1578 3097 1268 2742 
Q 959 2388 959 1747 
Q 959 1106 1268 751 
Q 1578 397 2138 397 
Q 2388 397 2633 464 
Q 2878 531 3122 666 
L 3122 134 
Q 2881 22 2623 -34 
Q 2366 -91 2075 -91 
Q 1284 -91 818 406 
Q 353 903 353 1747 
Q 353 2603 823 3093 
Q 1294 3584 2113 3584 
Q 2378 3584 2631 3529 
Q 2884 3475 3122 3366 
z
" transform="scale(0.015625)"/>
       <path id="DejaVuSans-6c" d="M 603 4863 
L 1178 4863 
L 1178 0 
L 603 0 
L 603 4863 
z
" transform="scale(0.015625)"/>
       <path id="DejaVuSans-6f" d="M 1959 3097 
Q 1497 3097 1228 2736 
Q 959 2375 959 1747 
Q 959 1119 1226 758 
Q 1494 397 1959 397 
Q 2419 397 2687 759 
Q 2956 1122 2956 1747 
Q 2956 2369 2687 2733 
Q 2419 3097 1959 3097 
z
M 1959 3584 
Q 2709 3584 3137 3096 
Q 3566 2609 3566 1747 
Q 3566 888 3137 398 
Q 2709 -91 1959 -91 
Q 1206 -91 779 398 
Q 353 888 353 1747 
Q 353 2609 779 3096 
Q 1206 3584 1959 3584 
z
" transform="scale(0.015625)"/>
       <path id="DejaVuSans-6b" d="M 581 4863 
L 1159 4863 
L 1159 1991 
L 2875 3500 
L 3609 3500 
L 1753 1863 
L 3688 0 
L 2938 0 
L 1159 1709 
L 1159 0 
L 581 0 
L 581 4863 
z
" transform="scale(0.015625)"/>
       <path id="DejaVuSans-20" transform="scale(0.015625)"/>
       <path id="DejaVuSans-79" d="M 2059 -325 
Q 1816 -950 1584 -1140 
Q 1353 -1331 966 -1331 
L 506 -1331 
L 506 -850 
L 844 -850 
Q 1081 -850 1212 -737 
Q 1344 -625 1503 -206 
L 1606 56 
L 191 3500 
L 800 3500 
L 1894 763 
L 2988 3500 
L 3597 3500 
L 2059 -325 
z
" transform="scale(0.015625)"/>
       <path id="DejaVuSans-65" d="M 3597 1894 
L 3597 1613 
L 953 1613 
Q 991 1019 1311 708 
Q 1631 397 2203 397 
Q 2534 397 2845 478 
Q 3156 559 3463 722 
L 3463 178 
Q 3153 47 2828 -22 
Q 2503 -91 2169 -91 
Q 1331 -91 842 396 
Q 353 884 353 1716 
Q 353 2575 817 3079 
Q 1281 3584 2069 3584 
Q 2775 3584 3186 3129 
Q 3597 2675 3597 1894 
z
M 3022 2063 
Q 3016 2534 2758 2815 
Q 2500 3097 2075 3097 
Q 1594 3097 1305 2825 
Q 1016 2553 972 2059 
L 3022 2063 
z
" transform="scale(0.015625)"/>
       <path id="DejaVuSans-73" d="M 2834 3397 
L 2834 2853 
Q 2591 2978 2328 3040 
Q 2066 3103 1784 3103 
Q 1356 3103 1142 2972 
Q 928 2841 928 2578 
Q 928 2378 1081 2264 
Q 1234 2150 1697 2047 
L 1894 2003 
Q 2506 1872 2764 1633 
Q 3022 1394 3022 966 
Q 3022 478 2636 193 
Q 2250 -91 1575 -91 
Q 1294 -91 989 -36 
Q 684 19 347 128 
L 347 722 
Q 666 556 975 473 
Q 1284 391 1588 391 
Q 1994 391 2212 530 
Q 2431 669 2431 922 
Q 2431 1156 2273 1281 
Q 2116 1406 1581 1522 
L 1381 1569 
Q 847 1681 609 1914 
Q 372 2147 372 2553 
Q 372 3047 722 3315 
Q 1072 3584 1716 3584 
Q 2034 3584 2315 3537 
Q 2597 3491 2834 3397 
z
" transform="scale(0.015625)"/>
      </defs>
      <use xlink:href="#DejaVuSans-63"/>
      <use xlink:href="#DejaVuSans-6c" transform="translate(54.980469 0)"/>
      <use xlink:href="#DejaVuSans-6f" transform="translate(82.763672 0)"/>
      <use xlink:href="#DejaVuSans-63" transform="translate(143.945312 0)"/>
      <use xlink:href="#DejaVuSans-6b" transform="translate(198.925781 0)"/>
      <use xlink:href="#DejaVuSans-20" transform="translate(256.835938 0)"/>
      <use xlink:href="#DejaVuSans-63" transform="translate(288.623047 0)"/>
      <use xlink:href="#DejaVuSans-79" transform="translate(343.603516 0)"/>
      <use xlink:href="#DejaVuSans-63" transform="translate(402.783203 0)"/>
      <use xlink:href="#DejaVuSans-6c" transform="translate(457.763672 0)"/>
      <use xlink:href="#DejaVuSans-65" transform="translate(485.546875 0)"/>
      <use xlink:href="#DejaVuSans-73" transform="translate(547.070312 0)"/>
     </g>
    </g>
   </g>
   <g id="matplotlib.axis_2"/>
   <g id="patch_3">
    <path d="M 89.563388 278.957969 
L 913.197273 278.957969 
" style="fill: none; stroke: #000000; stroke-width: 0.8; stroke-linejoin: miter; stroke-linecap: square"/>
   </g>
   <g id="text_9">
    <!-- pc -->
    <g transform="translate(57.311765 64.455955) scale(0.11 -0.11)">
     <defs>
      <path id="DejaVuSansMono-70" d="M 1172 441 
L 1172 -1331 
L 594 -1331 
L 594 3500 
L 1172 3500 
L 1172 3053 
Q 1316 3313 1555 3448 
Q 1794 3584 2106 3584 
Q 2741 3584 3102 3093 
Q 3463 2603 3463 1734 
Q 3463 881 3100 395 
Q 2738 -91 2106 -91 
Q 1788 -91 1548 45 
Q 1309 181 1172 441 
z
M 2859 1747 
Q 2859 2416 2648 2756 
Q 2438 3097 2022 3097 
Q 1603 3097 1387 2755 
Q 1172 2413 1172 1747 
Q 1172 1084 1387 740 
Q 1603 397 2022 397 
Q 2438 397 2648 737 
Q 2859 1078 2859 1747 
z
" transform="scale(0.015625)"/>
      <path id="DejaVuSansMono-63" d="M 3316 178 
Q 3084 44 2839 -23 
Q 2594 -91 2338 -91 
Q 1525 -91 1067 396 
Q 609 884 609 1747 
Q 609 2609 1067 3096 
Q 1525 3584 2338 3584 
Q 2591 3584 2831 3518 
Q 3072 3453 3316 3316 
L 3316 2713 
Q 3088 2916 2858 3006 
Q 2628 3097 2338 3097 
Q 1797 3097 1506 2747 
Q 1216 2397 1216 1747 
Q 1216 1100 1508 748 
Q 1800 397 2338 397 
Q 2638 397 2875 489 
Q 3113 581 3316 775 
L 3316 178 
z
" transform="scale(0.015625)"/>
     </defs>
     <use xlink:href="#DejaVuSansMono-70"/>
     <use xlink:href="#DejaVuSansMono-63" transform="translate(60.205078 0)"/>
    </g>
   </g>
   <g id="line2d_10">
    <path d="M 89.563388 47.979787 
L 121.241615 47.979787 
" clip-path="url(#p84e10d4b99)" style="fill: none; stroke: #08306b; stroke-width: 1.7; stroke-linecap: square"/>
   </g>
   <g id="line2d_11">
    <path d="M 89.563388 74.80306 
L 121.241615 74.80306 
" clip-path="url(#p84e10d4b99)" style="fill: none; stroke: #08306b; stroke-width: 1.7; stroke-linecap: square"/>
   </g>
   <g id="line2d_12">
    <path d="M 89.563388 74.80306 
L 89.563388 47.979787 
" clip-path="url(#p84e10d4b99)" style="fill: none; stroke: #08306b; stroke-width: 1.2; stroke-linecap: square"/>
   </g>
   <g id="line2d_13">
    <path d="M 121.241615 74.80306 
L 121.241615 47.979787 
" clip-path="url(#p84e10d4b99)" style="fill: none; stroke: #08306b; stroke-width: 1.2; stroke-linecap: square"/>
   </g>
   <g id="text_10">
    <!-- 0 -->
    <g style="fill: #08306b" transform="translate(102.693361 63.898767) scale(0.09 -0.09)">
     <defs>
      <path id="DejaVuSansMono-30" d="M 1509 2344 
Q 1509 2516 1629 2641 
Q 1750 2766 1919 2766 
Q 2094 2766 2219 2641 
Q 2344 2516 2344 2344 
Q 2344 2169 2220 2047 
Q 2097 1925 1919 1925 
Q 1744 1925 1626 2044 
Q 1509 2163 1509 2344 
z
M 1925 4250 
Q 1484 4250 1267 3775 
Q 1050 3300 1050 2328 
Q 1050 1359 1267 884 
Q 1484 409 1925 409 
Q 2369 409 2586 884 
Q 2803 1359 2803 2328 
Q 2803 3300 2586 3775 
Q 2369 4250 1925 4250 
z
M 1925 4750 
Q 2672 4750 3055 4137 
Q 3438 3525 3438 2328 
Q 3438 1134 3055 521 
Q 2672 -91 1925 -91 
Q 1178 -91 797 521 
Q 416 1134 416 2328 
Q 416 3525 797 4137 
Q 1178 4750 1925 4750 
z
" transform="scale(0.015625)"/>
     </defs>
     <use xlink:href="#DejaVuSansMono-30"/>
    </g>
   </g>
   <g id="line2d_14">
    <path d="M 121.241615 47.979787 
L 152.919841 47.979787 
" clip-path="url(#p84e10d4b99)" style="fill: none; stroke: #08306b; stroke-width: 1.7; stroke-linecap: square"/>
   </g>
   <g id="line2d_15">
    <path d="M 121.241615 74.80306 
L 152.919841 74.80306 
" clip-path="url(#p84e10d4b99)" style="fill: none; stroke: #08306b; stroke-width: 1.7; stroke-linecap: square"/>
   </g>
   <g id="line2d_16">
    <path d="M 121.241615 74.80306 
L 121.241615 47.979787 
" clip-path="url(#p84e10d4b99)" style="fill: none; stroke: #08306b; stroke-width: 1.2; stroke-linecap: square"/>
   </g>
   <g id="line2d_17">
    <path d="M 152.919841 74.80306 
L 152.919841 47.979787 
" clip-path="url(#p84e10d4b99)" style="fill: none; stroke: #08306b; stroke-width: 1.2; stroke-linecap: square"/>
   </g>
   <g id="text_11">
    <!-- 4 -->
    <g style="fill: #08306b" transform="translate(134.371587 63.898767) scale(0.09 -0.09)">
     <defs>
      <path id="DejaVuSansMono-34" d="M 2297 4091 
L 825 1625 
L 2297 1625 
L 2297 4091 
z
M 2194 4666 
L 2925 4666 
L 2925 1625 
L 3547 1625 
L 3547 1113 
L 2925 1113 
L 2925 0 
L 2297 0 
L 2297 1113 
L 319 1113 
L 319 1709 
L 2194 4666 
z
" transform="scale(0.015625)"/>
     </defs>
     <use xlink:href="#DejaVuSansMono-34"/>
    </g>
   </g>
   <g id="line2d_18">
    <path d="M 152.919841 47.979787 
L 184.598067 47.979787 
" clip-path="url(#p84e10d4b99)" style="fill: none; stroke: #08306b; stroke-width: 1.7; stroke-linecap: square"/>
   </g>
   <g id="line2d_19">
    <path d="M 152.919841 74.80306 
L 184.598067 74.80306 
" clip-path="url(#p84e10d4b99)" style="fill: none; stroke: #08306b; stroke-width: 1.7; stroke-linecap: square"/>
   </g>
   <g id="line2d_20">
    <path d="M 152.919841 74.80306 
L 152.919841 47.979787 
" clip-path="url(#p84e10d4b99)" style="fill: none; stroke: #08306b; stroke-width: 1.2; stroke-linecap: square"/>
   </g>
   <g id="line2d_21">
    <path d="M 184.598067 74.80306 
L 184.598067 47.979787 
" clip-path="url(#p84e10d4b99)" style="fill: none; stroke: #08306b; stroke-width: 1.2; stroke-linecap: square"/>
   </g>
   <g id="text_12">
    <!-- 8 -->
    <g style="fill: #08306b" transform="translate(166.049814 63.898767) scale(0.09 -0.09)">
     <defs>
      <path id="DejaVuSansMono-38" d="M 1925 2216 
Q 1503 2216 1273 1980 
Q 1044 1744 1044 1313 
Q 1044 881 1276 642 
Q 1509 403 1925 403 
Q 2350 403 2579 639 
Q 2809 875 2809 1313 
Q 2809 1741 2576 1978 
Q 2344 2216 1925 2216 
z
M 1375 2478 
Q 972 2581 745 2862 
Q 519 3144 519 3541 
Q 519 4097 897 4423 
Q 1275 4750 1925 4750 
Q 2578 4750 2956 4423 
Q 3334 4097 3334 3541 
Q 3334 3144 3107 2862 
Q 2881 2581 2478 2478 
Q 2947 2375 3195 2062 
Q 3444 1750 3444 1253 
Q 3444 622 3041 265 
Q 2638 -91 1925 -91 
Q 1213 -91 811 264 
Q 409 619 409 1247 
Q 409 1747 657 2061 
Q 906 2375 1375 2478 
z
M 1147 3481 
Q 1147 3106 1347 2909 
Q 1547 2713 1925 2713 
Q 2306 2713 2506 2909 
Q 2706 3106 2706 3481 
Q 2706 3863 2507 4063 
Q 2309 4263 1925 4263 
Q 1547 4263 1347 4061 
Q 1147 3859 1147 3481 
z
" transform="scale(0.015625)"/>
     </defs>
     <use xlink:href="#DejaVuSansMono-38"/>
    </g>
   </g>
   <g id="line2d_22">
    <path d="M 184.598067 47.979787 
L 216.276294 47.979787 
" clip-path="url(#p84e10d4b99)" style="fill: none; stroke: #08306b; stroke-width: 1.7; stroke-linecap: square"/>
   </g>
   <g id="line2d_23">
    <path d="M 184.598067 74.80306 
L 216.276294 74.80306 
" clip-path="url(#p84e10d4b99)" style="fill: none; stroke: #08306b; stroke-width: 1.7; stroke-linecap: square"/>
   </g>
   <g id="line2d_24">
    <path d="M 184.598067 74.80306 
L 184.598067 47.979787 
" clip-path="url(#p84e10d4b99)" style="fill: none; stroke: #08306b; stroke-width: 1.2; stroke-linecap: square"/>
   </g>
   <g id="line2d_25">
    <path d="M 216.276294 74.80306 
L 216.276294 47.979787 
" clip-path="url(#p84e10d4b99)" style="fill: none; stroke: #08306b; stroke-width: 1.2; stroke-linecap: square"/>
   </g>
   <g id="text_13">
    <!-- 12 -->
    <g style="fill: #08306b" transform="translate(195.018899 63.898767) scale(0.09 -0.09)">
     <defs>
      <path id="DejaVuSansMono-31" d="M 844 531 
L 1825 531 
L 1825 4097 
L 769 3859 
L 769 4434 
L 1819 4666 
L 2450 4666 
L 2450 531 
L 3419 531 
L 3419 0 
L 844 0 
L 844 531 
z
" transform="scale(0.015625)"/>
      <path id="DejaVuSansMono-32" d="M 1166 531 
L 3309 531 
L 3309 0 
L 475 0 
L 475 531 
Q 1059 1147 1496 1619 
Q 1934 2091 2100 2284 
Q 2413 2666 2522 2902 
Q 2631 3138 2631 3384 
Q 2631 3775 2401 3997 
Q 2172 4219 1772 4219 
Q 1488 4219 1175 4116 
Q 863 4013 513 3803 
L 513 4441 
Q 834 4594 1145 4672 
Q 1456 4750 1759 4750 
Q 2444 4750 2861 4386 
Q 3278 4022 3278 3431 
Q 3278 3131 3139 2831 
Q 3000 2531 2688 2169 
Q 2513 1966 2180 1606 
Q 1847 1247 1166 531 
z
" transform="scale(0.015625)"/>
     </defs>
     <use xlink:href="#DejaVuSansMono-31"/>
     <use xlink:href="#DejaVuSansMono-32" transform="translate(60.205078 0)"/>
    </g>
   </g>
   <g id="line2d_26">
    <path d="M 216.276294 47.979787 
L 247.95452 47.979787 
" clip-path="url(#p84e10d4b99)" style="fill: none; stroke: #08306b; stroke-width: 1.7; stroke-linecap: square"/>
   </g>
   <g id="line2d_27">
    <path d="M 216.276294 74.80306 
L 247.95452 74.80306 
" clip-path="url(#p84e10d4b99)" style="fill: none; stroke: #08306b; stroke-width: 1.7; stroke-linecap: square"/>
   </g>
   <g id="line2d_28">
    <path d="M 216.276294 74.80306 
L 216.276294 47.979787 
" clip-path="url(#p84e10d4b99)" style="fill: none; stroke: #08306b; stroke-width: 1.2; stroke-linecap: square"/>
   </g>
   <g id="line2d_29">
    <path d="M 247.95452 74.80306 
L 247.95452 47.979787 
" clip-path="url(#p84e10d4b99)" style="fill: none; stroke: #08306b; stroke-width: 1.2; stroke-linecap: square"/>
   </g>
   <g id="text_14">
    <!-- 16 -->
    <g style="fill: #08306b" transform="translate(226.697126 63.898767) scale(0.09 -0.09)">
     <defs>
      <path id="DejaVuSansMono-36" d="M 3097 4563 
L 3097 3981 
Q 2900 4097 2678 4158 
Q 2456 4219 2216 4219 
Q 1616 4219 1306 3767 
Q 997 3316 997 2438 
Q 1147 2750 1412 2917 
Q 1678 3084 2022 3084 
Q 2697 3084 3067 2670 
Q 3438 2256 3438 1497 
Q 3438 741 3056 325 
Q 2675 -91 1984 -91 
Q 1172 -91 794 492 
Q 416 1075 416 2328 
Q 416 3509 870 4129 
Q 1325 4750 2188 4750 
Q 2419 4750 2650 4701 
Q 2881 4653 3097 4563 
z
M 1972 2591 
Q 1569 2591 1337 2300 
Q 1106 2009 1106 1497 
Q 1106 984 1337 693 
Q 1569 403 1972 403 
Q 2391 403 2603 679 
Q 2816 956 2816 1497 
Q 2816 2041 2603 2316 
Q 2391 2591 1972 2591 
z
" transform="scale(0.015625)"/>
     </defs>
     <use xlink:href="#DejaVuSansMono-31"/>
     <use xlink:href="#DejaVuSansMono-36" transform="translate(60.205078 0)"/>
    </g>
   </g>
   <g id="line2d_30">
    <path d="M 247.95452 47.979787 
L 279.632746 47.979787 
" clip-path="url(#p84e10d4b99)" style="fill: none; stroke: #08306b; stroke-width: 1.7; stroke-linecap: square"/>
   </g>
   <g id="line2d_31">
    <path d="M 247.95452 74.80306 
L 279.632746 74.80306 
" clip-path="url(#p84e10d4b99)" style="fill: none; stroke: #08306b; stroke-width: 1.7; stroke-linecap: square"/>
   </g>
   <g id="line2d_32">
    <path d="M 247.95452 74.80306 
L 247.95452 47.979787 
" clip-path="url(#p84e10d4b99)" style="fill: none; stroke: #08306b; stroke-width: 1.2; stroke-linecap: square"/>
   </g>
   <g id="line2d_33">
    <path d="M 279.632746 74.80306 
L 279.632746 47.979787 
" clip-path="url(#p84e10d4b99)" style="fill: none; stroke: #08306b; stroke-width: 1.2; stroke-linecap: square"/>
   </g>
   <g id="text_15">
    <!-- 8 -->
    <g style="fill: #08306b" transform="translate(261.084493 63.898767) scale(0.09 -0.09)">
     <use xlink:href="#DejaVuSansMono-38"/>
    </g>
   </g>
   <g id="line2d_34">
    <path d="M 279.632746 47.979787 
L 311.310973 47.979787 
" clip-path="url(#p84e10d4b99)" style="fill: none; stroke: #08306b; stroke-width: 1.7; stroke-linecap: square"/>
   </g>
   <g id="line2d_35">
    <path d="M 279.632746 74.80306 
L 311.310973 74.80306 
" clip-path="url(#p84e10d4b99)" style="fill: none; stroke: #08306b; stroke-width: 1.7; stroke-linecap: square"/>
   </g>
   <g id="line2d_36">
    <path d="M 279.632746 74.80306 
L 279.632746 47.979787 
" clip-path="url(#p84e10d4b99)" style="fill: none; stroke: #08306b; stroke-width: 1.2; stroke-linecap: square"/>
   </g>
   <g id="line2d_37">
    <path d="M 311.310973 74.80306 
L 311.310973 47.979787 
" clip-path="url(#p84e10d4b99)" style="fill: none; stroke: #08306b; stroke-width: 1.2; stroke-linecap: square"/>
   </g>
   <g id="text_16">
    <!-- 12 -->
    <g style="fill: #08306b" transform="translate(290.053578 63.898767) scale(0.09 -0.09)">
     <use xlink:href="#DejaVuSansMono-31"/>
     <use xlink:href="#DejaVuSansMono-32" transform="translate(60.205078 0)"/>
    </g>
   </g>
   <g id="line2d_38">
    <path d="M 311.310973 47.979787 
L 342.989199 47.979787 
" clip-path="url(#p84e10d4b99)" style="fill: none; stroke: #08306b; stroke-width: 1.7; stroke-linecap: square"/>
   </g>
   <g id="line2d_39">
    <path d="M 311.310973 74.80306 
L 342.989199 74.80306 
" clip-path="url(#p84e10d4b99)" style="fill: none; stroke: #08306b; stroke-width: 1.7; stroke-linecap: square"/>
   </g>
   <g id="line2d_40">
    <path d="M 311.310973 74.80306 
L 311.310973 47.979787 
" clip-path="url(#p84e10d4b99)" style="fill: none; stroke: #08306b; stroke-width: 1.2; stroke-linecap: square"/>
   </g>
   <g id="line2d_41">
    <path d="M 342.989199 74.80306 
L 342.989199 47.979787 
" clip-path="url(#p84e10d4b99)" style="fill: none; stroke: #08306b; stroke-width: 1.2; stroke-linecap: square"/>
   </g>
   <g id="text_17">
    <!-- 16 -->
    <g style="fill: #08306b" transform="translate(321.731805 63.898767) scale(0.09 -0.09)">
     <use xlink:href="#DejaVuSansMono-31"/>
     <use xlink:href="#DejaVuSansMono-36" transform="translate(60.205078 0)"/>
    </g>
   </g>
   <g id="line2d_42">
    <path d="M 342.989199 47.979787 
L 374.667425 47.979787 
" clip-path="url(#p84e10d4b99)" style="fill: none; stroke: #08306b; stroke-width: 1.7; stroke-linecap: square"/>
   </g>
   <g id="line2d_43">
    <path d="M 342.989199 74.80306 
L 374.667425 74.80306 
" clip-path="url(#p84e10d4b99)" style="fill: none; stroke: #08306b; stroke-width: 1.7; stroke-linecap: square"/>
   </g>
   <g id="line2d_44">
    <path d="M 342.989199 74.80306 
L 342.989199 47.979787 
" clip-path="url(#p84e10d4b99)" style="fill: none; stroke: #08306b; stroke-width: 1.2; stroke-linecap: square"/>
   </g>
   <g id="line2d_45">
    <path d="M 374.667425 74.80306 
L 374.667425 47.979787 
" clip-path="url(#p84e10d4b99)" style="fill: none; stroke: #08306b; stroke-width: 1.2; stroke-linecap: square"/>
   </g>
   <g id="text_18">
    <!-- 8 -->
    <g style="fill: #08306b" transform="translate(356.119172 63.898767) scale(0.09 -0.09)">
     <use xlink:href="#DejaVuSansMono-38"/>
    </g>
   </g>
   <g id="line2d_46">
    <path d="M 374.667425 47.979787 
L 406.345652 47.979787 
" clip-path="url(#p84e10d4b99)" style="fill: none; stroke: #08306b; stroke-width: 1.7; stroke-linecap: square"/>
   </g>
   <g id="line2d_47">
    <path d="M 374.667425 74.80306 
L 406.345652 74.80306 
" clip-path="url(#p84e10d4b99)" style="fill: none; stroke: #08306b; stroke-width: 1.7; stroke-linecap: square"/>
   </g>
   <g id="line2d_48">
    <path d="M 374.667425 74.80306 
L 374.667425 47.979787 
" clip-path="url(#p84e10d4b99)" style="fill: none; stroke: #08306b; stroke-width: 1.2; stroke-linecap: square"/>
   </g>
   <g id="line2d_49">
    <path d="M 406.345652 74.80306 
L 406.345652 47.979787 
" clip-path="url(#p84e10d4b99)" style="fill: none; stroke: #08306b; stroke-width: 1.2; stroke-linecap: square"/>
   </g>
   <g id="text_19">
    <!-- 12 -->
    <g style="fill: #08306b" transform="translate(385.088257 63.898767) scale(0.09 -0.09)">
     <use xlink:href="#DejaVuSansMono-31"/>
     <use xlink:href="#DejaVuSansMono-32" transform="translate(60.205078 0)"/>
    </g>
   </g>
   <g id="line2d_50">
    <path d="M 406.345652 47.979787 
L 438.023878 47.979787 
" clip-path="url(#p84e10d4b99)" style="fill: none; stroke: #08306b; stroke-width: 1.7; stroke-linecap: square"/>
   </g>
   <g id="line2d_51">
    <path d="M 406.345652 74.80306 
L 438.023878 74.80306 
" clip-path="url(#p84e10d4b99)" style="fill: none; stroke: #08306b; stroke-width: 1.7; stroke-linecap: square"/>
   </g>
   <g id="line2d_52">
    <path d="M 406.345652 74.80306 
L 406.345652 47.979787 
" clip-path="url(#p84e10d4b99)" style="fill: none; stroke: #08306b; stroke-width: 1.2; stroke-linecap: square"/>
   </g>
   <g id="line2d_53">
    <path d="M 438.023878 74.80306 
L 438.023878 47.979787 
" clip-path="url(#p84e10d4b99)" style="fill: none; stroke: #08306b; stroke-width: 1.2; stroke-linecap: square"/>
   </g>
   <g id="text_20">
    <!-- 16 -->
    <g style="fill: #08306b" transform="translate(416.766484 63.898767) scale(0.09 -0.09)">
     <use xlink:href="#DejaVuSansMono-31"/>
     <use xlink:href="#DejaVuSansMono-36" transform="translate(60.205078 0)"/>
    </g>
   </g>
   <g id="line2d_54">
    <path d="M 438.023878 47.979787 
L 469.702104 47.979787 
" clip-path="url(#p84e10d4b99)" style="fill: none; stroke: #08306b; stroke-width: 1.7; stroke-linecap: square"/>
   </g>
   <g id="line2d_55">
    <path d="M 438.023878 74.80306 
L 469.702104 74.80306 
" clip-path="url(#p84e10d4b99)" style="fill: none; stroke: #08306b; stroke-width: 1.7; stroke-linecap: square"/>
   </g>
   <g id="line2d_56">
    <path d="M 438.023878 74.80306 
L 438.023878 47.979787 
" clip-path="url(#p84e10d4b99)" style="fill: none; stroke: #08306b; stroke-width: 1.2; stroke-linecap: square"/>
   </g>
   <g id="line2d_57">
    <path d="M 469.702104 74.80306 
L 469.702104 47.979787 
" clip-path="url(#p84e10d4b99)" style="fill: none; stroke: #08306b; stroke-width: 1.2; stroke-linecap: square"/>
   </g>
   <g id="text_21">
    <!-- 8 -->
    <g style="fill: #08306b" transform="translate(451.15385 63.898767) scale(0.09 -0.09)">
     <use xlink:href="#DejaVuSansMono-38"/>
    </g>
   </g>
   <g id="line2d_58">
    <path d="M 469.702104 47.979787 
L 501.380331 47.979787 
" clip-path="url(#p84e10d4b99)" style="fill: none; stroke: #08306b; stroke-width: 1.7; stroke-linecap: square"/>
   </g>
   <g id="line2d_59">
    <path d="M 469.702104 74.80306 
L 501.380331 74.80306 
" clip-path="url(#p84e10d4b99)" style="fill: none; stroke: #08306b; stroke-width: 1.7; stroke-linecap: square"/>
   </g>
   <g id="line2d_60">
    <path d="M 469.702104 74.80306 
L 469.702104 47.979787 
" clip-path="url(#p84e10d4b99)" style="fill: none; stroke: #08306b; stroke-width: 1.2; stroke-linecap: square"/>
   </g>
   <g id="line2d_61">
    <path d="M 501.380331 74.80306 
L 501.380331 47.979787 
" clip-path="url(#p84e10d4b99)" style="fill: none; stroke: #08306b; stroke-width: 1.2; stroke-linecap: square"/>
   </g>
   <g id="text_22">
    <!-- 12 -->
    <g style="fill: #08306b" transform="translate(480.122936 63.898767) scale(0.09 -0.09)">
     <use xlink:href="#DejaVuSansMono-31"/>
     <use xlink:href="#DejaVuSansMono-32" transform="translate(60.205078 0)"/>
    </g>
   </g>
   <g id="line2d_62">
    <path d="M 501.380331 47.979787 
L 533.058557 47.979787 
" clip-path="url(#p84e10d4b99)" style="fill: none; stroke: #08306b; stroke-width: 1.7; stroke-linecap: square"/>
   </g>
   <g id="line2d_63">
    <path d="M 501.380331 74.80306 
L 533.058557 74.80306 
" clip-path="url(#p84e10d4b99)" style="fill: none; stroke: #08306b; stroke-width: 1.7; stroke-linecap: square"/>
   </g>
   <g id="line2d_64">
    <path d="M 501.380331 74.80306 
L 501.380331 47.979787 
" clip-path="url(#p84e10d4b99)" style="fill: none; stroke: #08306b; stroke-width: 1.2; stroke-linecap: square"/>
   </g>
   <g id="line2d_65">
    <path d="M 533.058557 74.80306 
L 533.058557 47.979787 
" clip-path="url(#p84e10d4b99)" style="fill: none; stroke: #08306b; stroke-width: 1.2; stroke-linecap: square"/>
   </g>
   <g id="text_23">
    <!-- 16 -->
    <g style="fill: #08306b" transform="translate(511.801162 63.898767) scale(0.09 -0.09)">
     <use xlink:href="#DejaVuSansMono-31"/>
     <use xlink:href="#DejaVuSansMono-36" transform="translate(60.205078 0)"/>
    </g>
   </g>
   <g id="line2d_66">
    <path d="M 533.058557 47.979787 
L 564.736783 47.979787 
" clip-path="url(#p84e10d4b99)" style="fill: none; stroke: #08306b; stroke-width: 1.7; stroke-linecap: square"/>
   </g>
   <g id="line2d_67">
    <path d="M 533.058557 74.80306 
L 564.736783 74.80306 
" clip-path="url(#p84e10d4b99)" style="fill: none; stroke: #08306b; stroke-width: 1.7; stroke-linecap: square"/>
   </g>
   <g id="line2d_68">
    <path d="M 533.058557 74.80306 
L 533.058557 47.979787 
" clip-path="url(#p84e10d4b99)" style="fill: none; stroke: #08306b; stroke-width: 1.2; stroke-linecap: square"/>
   </g>
   <g id="line2d_69">
    <path d="M 564.736783 74.80306 
L 564.736783 47.979787 
" clip-path="url(#p84e10d4b99)" style="fill: none; stroke: #08306b; stroke-width: 1.2; stroke-linecap: square"/>
   </g>
   <g id="text_24">
    <!-- 8 -->
    <g style="fill: #08306b" transform="translate(546.188529 63.898767) scale(0.09 -0.09)">
     <use xlink:href="#DejaVuSansMono-38"/>
    </g>
   </g>
   <g id="line2d_70">
    <path d="M 564.736783 47.979787 
L 596.41501 47.979787 
" clip-path="url(#p84e10d4b99)" style="fill: none; stroke: #08306b; stroke-width: 1.7; stroke-linecap: square"/>
   </g>
   <g id="line2d_71">
    <path d="M 564.736783 74.80306 
L 596.41501 74.80306 
" clip-path="url(#p84e10d4b99)" style="fill: none; stroke: #08306b; stroke-width: 1.7; stroke-linecap: square"/>
   </g>
   <g id="line2d_72">
    <path d="M 564.736783 74.80306 
L 564.736783 47.979787 
" clip-path="url(#p84e10d4b99)" style="fill: none; stroke: #08306b; stroke-width: 1.2; stroke-linecap: square"/>
   </g>
   <g id="line2d_73">
    <path d="M 596.41501 74.80306 
L 596.41501 47.979787 
" clip-path="url(#p84e10d4b99)" style="fill: none; stroke: #08306b; stroke-width: 1.2; stroke-linecap: square"/>
   </g>
   <g id="text_25">
    <!-- 12 -->
    <g style="fill: #08306b" transform="translate(575.157615 63.898767) scale(0.09 -0.09)">
     <use xlink:href="#DejaVuSansMono-31"/>
     <use xlink:href="#DejaVuSansMono-32" transform="translate(60.205078 0)"/>
    </g>
   </g>
   <g id="line2d_74">
    <path d="M 596.41501 47.979787 
L 628.093236 47.979787 
" clip-path="url(#p84e10d4b99)" style="fill: none; stroke: #08306b; stroke-width: 1.7; stroke-linecap: square"/>
   </g>
   <g id="line2d_75">
    <path d="M 596.41501 74.80306 
L 628.093236 74.80306 
" clip-path="url(#p84e10d4b99)" style="fill: none; stroke: #08306b; stroke-width: 1.7; stroke-linecap: square"/>
   </g>
   <g id="line2d_76">
    <path d="M 596.41501 74.80306 
L 596.41501 47.979787 
" clip-path="url(#p84e10d4b99)" style="fill: none; stroke: #08306b; stroke-width: 1.2; stroke-linecap: square"/>
   </g>
   <g id="line2d_77">
    <path d="M 628.093236 74.80306 
L 628.093236 47.979787 
" clip-path="url(#p84e10d4b99)" style="fill: none; stroke: #08306b; stroke-width: 1.2; stroke-linecap: square"/>
   </g>
   <g id="text_26">
    <!-- 16 -->
    <g style="fill: #08306b" transform="translate(606.835841 63.898767) scale(0.09 -0.09)">
     <use xlink:href="#DejaVuSansMono-31"/>
     <use xlink:href="#DejaVuSansMono-36" transform="translate(60.205078 0)"/>
    </g>
   </g>
   <g id="line2d_78">
    <path d="M 628.093236 47.979787 
L 659.771462 47.979787 
" clip-path="url(#p84e10d4b99)" style="fill: none; stroke: #08306b; stroke-width: 1.7; stroke-linecap: square"/>
   </g>
   <g id="line2d_79">
    <path d="M 628.093236 74.80306 
L 659.771462 74.80306 
" clip-path="url(#p84e10d4b99)" style="fill: none; stroke: #08306b; stroke-width: 1.7; stroke-linecap: square"/>
   </g>
   <g id="line2d_80">
    <path d="M 628.093236 74.80306 
L 628.093236 47.979787 
" clip-path="url(#p84e10d4b99)" style="fill: none; stroke: #08306b; stroke-width: 1.2; stroke-linecap: square"/>
   </g>
   <g id="line2d_81">
    <path d="M 659.771462 74.80306 
L 659.771462 47.979787 
" clip-path="url(#p84e10d4b99)" style="fill: none; stroke: #08306b; stroke-width: 1.2; stroke-linecap: square"/>
   </g>
   <g id="text_27">
    <!-- 8 -->
    <g style="fill: #08306b" transform="translate(641.223208 63.898767) scale(0.09 -0.09)">
     <use xlink:href="#DejaVuSansMono-38"/>
    </g>
   </g>
   <g id="line2d_82">
    <path d="M 659.771462 47.979787 
L 691.449688 47.979787 
" clip-path="url(#p84e10d4b99)" style="fill: none; stroke: #08306b; stroke-width: 1.7; stroke-linecap: square"/>
   </g>
   <g id="line2d_83">
    <path d="M 659.771462 74.80306 
L 691.449688 74.80306 
" clip-path="url(#p84e10d4b99)" style="fill: none; stroke: #08306b; stroke-width: 1.7; stroke-linecap: square"/>
   </g>
   <g id="line2d_84">
    <path d="M 659.771462 74.80306 
L 659.771462 47.979787 
" clip-path="url(#p84e10d4b99)" style="fill: none; stroke: #08306b; stroke-width: 1.2; stroke-linecap: square"/>
   </g>
   <g id="line2d_85">
    <path d="M 691.449688 74.80306 
L 691.449688 47.979787 
" clip-path="url(#p84e10d4b99)" style="fill: none; stroke: #08306b; stroke-width: 1.2; stroke-linecap: square"/>
   </g>
   <g id="text_28">
    <!-- 12 -->
    <g style="fill: #08306b" transform="translate(670.192294 63.898767) scale(0.09 -0.09)">
     <use xlink:href="#DejaVuSansMono-31"/>
     <use xlink:href="#DejaVuSansMono-32" transform="translate(60.205078 0)"/>
    </g>
   </g>
   <g id="line2d_86">
    <path d="M 691.449688 47.979787 
L 723.127915 47.979787 
" clip-path="url(#p84e10d4b99)" style="fill: none; stroke: #08306b; stroke-width: 1.7; stroke-linecap: square"/>
   </g>
   <g id="line2d_87">
    <path d="M 691.449688 74.80306 
L 723.127915 74.80306 
" clip-path="url(#p84e10d4b99)" style="fill: none; stroke: #08306b; stroke-width: 1.7; stroke-linecap: square"/>
   </g>
   <g id="line2d_88">
    <path d="M 691.449688 74.80306 
L 691.449688 47.979787 
" clip-path="url(#p84e10d4b99)" style="fill: none; stroke: #08306b; stroke-width: 1.2; stroke-linecap: square"/>
   </g>
   <g id="line2d_89">
    <path d="M 723.127915 74.80306 
L 723.127915 47.979787 
" clip-path="url(#p84e10d4b99)" style="fill: none; stroke: #08306b; stroke-width: 1.2; stroke-linecap: square"/>
   </g>
   <g id="text_29">
    <!-- 16 -->
    <g style="fill: #08306b" transform="translate(701.87052 63.898767) scale(0.09 -0.09)">
     <use xlink:href="#DejaVuSansMono-31"/>
     <use xlink:href="#DejaVuSansMono-36" transform="translate(60.205078 0)"/>
    </g>
   </g>
   <g id="line2d_90">
    <path d="M 723.127915 47.979787 
L 754.806141 47.979787 
" clip-path="url(#p84e10d4b99)" style="fill: none; stroke: #08306b; stroke-width: 1.7; stroke-linecap: square"/>
   </g>
   <g id="line2d_91">
    <path d="M 723.127915 74.80306 
L 754.806141 74.80306 
" clip-path="url(#p84e10d4b99)" style="fill: none; stroke: #08306b; stroke-width: 1.7; stroke-linecap: square"/>
   </g>
   <g id="line2d_92">
    <path d="M 723.127915 74.80306 
L 723.127915 47.979787 
" clip-path="url(#p84e10d4b99)" style="fill: none; stroke: #08306b; stroke-width: 1.2; stroke-linecap: square"/>
   </g>
   <g id="line2d_93">
    <path d="M 754.806141 74.80306 
L 754.806141 47.979787 
" clip-path="url(#p84e10d4b99)" style="fill: none; stroke: #08306b; stroke-width: 1.2; stroke-linecap: square"/>
   </g>
   <g id="text_30">
    <!-- 8 -->
    <g style="fill: #08306b" transform="translate(736.257887 63.898767) scale(0.09 -0.09)">
     <use xlink:href="#DejaVuSansMono-38"/>
    </g>
   </g>
   <g id="line2d_94">
    <path d="M 754.806141 47.979787 
L 786.484367 47.979787 
" clip-path="url(#p84e10d4b99)" style="fill: none; stroke: #08306b; stroke-width: 1.7; stroke-linecap: square"/>
   </g>
   <g id="line2d_95">
    <path d="M 754.806141 74.80306 
L 786.484367 74.80306 
" clip-path="url(#p84e10d4b99)" style="fill: none; stroke: #08306b; stroke-width: 1.7; stroke-linecap: square"/>
   </g>
   <g id="line2d_96">
    <path d="M 754.806141 74.80306 
L 754.806141 47.979787 
" clip-path="url(#p84e10d4b99)" style="fill: none; stroke: #08306b; stroke-width: 1.2; stroke-linecap: square"/>
   </g>
   <g id="line2d_97">
    <path d="M 786.484367 74.80306 
L 786.484367 47.979787 
" clip-path="url(#p84e10d4b99)" style="fill: none; stroke: #08306b; stroke-width: 1.2; stroke-linecap: square"/>
   </g>
   <g id="text_31">
    <!-- 12 -->
    <g style="fill: #08306b" transform="translate(765.226973 63.898767) scale(0.09 -0.09)">
     <use xlink:href="#DejaVuSansMono-31"/>
     <use xlink:href="#DejaVuSansMono-32" transform="translate(60.205078 0)"/>
    </g>
   </g>
   <g id="line2d_98">
    <path d="M 786.484367 47.979787 
L 818.162594 47.979787 
" clip-path="url(#p84e10d4b99)" style="fill: none; stroke: #08306b; stroke-width: 1.7; stroke-linecap: square"/>
   </g>
   <g id="line2d_99">
    <path d="M 786.484367 74.80306 
L 818.162594 74.80306 
" clip-path="url(#p84e10d4b99)" style="fill: none; stroke: #08306b; stroke-width: 1.7; stroke-linecap: square"/>
   </g>
   <g id="line2d_100">
    <path d="M 786.484367 74.80306 
L 786.484367 47.979787 
" clip-path="url(#p84e10d4b99)" style="fill: none; stroke: #08306b; stroke-width: 1.2; stroke-linecap: square"/>
   </g>
   <g id="line2d_101">
    <path d="M 818.162594 74.80306 
L 818.162594 47.979787 
" clip-path="url(#p84e10d4b99)" style="fill: none; stroke: #08306b; stroke-width: 1.2; stroke-linecap: square"/>
   </g>
   <g id="text_32">
    <!-- 16 -->
    <g style="fill: #08306b" transform="translate(796.905199 63.898767) scale(0.09 -0.09)">
     <use xlink:href="#DejaVuSansMono-31"/>
     <use xlink:href="#DejaVuSansMono-36" transform="translate(60.205078 0)"/>
    </g>
   </g>
   <g id="line2d_102">
    <path d="M 818.162594 47.979787 
L 849.84082 47.979787 
" clip-path="url(#p84e10d4b99)" style="fill: none; stroke: #08306b; stroke-width: 1.7; stroke-linecap: square"/>
   </g>
   <g id="line2d_103">
    <path d="M 818.162594 74.80306 
L 849.84082 74.80306 
" clip-path="url(#p84e10d4b99)" style="fill: none; stroke: #08306b; stroke-width: 1.7; stroke-linecap: square"/>
   </g>
   <g id="line2d_104">
    <path d="M 818.162594 74.80306 
L 818.162594 47.979787 
" clip-path="url(#p84e10d4b99)" style="fill: none; stroke: #08306b; stroke-width: 1.2; stroke-linecap: square"/>
   </g>
   <g id="line2d_105">
    <path d="M 849.84082 74.80306 
L 849.84082 47.979787 
" clip-path="url(#p84e10d4b99)" style="fill: none; stroke: #08306b; stroke-width: 1.2; stroke-linecap: square"/>
   </g>
   <g id="text_33">
    <!-- 20 -->
    <g style="fill: #08306b" transform="translate(828.583426 63.898767) scale(0.09 -0.09)">
     <use xlink:href="#DejaVuSansMono-32"/>
     <use xlink:href="#DejaVuSansMono-30" transform="translate(60.205078 0)"/>
    </g>
   </g>
   <g id="line2d_106">
    <path d="M 849.84082 47.979787 
L 913.197273 47.979787 
" clip-path="url(#p84e10d4b99)" style="fill: none; stroke: #08306b; stroke-width: 1.7; stroke-linecap: square"/>
   </g>
   <g id="line2d_107">
    <path d="M 849.84082 74.80306 
L 913.197273 74.80306 
" clip-path="url(#p84e10d4b99)" style="fill: none; stroke: #08306b; stroke-width: 1.7; stroke-linecap: square"/>
   </g>
   <g id="line2d_108">
    <path d="M 849.84082 74.80306 
L 849.84082 47.979787 
" clip-path="url(#p84e10d4b99)" style="fill: none; stroke: #08306b; stroke-width: 1.2; stroke-linecap: square"/>
   </g>
   <g id="line2d_109">
    <path d="M 913.197273 74.80306 
L 913.197273 47.979787 
" clip-path="url(#p84e10d4b99)" style="fill: none; stroke: #08306b; stroke-width: 1.2; stroke-linecap: square"/>
   </g>
   <g id="text_34">
    <!-- 24 -->
    <g style="fill: #08306b" transform="translate(876.100765 63.898767) scale(0.09 -0.09)">
     <use xlink:href="#DejaVuSansMono-32"/>
     <use xlink:href="#DejaVuSansMono-34" transform="translate(60.205078 0)"/>
    </g>
   </g>
   <g id="text_35">
    <!-- pc_src -->
    <g transform="translate(30.82239 111.46329) scale(0.11 -0.11)">
     <defs>
      <path id="DejaVuSansMono-5f" d="M 3853 -1259 
L 3853 -1509 
L 0 -1509 
L 0 -1259 
L 3853 -1259 
z
" transform="scale(0.015625)"/>
      <path id="DejaVuSansMono-73" d="M 3041 3378 
L 3041 2816 
Q 2794 2959 2544 3031 
Q 2294 3103 2034 3103 
Q 1644 3103 1451 2976 
Q 1259 2850 1259 2591 
Q 1259 2356 1403 2240 
Q 1547 2125 2119 2016 
L 2350 1972 
Q 2778 1891 2998 1647 
Q 3219 1403 3219 1013 
Q 3219 494 2850 201 
Q 2481 -91 1825 -91 
Q 1566 -91 1281 -36 
Q 997 19 666 128 
L 666 722 
Q 988 556 1281 473 
Q 1575 391 1838 391 
Q 2219 391 2428 545 
Q 2638 700 2638 978 
Q 2638 1378 1872 1531 
L 1847 1538 
L 1631 1581 
Q 1134 1678 906 1908 
Q 678 2138 678 2534 
Q 678 3038 1018 3311 
Q 1359 3584 1991 3584 
Q 2272 3584 2531 3532 
Q 2791 3481 3041 3378 
z
" transform="scale(0.015625)"/>
      <path id="DejaVuSansMono-72" d="M 3609 2778 
Q 3425 2922 3234 2987 
Q 3044 3053 2816 3053 
Q 2278 3053 1993 2715 
Q 1709 2378 1709 1741 
L 1709 0 
L 1131 0 
L 1131 3500 
L 1709 3500 
L 1709 2816 
Q 1853 3188 2151 3386 
Q 2450 3584 2859 3584 
Q 3072 3584 3256 3531 
Q 3441 3478 3609 3366 
L 3609 2778 
z
" transform="scale(0.015625)"/>
     </defs>
     <use xlink:href="#DejaVuSansMono-70"/>
     <use xlink:href="#DejaVuSansMono-63" transform="translate(60.205078 0)"/>
     <use xlink:href="#DejaVuSansMono-5f" transform="translate(120.410156 0)"/>
     <use xlink:href="#DejaVuSansMono-73" transform="translate(180.615234 0)"/>
     <use xlink:href="#DejaVuSansMono-72" transform="translate(240.820312 0)"/>
     <use xlink:href="#DejaVuSansMono-63" transform="translate(301.025391 0)"/>
    </g>
   </g>
   <g id="line2d_110">
    <path d="M 89.563388 122.116332 
L 121.241615 122.116332 
L 121.241615 122.116332 
L 152.919841 122.116332 
L 152.919841 122.116332 
L 184.598067 122.116332 
L 184.598067 122.116332 
L 216.276294 122.116332 
L 216.276294 95.29306 
L 247.95452 95.29306 
L 247.95452 122.116332 
L 279.632746 122.116332 
L 279.632746 122.116332 
L 311.310973 122.116332 
L 311.310973 95.29306 
L 342.989199 95.29306 
L 342.989199 122.116332 
L 374.667425 122.116332 
L 374.667425 122.116332 
L 406.345652 122.116332 
L 406.345652 95.29306 
L 438.023878 95.29306 
L 438.023878 122.116332 
L 469.702104 122.116332 
L 469.702104 122.116332 
L 501.380331 122.116332 
L 501.380331 95.29306 
L 533.058557 95.29306 
L 533.058557 122.116332 
L 564.736783 122.116332 
L 564.736783 122.116332 
L 596.41501 122.116332 
L 596.41501 95.29306 
L 628.093236 95.29306 
L 628.093236 122.116332 
L 659.771462 122.116332 
L 659.771462 122.116332 
L 691.449688 122.116332 
L 691.449688 95.29306 
L 723.127915 95.29306 
L 723.127915 122.116332 
L 754.806141 122.116332 
L 754.806141 122.116332 
L 786.484367 122.116332 
L 786.484367 122.116332 
L 818.162594 122.116332 
L 818.162594 122.116332 
L 849.84082 122.116332 
L 849.84082 95.29306 
L 881.519046 95.29306 
L 881.519046 95.29306 
L 913.197273 95.29306 
L 913.197273 95.29306 
" clip-path="url(#p84e10d4b99)" style="fill: none; stroke: #08306b; stroke-width: 1.8; stroke-linecap: square"/>
   </g>
   <g id="text_36">
    <!-- x1 -->
    <g transform="translate(57.311765 159.0825) scale(0.11 -0.11)">
     <defs>
      <path id="DejaVuSansMono-78" d="M 3494 3500 
L 2241 1825 
L 3616 0 
L 2950 0 
L 1925 1403 
L 903 0 
L 238 0 
L 1613 1825 
L 359 3500 
L 997 3500 
L 1925 2234 
L 2847 3500 
L 3494 3500 
z
" transform="scale(0.015625)"/>
     </defs>
     <use xlink:href="#DejaVuSansMono-78"/>
     <use xlink:href="#DejaVuSansMono-31" transform="translate(60.205078 0)"/>
    </g>
   </g>
   <g id="line2d_111">
    <path d="M 89.563388 142.606332 
L 121.241615 142.606332 
" clip-path="url(#p84e10d4b99)" style="fill: none; stroke: #08306b; stroke-width: 1.7; stroke-linecap: square"/>
   </g>
   <g id="line2d_112">
    <path d="M 89.563388 169.429605 
L 121.241615 169.429605 
" clip-path="url(#p84e10d4b99)" style="fill: none; stroke: #08306b; stroke-width: 1.7; stroke-linecap: square"/>
   </g>
   <g id="line2d_113">
    <path d="M 89.563388 169.429605 
L 89.563388 142.606332 
" clip-path="url(#p84e10d4b99)" style="fill: none; stroke: #08306b; stroke-width: 1.2; stroke-linecap: square"/>
   </g>
   <g id="line2d_114">
    <path d="M 121.241615 169.429605 
L 121.241615 142.606332 
" clip-path="url(#p84e10d4b99)" style="fill: none; stroke: #08306b; stroke-width: 1.2; stroke-linecap: square"/>
   </g>
   <g id="text_37">
    <!-- 0 -->
    <g style="fill: #08306b" transform="translate(102.693361 158.525313) scale(0.09 -0.09)">
     <use xlink:href="#DejaVuSansMono-30"/>
    </g>
   </g>
   <g id="line2d_115">
    <path d="M 121.241615 142.606332 
L 216.276294 142.606332 
" clip-path="url(#p84e10d4b99)" style="fill: none; stroke: #08306b; stroke-width: 1.7; stroke-linecap: square"/>
   </g>
   <g id="line2d_116">
    <path d="M 121.241615 169.429605 
L 216.276294 169.429605 
" clip-path="url(#p84e10d4b99)" style="fill: none; stroke: #08306b; stroke-width: 1.7; stroke-linecap: square"/>
   </g>
   <g id="line2d_117">
    <path d="M 121.241615 169.429605 
L 121.241615 142.606332 
" clip-path="url(#p84e10d4b99)" style="fill: none; stroke: #08306b; stroke-width: 1.2; stroke-linecap: square"/>
   </g>
   <g id="line2d_118">
    <path d="M 216.276294 169.429605 
L 216.276294 142.606332 
" clip-path="url(#p84e10d4b99)" style="fill: none; stroke: #08306b; stroke-width: 1.2; stroke-linecap: square"/>
   </g>
   <g id="text_38">
    <!-- 7 -->
    <g style="fill: #08306b" transform="translate(166.049814 158.525313) scale(0.09 -0.09)">
     <defs>
      <path id="DejaVuSansMono-37" d="M 434 4666 
L 3372 4666 
L 3372 4397 
L 1703 0 
L 1044 0 
L 2669 4134 
L 434 4134 
L 434 4666 
z
" transform="scale(0.015625)"/>
     </defs>
     <use xlink:href="#DejaVuSansMono-37"/>
    </g>
   </g>
   <g id="line2d_119">
    <path d="M 216.276294 142.606332 
L 311.310973 142.606332 
" clip-path="url(#p84e10d4b99)" style="fill: none; stroke: #08306b; stroke-width: 1.7; stroke-linecap: square"/>
   </g>
   <g id="line2d_120">
    <path d="M 216.276294 169.429605 
L 311.310973 169.429605 
" clip-path="url(#p84e10d4b99)" style="fill: none; stroke: #08306b; stroke-width: 1.7; stroke-linecap: square"/>
   </g>
   <g id="line2d_121">
    <path d="M 216.276294 169.429605 
L 216.276294 142.606332 
" clip-path="url(#p84e10d4b99)" style="fill: none; stroke: #08306b; stroke-width: 1.2; stroke-linecap: square"/>
   </g>
   <g id="line2d_122">
    <path d="M 311.310973 169.429605 
L 311.310973 142.606332 
" clip-path="url(#p84e10d4b99)" style="fill: none; stroke: #08306b; stroke-width: 1.2; stroke-linecap: square"/>
   </g>
   <g id="text_39">
    <!-- 6 -->
    <g style="fill: #08306b" transform="translate(261.084493 158.525313) scale(0.09 -0.09)">
     <use xlink:href="#DejaVuSansMono-36"/>
    </g>
   </g>
   <g id="line2d_123">
    <path d="M 311.310973 142.606332 
L 406.345652 142.606332 
" clip-path="url(#p84e10d4b99)" style="fill: none; stroke: #08306b; stroke-width: 1.7; stroke-linecap: square"/>
   </g>
   <g id="line2d_124">
    <path d="M 311.310973 169.429605 
L 406.345652 169.429605 
" clip-path="url(#p84e10d4b99)" style="fill: none; stroke: #08306b; stroke-width: 1.7; stroke-linecap: square"/>
   </g>
   <g id="line2d_125">
    <path d="M 311.310973 169.429605 
L 311.310973 142.606332 
" clip-path="url(#p84e10d4b99)" style="fill: none; stroke: #08306b; stroke-width: 1.2; stroke-linecap: square"/>
   </g>
   <g id="line2d_126">
    <path d="M 406.345652 169.429605 
L 406.345652 142.606332 
" clip-path="url(#p84e10d4b99)" style="fill: none; stroke: #08306b; stroke-width: 1.2; stroke-linecap: square"/>
   </g>
   <g id="text_40">
    <!-- 5 -->
    <g style="fill: #08306b" transform="translate(356.119172 158.525313) scale(0.09 -0.09)">
     <defs>
      <path id="DejaVuSansMono-35" d="M 647 4666 
L 3009 4666 
L 3009 4134 
L 1222 4134 
L 1222 2988 
Q 1356 3038 1492 3061 
Q 1628 3084 1766 3084 
Q 2491 3084 2916 2656 
Q 3341 2228 3341 1497 
Q 3341 759 2895 334 
Q 2450 -91 1678 -91 
Q 1306 -91 998 -41 
Q 691 9 447 109 
L 447 750 
Q 734 594 1025 517 
Q 1316 441 1619 441 
Q 2141 441 2423 716 
Q 2706 991 2706 1497 
Q 2706 1997 2414 2275 
Q 2122 2553 1600 2553 
Q 1347 2553 1106 2495 
Q 866 2438 647 2322 
L 647 4666 
z
" transform="scale(0.015625)"/>
     </defs>
     <use xlink:href="#DejaVuSansMono-35"/>
    </g>
   </g>
   <g id="line2d_127">
    <path d="M 406.345652 142.606332 
L 501.380331 142.606332 
" clip-path="url(#p84e10d4b99)" style="fill: none; stroke: #08306b; stroke-width: 1.7; stroke-linecap: square"/>
   </g>
   <g id="line2d_128">
    <path d="M 406.345652 169.429605 
L 501.380331 169.429605 
" clip-path="url(#p84e10d4b99)" style="fill: none; stroke: #08306b; stroke-width: 1.7; stroke-linecap: square"/>
   </g>
   <g id="line2d_129">
    <path d="M 406.345652 169.429605 
L 406.345652 142.606332 
" clip-path="url(#p84e10d4b99)" style="fill: none; stroke: #08306b; stroke-width: 1.2; stroke-linecap: square"/>
   </g>
   <g id="line2d_130">
    <path d="M 501.380331 169.429605 
L 501.380331 142.606332 
" clip-path="url(#p84e10d4b99)" style="fill: none; stroke: #08306b; stroke-width: 1.2; stroke-linecap: square"/>
   </g>
   <g id="text_41">
    <!-- 4 -->
    <g style="fill: #08306b" transform="translate(451.15385 158.525313) scale(0.09 -0.09)">
     <use xlink:href="#DejaVuSansMono-34"/>
    </g>
   </g>
   <g id="line2d_131">
    <path d="M 501.380331 142.606332 
L 596.41501 142.606332 
" clip-path="url(#p84e10d4b99)" style="fill: none; stroke: #08306b; stroke-width: 1.7; stroke-linecap: square"/>
   </g>
   <g id="line2d_132">
    <path d="M 501.380331 169.429605 
L 596.41501 169.429605 
" clip-path="url(#p84e10d4b99)" style="fill: none; stroke: #08306b; stroke-width: 1.7; stroke-linecap: square"/>
   </g>
   <g id="line2d_133">
    <path d="M 501.380331 169.429605 
L 501.380331 142.606332 
" clip-path="url(#p84e10d4b99)" style="fill: none; stroke: #08306b; stroke-width: 1.2; stroke-linecap: square"/>
   </g>
   <g id="line2d_134">
    <path d="M 596.41501 169.429605 
L 596.41501 142.606332 
" clip-path="url(#p84e10d4b99)" style="fill: none; stroke: #08306b; stroke-width: 1.2; stroke-linecap: square"/>
   </g>
   <g id="text_42">
    <!-- 3 -->
    <g style="fill: #08306b" transform="translate(546.188529 158.525313) scale(0.09 -0.09)">
     <defs>
      <path id="DejaVuSansMono-33" d="M 2425 2497 
Q 2884 2375 3128 2064 
Q 3372 1753 3372 1288 
Q 3372 644 2939 276 
Q 2506 -91 1741 -91 
Q 1419 -91 1084 -31 
Q 750 28 428 141 
L 428 769 
Q 747 603 1056 522 
Q 1366 441 1672 441 
Q 2191 441 2469 675 
Q 2747 909 2747 1350 
Q 2747 1756 2469 1995 
Q 2191 2234 1716 2234 
L 1234 2234 
L 1234 2753 
L 1716 2753 
Q 2150 2753 2394 2943 
Q 2638 3134 2638 3475 
Q 2638 3834 2411 4026 
Q 2184 4219 1766 4219 
Q 1488 4219 1191 4156 
Q 894 4094 569 3969 
L 569 4550 
Q 947 4650 1242 4700 
Q 1538 4750 1766 4750 
Q 2447 4750 2855 4408 
Q 3263 4066 3263 3500 
Q 3263 3116 3048 2859 
Q 2834 2603 2425 2497 
z
" transform="scale(0.015625)"/>
     </defs>
     <use xlink:href="#DejaVuSansMono-33"/>
    </g>
   </g>
   <g id="line2d_135">
    <path d="M 596.41501 142.606332 
L 691.449688 142.606332 
" clip-path="url(#p84e10d4b99)" style="fill: none; stroke: #08306b; stroke-width: 1.7; stroke-linecap: square"/>
   </g>
   <g id="line2d_136">
    <path d="M 596.41501 169.429605 
L 691.449688 169.429605 
" clip-path="url(#p84e10d4b99)" style="fill: none; stroke: #08306b; stroke-width: 1.7; stroke-linecap: square"/>
   </g>
   <g id="line2d_137">
    <path d="M 596.41501 169.429605 
L 596.41501 142.606332 
" clip-path="url(#p84e10d4b99)" style="fill: none; stroke: #08306b; stroke-width: 1.2; stroke-linecap: square"/>
   </g>
   <g id="line2d_138">
    <path d="M 691.449688 169.429605 
L 691.449688 142.606332 
" clip-path="url(#p84e10d4b99)" style="fill: none; stroke: #08306b; stroke-width: 1.2; stroke-linecap: square"/>
   </g>
   <g id="text_43">
    <!-- 2 -->
    <g style="fill: #08306b" transform="translate(641.223208 158.525313) scale(0.09 -0.09)">
     <use xlink:href="#DejaVuSansMono-32"/>
    </g>
   </g>
   <g id="line2d_139">
    <path d="M 691.449688 142.606332 
L 786.484367 142.606332 
" clip-path="url(#p84e10d4b99)" style="fill: none; stroke: #08306b; stroke-width: 1.7; stroke-linecap: square"/>
   </g>
   <g id="line2d_140">
    <path d="M 691.449688 169.429605 
L 786.484367 169.429605 
" clip-path="url(#p84e10d4b99)" style="fill: none; stroke: #08306b; stroke-width: 1.7; stroke-linecap: square"/>
   </g>
   <g id="line2d_141">
    <path d="M 691.449688 169.429605 
L 691.449688 142.606332 
" clip-path="url(#p84e10d4b99)" style="fill: none; stroke: #08306b; stroke-width: 1.2; stroke-linecap: square"/>
   </g>
   <g id="line2d_142">
    <path d="M 786.484367 169.429605 
L 786.484367 142.606332 
" clip-path="url(#p84e10d4b99)" style="fill: none; stroke: #08306b; stroke-width: 1.2; stroke-linecap: square"/>
   </g>
   <g id="text_44">
    <!-- 1 -->
    <g style="fill: #08306b" transform="translate(736.257887 158.525313) scale(0.09 -0.09)">
     <use xlink:href="#DejaVuSansMono-31"/>
    </g>
   </g>
   <g id="line2d_143">
    <path d="M 786.484367 142.606332 
L 913.197273 142.606332 
" clip-path="url(#p84e10d4b99)" style="fill: none; stroke: #08306b; stroke-width: 1.7; stroke-linecap: square"/>
   </g>
   <g id="line2d_144">
    <path d="M 786.484367 169.429605 
L 913.197273 169.429605 
" clip-path="url(#p84e10d4b99)" style="fill: none; stroke: #08306b; stroke-width: 1.7; stroke-linecap: square"/>
   </g>
   <g id="line2d_145">
    <path d="M 786.484367 169.429605 
L 786.484367 142.606332 
" clip-path="url(#p84e10d4b99)" style="fill: none; stroke: #08306b; stroke-width: 1.2; stroke-linecap: square"/>
   </g>
   <g id="line2d_146">
    <path d="M 913.197273 169.429605 
L 913.197273 142.606332 
" clip-path="url(#p84e10d4b99)" style="fill: none; stroke: #08306b; stroke-width: 1.2; stroke-linecap: square"/>
   </g>
   <g id="text_45">
    <!-- 0 -->
    <g style="fill: #08306b" transform="translate(847.131679 158.525313) scale(0.09 -0.09)">
     <use xlink:href="#DejaVuSansMono-30"/>
    </g>
   </g>
   <g id="text_46">
    <!-- x2 -->
    <g transform="translate(57.311765 206.395773) scale(0.11 -0.11)">
     <use xlink:href="#DejaVuSansMono-78"/>
     <use xlink:href="#DejaVuSansMono-32" transform="translate(60.205078 0)"/>
    </g>
   </g>
   <g id="line2d_147">
    <path d="M 89.563388 189.919605 
L 184.598067 189.919605 
" clip-path="url(#p84e10d4b99)" style="fill: none; stroke: #08306b; stroke-width: 1.7; stroke-linecap: square"/>
   </g>
   <g id="line2d_148">
    <path d="M 89.563388 216.742878 
L 184.598067 216.742878 
" clip-path="url(#p84e10d4b99)" style="fill: none; stroke: #08306b; stroke-width: 1.7; stroke-linecap: square"/>
   </g>
   <g id="line2d_149">
    <path d="M 89.563388 216.742878 
L 89.563388 189.919605 
" clip-path="url(#p84e10d4b99)" style="fill: none; stroke: #08306b; stroke-width: 1.2; stroke-linecap: square"/>
   </g>
   <g id="line2d_150">
    <path d="M 184.598067 216.742878 
L 184.598067 189.919605 
" clip-path="url(#p84e10d4b99)" style="fill: none; stroke: #08306b; stroke-width: 1.2; stroke-linecap: square"/>
   </g>
   <g id="text_47">
    <!-- 0 -->
    <g style="fill: #08306b" transform="translate(134.371587 205.838585) scale(0.09 -0.09)">
     <use xlink:href="#DejaVuSansMono-30"/>
    </g>
   </g>
   <g id="line2d_151">
    <path d="M 184.598067 189.919605 
L 279.632746 189.919605 
" clip-path="url(#p84e10d4b99)" style="fill: none; stroke: #08306b; stroke-width: 1.7; stroke-linecap: square"/>
   </g>
   <g id="line2d_152">
    <path d="M 184.598067 216.742878 
L 279.632746 216.742878 
" clip-path="url(#p84e10d4b99)" style="fill: none; stroke: #08306b; stroke-width: 1.7; stroke-linecap: square"/>
   </g>
   <g id="line2d_153">
    <path d="M 184.598067 216.742878 
L 184.598067 189.919605 
" clip-path="url(#p84e10d4b99)" style="fill: none; stroke: #08306b; stroke-width: 1.2; stroke-linecap: square"/>
   </g>
   <g id="line2d_154">
    <path d="M 279.632746 216.742878 
L 279.632746 189.919605 
" clip-path="url(#p84e10d4b99)" style="fill: none; stroke: #08306b; stroke-width: 1.2; stroke-linecap: square"/>
   </g>
   <g id="text_48">
    <!-- 7 -->
    <g style="fill: #08306b" transform="translate(229.406266 205.838585) scale(0.09 -0.09)">
     <use xlink:href="#DejaVuSansMono-37"/>
    </g>
   </g>
   <g id="line2d_155">
    <path d="M 279.632746 189.919605 
L 374.667425 189.919605 
" clip-path="url(#p84e10d4b99)" style="fill: none; stroke: #08306b; stroke-width: 1.7; stroke-linecap: square"/>
   </g>
   <g id="line2d_156">
    <path d="M 279.632746 216.742878 
L 374.667425 216.742878 
" clip-path="url(#p84e10d4b99)" style="fill: none; stroke: #08306b; stroke-width: 1.7; stroke-linecap: square"/>
   </g>
   <g id="line2d_157">
    <path d="M 279.632746 216.742878 
L 279.632746 189.919605 
" clip-path="url(#p84e10d4b99)" style="fill: none; stroke: #08306b; stroke-width: 1.2; stroke-linecap: square"/>
   </g>
   <g id="line2d_158">
    <path d="M 374.667425 216.742878 
L 374.667425 189.919605 
" clip-path="url(#p84e10d4b99)" style="fill: none; stroke: #08306b; stroke-width: 1.2; stroke-linecap: square"/>
   </g>
   <g id="text_49">
    <!-- 13 -->
    <g style="fill: #08306b" transform="translate(321.731805 205.838585) scale(0.09 -0.09)">
     <use xlink:href="#DejaVuSansMono-31"/>
     <use xlink:href="#DejaVuSansMono-33" transform="translate(60.205078 0)"/>
    </g>
   </g>
   <g id="line2d_159">
    <path d="M 374.667425 189.919605 
L 469.702104 189.919605 
" clip-path="url(#p84e10d4b99)" style="fill: none; stroke: #08306b; stroke-width: 1.7; stroke-linecap: square"/>
   </g>
   <g id="line2d_160">
    <path d="M 374.667425 216.742878 
L 469.702104 216.742878 
" clip-path="url(#p84e10d4b99)" style="fill: none; stroke: #08306b; stroke-width: 1.7; stroke-linecap: square"/>
   </g>
   <g id="line2d_161">
    <path d="M 374.667425 216.742878 
L 374.667425 189.919605 
" clip-path="url(#p84e10d4b99)" style="fill: none; stroke: #08306b; stroke-width: 1.2; stroke-linecap: square"/>
   </g>
   <g id="line2d_162">
    <path d="M 469.702104 216.742878 
L 469.702104 189.919605 
" clip-path="url(#p84e10d4b99)" style="fill: none; stroke: #08306b; stroke-width: 1.2; stroke-linecap: square"/>
   </g>
   <g id="text_50">
    <!-- 18 -->
    <g style="fill: #08306b" transform="translate(416.766484 205.838585) scale(0.09 -0.09)">
     <use xlink:href="#DejaVuSansMono-31"/>
     <use xlink:href="#DejaVuSansMono-38" transform="translate(60.205078 0)"/>
    </g>
   </g>
   <g id="line2d_163">
    <path d="M 469.702104 189.919605 
L 564.736783 189.919605 
" clip-path="url(#p84e10d4b99)" style="fill: none; stroke: #08306b; stroke-width: 1.7; stroke-linecap: square"/>
   </g>
   <g id="line2d_164">
    <path d="M 469.702104 216.742878 
L 564.736783 216.742878 
" clip-path="url(#p84e10d4b99)" style="fill: none; stroke: #08306b; stroke-width: 1.7; stroke-linecap: square"/>
   </g>
   <g id="line2d_165">
    <path d="M 469.702104 216.742878 
L 469.702104 189.919605 
" clip-path="url(#p84e10d4b99)" style="fill: none; stroke: #08306b; stroke-width: 1.2; stroke-linecap: square"/>
   </g>
   <g id="line2d_166">
    <path d="M 564.736783 216.742878 
L 564.736783 189.919605 
" clip-path="url(#p84e10d4b99)" style="fill: none; stroke: #08306b; stroke-width: 1.2; stroke-linecap: square"/>
   </g>
   <g id="text_51">
    <!-- 22 -->
    <g style="fill: #08306b" transform="translate(511.801162 205.838585) scale(0.09 -0.09)">
     <use xlink:href="#DejaVuSansMono-32"/>
     <use xlink:href="#DejaVuSansMono-32" transform="translate(60.205078 0)"/>
    </g>
   </g>
   <g id="line2d_167">
    <path d="M 564.736783 189.919605 
L 659.771462 189.919605 
" clip-path="url(#p84e10d4b99)" style="fill: none; stroke: #08306b; stroke-width: 1.7; stroke-linecap: square"/>
   </g>
   <g id="line2d_168">
    <path d="M 564.736783 216.742878 
L 659.771462 216.742878 
" clip-path="url(#p84e10d4b99)" style="fill: none; stroke: #08306b; stroke-width: 1.7; stroke-linecap: square"/>
   </g>
   <g id="line2d_169">
    <path d="M 564.736783 216.742878 
L 564.736783 189.919605 
" clip-path="url(#p84e10d4b99)" style="fill: none; stroke: #08306b; stroke-width: 1.2; stroke-linecap: square"/>
   </g>
   <g id="line2d_170">
    <path d="M 659.771462 216.742878 
L 659.771462 189.919605 
" clip-path="url(#p84e10d4b99)" style="fill: none; stroke: #08306b; stroke-width: 1.2; stroke-linecap: square"/>
   </g>
   <g id="text_52">
    <!-- 25 -->
    <g style="fill: #08306b" transform="translate(606.835841 205.838585) scale(0.09 -0.09)">
     <use xlink:href="#DejaVuSansMono-32"/>
     <use xlink:href="#DejaVuSansMono-35" transform="translate(60.205078 0)"/>
    </g>
   </g>
   <g id="line2d_171">
    <path d="M 659.771462 189.919605 
L 754.806141 189.919605 
" clip-path="url(#p84e10d4b99)" style="fill: none; stroke: #08306b; stroke-width: 1.7; stroke-linecap: square"/>
   </g>
   <g id="line2d_172">
    <path d="M 659.771462 216.742878 
L 754.806141 216.742878 
" clip-path="url(#p84e10d4b99)" style="fill: none; stroke: #08306b; stroke-width: 1.7; stroke-linecap: square"/>
   </g>
   <g id="line2d_173">
    <path d="M 659.771462 216.742878 
L 659.771462 189.919605 
" clip-path="url(#p84e10d4b99)" style="fill: none; stroke: #08306b; stroke-width: 1.2; stroke-linecap: square"/>
   </g>
   <g id="line2d_174">
    <path d="M 754.806141 216.742878 
L 754.806141 189.919605 
" clip-path="url(#p84e10d4b99)" style="fill: none; stroke: #08306b; stroke-width: 1.2; stroke-linecap: square"/>
   </g>
   <g id="text_53">
    <!-- 27 -->
    <g style="fill: #08306b" transform="translate(701.87052 205.838585) scale(0.09 -0.09)">
     <use xlink:href="#DejaVuSansMono-32"/>
     <use xlink:href="#DejaVuSansMono-37" transform="translate(60.205078 0)"/>
    </g>
   </g>
   <g id="line2d_175">
    <path d="M 754.806141 189.919605 
L 913.197273 189.919605 
" clip-path="url(#p84e10d4b99)" style="fill: none; stroke: #08306b; stroke-width: 1.7; stroke-linecap: square"/>
   </g>
   <g id="line2d_176">
    <path d="M 754.806141 216.742878 
L 913.197273 216.742878 
" clip-path="url(#p84e10d4b99)" style="fill: none; stroke: #08306b; stroke-width: 1.7; stroke-linecap: square"/>
   </g>
   <g id="line2d_177">
    <path d="M 754.806141 216.742878 
L 754.806141 189.919605 
" clip-path="url(#p84e10d4b99)" style="fill: none; stroke: #08306b; stroke-width: 1.2; stroke-linecap: square"/>
   </g>
   <g id="line2d_178">
    <path d="M 913.197273 216.742878 
L 913.197273 189.919605 
" clip-path="url(#p84e10d4b99)" style="fill: none; stroke: #08306b; stroke-width: 1.2; stroke-linecap: square"/>
   </g>
   <g id="text_54">
    <!-- 28 -->
    <g style="fill: #08306b" transform="translate(828.583426 205.838585) scale(0.09 -0.09)">
     <use xlink:href="#DejaVuSansMono-32"/>
     <use xlink:href="#DejaVuSansMono-38" transform="translate(60.205078 0)"/>
    </g>
   </g>
   <g id="text_55">
    <!-- mem_write -->
    <g transform="translate(10.955359 253.526858) scale(0.11 -0.11)">
     <defs>
      <path id="DejaVuSansMono-6d" d="M 2113 3144 
Q 2219 3369 2383 3476 
Q 2547 3584 2778 3584 
Q 3200 3584 3373 3257 
Q 3547 2931 3547 2028 
L 3547 0 
L 3022 0 
L 3022 2003 
Q 3022 2744 2939 2923 
Q 2856 3103 2638 3103 
Q 2388 3103 2295 2911 
Q 2203 2719 2203 2003 
L 2203 0 
L 1678 0 
L 1678 2003 
Q 1678 2753 1589 2928 
Q 1500 3103 1269 3103 
Q 1041 3103 952 2911 
Q 863 2719 863 2003 
L 863 0 
L 341 0 
L 341 3500 
L 863 3500 
L 863 3200 
Q 966 3388 1120 3486 
Q 1275 3584 1472 3584 
Q 1709 3584 1867 3475 
Q 2025 3366 2113 3144 
z
" transform="scale(0.015625)"/>
      <path id="DejaVuSansMono-65" d="M 3475 1894 
L 3475 1613 
L 984 1613 
L 984 1594 
Q 984 1022 1282 709 
Q 1581 397 2125 397 
Q 2400 397 2700 484 
Q 3000 572 3341 750 
L 3341 178 
Q 3013 44 2708 -23 
Q 2403 -91 2119 -91 
Q 1303 -91 843 398 
Q 384 888 384 1747 
Q 384 2584 834 3084 
Q 1284 3584 2034 3584 
Q 2703 3584 3089 3131 
Q 3475 2678 3475 1894 
z
M 2900 2063 
Q 2888 2569 2661 2833 
Q 2434 3097 2009 3097 
Q 1594 3097 1325 2822 
Q 1056 2547 1006 2059 
L 2900 2063 
z
" transform="scale(0.015625)"/>
      <path id="DejaVuSansMono-77" d="M 0 3500 
L 569 3500 
L 1178 672 
L 1678 2478 
L 2169 2478 
L 2675 672 
L 3284 3500 
L 3853 3500 
L 3034 0 
L 2484 0 
L 1925 1919 
L 1369 0 
L 819 0 
L 0 3500 
z
" transform="scale(0.015625)"/>
      <path id="DejaVuSansMono-69" d="M 800 3500 
L 2272 3500 
L 2272 447 
L 3413 447 
L 3413 0 
L 556 0 
L 556 447 
L 1697 447 
L 1697 3053 
L 800 3053 
L 800 3500 
z
M 1697 4863 
L 2272 4863 
L 2272 4134 
L 1697 4134 
L 1697 4863 
z
" transform="scale(0.015625)"/>
      <path id="DejaVuSansMono-74" d="M 1919 4494 
L 1919 3500 
L 3225 3500 
L 3225 3053 
L 1919 3053 
L 1919 1153 
Q 1919 766 2066 612 
Q 2213 459 2578 459 
L 3225 459 
L 3225 0 
L 2522 0 
Q 1875 0 1609 259 
Q 1344 519 1344 1153 
L 1344 3053 
L 409 3053 
L 409 3500 
L 1344 3500 
L 1344 4494 
L 1919 4494 
z
" transform="scale(0.015625)"/>
     </defs>
     <use xlink:href="#DejaVuSansMono-6d"/>
     <use xlink:href="#DejaVuSansMono-65" transform="translate(60.205078 0)"/>
     <use xlink:href="#DejaVuSansMono-6d" transform="translate(120.410156 0)"/>
     <use xlink:href="#DejaVuSansMono-5f" transform="translate(180.615234 0)"/>
     <use xlink:href="#DejaVuSansMono-77" transform="translate(240.820312 0)"/>
     <use xlink:href="#DejaVuSansMono-72" transform="translate(301.025391 0)"/>
     <use xlink:href="#DejaVuSansMono-69" transform="translate(361.230469 0)"/>
     <use xlink:href="#DejaVuSansMono-74" transform="translate(421.435547 0)"/>
     <use xlink:href="#DejaVuSansMono-65" transform="translate(481.640625 0)"/>
    </g>
   </g>
   <g id="line2d_179">
    <path d="M 89.563388 264.056151 
L 121.241615 264.056151 
L 121.241615 264.056151 
L 152.919841 264.056151 
L 152.919841 264.056151 
L 184.598067 264.056151 
L 184.598067 264.056151 
L 216.276294 264.056151 
L 216.276294 264.056151 
L 247.95452 264.056151 
L 247.95452 264.056151 
L 279.632746 264.056151 
L 279.632746 264.056151 
L 311.310973 264.056151 
L 311.310973 264.056151 
L 342.989199 264.056151 
L 342.989199 264.056151 
L 374.667425 264.056151 
L 374.667425 264.056151 
L 406.345652 264.056151 
L 406.345652 264.056151 
L 438.023878 264.056151 
L 438.023878 264.056151 
L 469.702104 264.056151 
L 469.702104 264.056151 
L 501.380331 264.056151 
L 501.380331 264.056151 
L 533.058557 264.056151 
L 533.058557 264.056151 
L 564.736783 264.056151 
L 564.736783 264.056151 
L 596.41501 264.056151 
L 596.41501 264.056151 
L 628.093236 264.056151 
L 628.093236 264.056151 
L 659.771462 264.056151 
L 659.771462 264.056151 
L 691.449688 264.056151 
L 691.449688 264.056151 
L 723.127915 264.056151 
L 723.127915 264.056151 
L 754.806141 264.056151 
L 754.806141 264.056151 
L 786.484367 264.056151 
L 786.484367 264.056151 
L 818.162594 264.056151 
L 818.162594 237.232878 
L 849.84082 237.232878 
L 849.84082 264.056151 
L 881.519046 264.056151 
L 881.519046 264.056151 
L 913.197273 264.056151 
L 913.197273 264.056151 
" clip-path="url(#p84e10d4b99)" style="fill: none; stroke: #08306b; stroke-width: 1.8; stroke-linecap: square"/>
   </g>
   <g id="text_56">
    <!-- Single-cycle core: branch loop (XLEN = 32) -->
    <g transform="translate(320.093168 17.077969) scale(0.13 -0.13)">
     <defs>
      <path id="DejaVuSans-53" d="M 3425 4513 
L 3425 3897 
Q 3066 4069 2747 4153 
Q 2428 4238 2131 4238 
Q 1616 4238 1336 4038 
Q 1056 3838 1056 3469 
Q 1056 3159 1242 3001 
Q 1428 2844 1947 2747 
L 2328 2669 
Q 3034 2534 3370 2195 
Q 3706 1856 3706 1288 
Q 3706 609 3251 259 
Q 2797 -91 1919 -91 
Q 1588 -91 1214 -16 
Q 841 59 441 206 
L 441 856 
Q 825 641 1194 531 
Q 1563 422 1919 422 
Q 2459 422 2753 634 
Q 3047 847 3047 1241 
Q 3047 1584 2836 1778 
Q 2625 1972 2144 2069 
L 1759 2144 
Q 1053 2284 737 2584 
Q 422 2884 422 3419 
Q 422 4038 858 4394 
Q 1294 4750 2059 4750 
Q 2388 4750 2728 4690 
Q 3069 4631 3425 4513 
z
" transform="scale(0.015625)"/>
      <path id="DejaVuSans-69" d="M 603 3500 
L 1178 3500 
L 1178 0 
L 603 0 
L 603 3500 
z
M 603 4863 
L 1178 4863 
L 1178 4134 
L 603 4134 
L 603 4863 
z
" transform="scale(0.015625)"/>
      <path id="DejaVuSans-6e" d="M 3513 2113 
L 3513 0 
L 2938 0 
L 2938 2094 
Q 2938 2591 2744 2837 
Q 2550 3084 2163 3084 
Q 1697 3084 1428 2787 
Q 1159 2491 1159 1978 
L 1159 0 
L 581 0 
L 581 3500 
L 1159 3500 
L 1159 2956 
Q 1366 3272 1645 3428 
Q 1925 3584 2291 3584 
Q 2894 3584 3203 3211 
Q 3513 2838 3513 2113 
z
" transform="scale(0.015625)"/>
      <path id="DejaVuSans-67" d="M 2906 1791 
Q 2906 2416 2648 2759 
Q 2391 3103 1925 3103 
Q 1463 3103 1205 2759 
Q 947 2416 947 1791 
Q 947 1169 1205 825 
Q 1463 481 1925 481 
Q 2391 481 2648 825 
Q 2906 1169 2906 1791 
z
M 3481 434 
Q 3481 -459 3084 -895 
Q 2688 -1331 1869 -1331 
Q 1566 -1331 1297 -1286 
Q 1028 -1241 775 -1147 
L 775 -588 
Q 1028 -725 1275 -790 
Q 1522 -856 1778 -856 
Q 2344 -856 2625 -561 
Q 2906 -266 2906 331 
L 2906 616 
Q 2728 306 2450 153 
Q 2172 0 1784 0 
Q 1141 0 747 490 
Q 353 981 353 1791 
Q 353 2603 747 3093 
Q 1141 3584 1784 3584 
Q 2172 3584 2450 3431 
Q 2728 3278 2906 2969 
L 2906 3500 
L 3481 3500 
L 3481 434 
z
" transform="scale(0.015625)"/>
      <path id="DejaVuSans-2d" d="M 313 2009 
L 1997 2009 
L 1997 1497 
L 313 1497 
L 313 2009 
z
" transform="scale(0.015625)"/>
      <path id="DejaVuSans-72" d="M 2631 2963 
Q 2534 3019 2420 3045 
Q 2306 3072 2169 3072 
Q 1681 3072 1420 2755 
Q 1159 2438 1159 1844 
L 1159 0 
L 581 0 
L 581 3500 
L 1159 3500 
L 1159 2956 
Q 1341 3275 1631 3429 
Q 1922 3584 2338 3584 
Q 2397 3584 2469 3576 
Q 2541 3569 2628 3553 
L 2631 2963 
z
" transform="scale(0.015625)"/>
      <path id="DejaVuSans-3a" d="M 750 794 
L 1409 794 
L 1409 0 
L 750 0 
L 750 794 
z
M 750 3309 
L 1409 3309 
L 1409 2516 
L 750 2516 
L 750 3309 
z
" transform="scale(0.015625)"/>
      <path id="DejaVuSans-62" d="M 3116 1747 
Q 3116 2381 2855 2742 
Q 2594 3103 2138 3103 
Q 1681 3103 1420 2742 
Q 1159 2381 1159 1747 
Q 1159 1113 1420 752 
Q 1681 391 2138 391 
Q 2594 391 2855 752 
Q 3116 1113 3116 1747 
z
M 1159 2969 
Q 1341 3281 1617 3432 
Q 1894 3584 2278 3584 
Q 2916 3584 3314 3078 
Q 3713 2572 3713 1747 
Q 3713 922 3314 415 
Q 2916 -91 2278 -91 
Q 1894 -91 1617 61 
Q 1341 213 1159 525 
L 1159 0 
L 581 0 
L 581 4863 
L 1159 4863 
L 1159 2969 
z
" transform="scale(0.015625)"/>
      <path id="DejaVuSans-61" d="M 2194 1759 
Q 1497 1759 1228 1600 
Q 959 1441 959 1056 
Q 959 750 1161 570 
Q 1363 391 1709 391 
Q 2188 391 2477 730 
Q 2766 1069 2766 1631 
L 2766 1759 
L 2194 1759 
z
M 3341 1997 
L 3341 0 
L 2766 0 
L 2766 531 
Q 2569 213 2275 61 
Q 1981 -91 1556 -91 
Q 1019 -91 701 211 
Q 384 513 384 1019 
Q 384 1609 779 1909 
Q 1175 2209 1959 2209 
L 2766 2209 
L 2766 2266 
Q 2766 2663 2505 2880 
Q 2244 3097 1772 3097 
Q 1472 3097 1187 3025 
Q 903 2953 641 2809 
L 641 3341 
Q 956 3463 1253 3523 
Q 1550 3584 1831 3584 
Q 2591 3584 2966 3190 
Q 3341 2797 3341 1997 
z
" transform="scale(0.015625)"/>
      <path id="DejaVuSans-68" d="M 3513 2113 
L 3513 0 
L 2938 0 
L 2938 2094 
Q 2938 2591 2744 2837 
Q 2550 3084 2163 3084 
Q 1697 3084 1428 2787 
Q 1159 2491 1159 1978 
L 1159 0 
L 581 0 
L 581 4863 
L 1159 4863 
L 1159 2956 
Q 1366 3272 1645 3428 
Q 1925 3584 2291 3584 
Q 2894 3584 3203 3211 
Q 3513 2838 3513 2113 
z
" transform="scale(0.015625)"/>
      <path id="DejaVuSans-70" d="M 1159 525 
L 1159 -1331 
L 581 -1331 
L 581 3500 
L 1159 3500 
L 1159 2969 
Q 1341 3281 1617 3432 
Q 1894 3584 2278 3584 
Q 2916 3584 3314 3078 
Q 3713 2572 3713 1747 
Q 3713 922 3314 415 
Q 2916 -91 2278 -91 
Q 1894 -91 1617 61 
Q 1341 213 1159 525 
z
M 3116 1747 
Q 3116 2381 2855 2742 
Q 2594 3103 2138 3103 
Q 1681 3103 1420 2742 
Q 1159 2381 1159 1747 
Q 1159 1113 1420 752 
Q 1681 391 2138 391 
Q 2594 391 2855 752 
Q 3116 1113 3116 1747 
z
" transform="scale(0.015625)"/>
      <path id="DejaVuSans-28" d="M 1984 4856 
Q 1566 4138 1362 3434 
Q 1159 2731 1159 2009 
Q 1159 1288 1364 580 
Q 1569 -128 1984 -844 
L 1484 -844 
Q 1016 -109 783 600 
Q 550 1309 550 2009 
Q 550 2706 781 3412 
Q 1013 4119 1484 4856 
L 1984 4856 
z
" transform="scale(0.015625)"/>
      <path id="DejaVuSans-58" d="M 403 4666 
L 1081 4666 
L 2241 2931 
L 3406 4666 
L 4084 4666 
L 2584 2425 
L 4184 0 
L 3506 0 
L 2194 1984 
L 872 0 
L 191 0 
L 1856 2491 
L 403 4666 
z
" transform="scale(0.015625)"/>
      <path id="DejaVuSans-4c" d="M 628 4666 
L 1259 4666 
L 1259 531 
L 3531 531 
L 3531 0 
L 628 0 
L 628 4666 
z
" transform="scale(0.015625)"/>
      <path id="DejaVuSans-45" d="M 628 4666 
L 3578 4666 
L 3578 4134 
L 1259 4134 
L 1259 2753 
L 3481 2753 
L 3481 2222 
L 1259 2222 
L 1259 531 
L 3634 531 
L 3634 0 
L 628 0 
L 628 4666 
z
" transform="scale(0.015625)"/>
      <path id="DejaVuSans-4e" d="M 628 4666 
L 1478 4666 
L 3547 763 
L 3547 4666 
L 4159 4666 
L 4159 0 
L 3309 0 
L 1241 3903 
L 1241 0 
L 628 0 
L 628 4666 
z
" transform="scale(0.015625)"/>
      <path id="DejaVuSans-3d" d="M 678 2906 
L 4684 2906 
L 4684 2381 
L 678 2381 
L 678 2906 
z
M 678 1631 
L 4684 1631 
L 4684 1100 
L 678 1100 
L 678 1631 
z
" transform="scale(0.015625)"/>
      <path id="DejaVuSans-33" d="M 2597 2516 
Q 3050 2419 3304 2112 
Q 3559 1806 3559 1356 
Q 3559 666 3084 287 
Q 2609 -91 1734 -91 
Q 1441 -91 1130 -33 
Q 819 25 488 141 
L 488 750 
Q 750 597 1062 519 
Q 1375 441 1716 441 
Q 2309 441 2620 675 
Q 2931 909 2931 1356 
Q 2931 1769 2642 2001 
Q 2353 2234 1838 2234 
L 1294 2234 
L 1294 2753 
L 1863 2753 
Q 2328 2753 2575 2939 
Q 2822 3125 2822 3475 
Q 2822 3834 2567 4026 
Q 2313 4219 1838 4219 
Q 1578 4219 1281 4162 
Q 984 4106 628 3988 
L 628 4550 
Q 988 4650 1302 4700 
Q 1616 4750 1894 4750 
Q 2613 4750 3031 4423 
Q 3450 4097 3450 3541 
Q 3450 3153 3228 2886 
Q 3006 2619 2597 2516 
z
" transform="scale(0.015625)"/>
      <path id="DejaVuSans-29" d="M 513 4856 
L 1013 4856 
Q 1481 4119 1714 3412 
Q 1947 2706 1947 2009 
Q 1947 1309 1714 600 
Q 1481 -109 1013 -844 
L 513 -844 
Q 928 -128 1133 580 
Q 1338 1288 1338 2009 
Q 1338 2731 1133 3434 
Q 928 4138 513 4856 
z
" transform="scale(0.015625)"/>
     </defs>
     <use xlink:href="#DejaVuSans-53"/>
     <use xlink:href="#DejaVuSans-69" transform="translate(63.476562 0)"/>
     <use xlink:href="#DejaVuSans-6e" transform="translate(91.259766 0)"/>
     <use xlink:href="#DejaVuSans-67" transform="translate(154.638672 0)"/>
     <use xlink:href="#DejaVuSans-6c" transform="translate(218.115234 0)"/>
     <use xlink:href="#DejaVuSans-65" transform="translate(245.898438 0)"/>
     <use xlink:href="#DejaVuSans-2d" transform="translate(307.421875 0)"/>
     <use xlink:href="#DejaVuSans-63" transform="translate(343.505859 0)"/>
     <use xlink:href="#DejaVuSans-79" transform="translate(398.486328 0)"/>
     <use xlink:href="#DejaVuSans-63" transform="translate(457.666016 0)"/>
     <use xlink:href="#DejaVuSans-6c" transform="translate(512.646484 0)"/>
     <use xlink:href="#DejaVuSans-65" transform="translate(540.429688 0)"/>
     <use xlink:href="#DejaVuSans-20" transform="translate(601.953125 0)"/>
     <use xlink:href="#DejaVuSans-63" transform="translate(633.740234 0)"/>
     <use xlink:href="#DejaVuSans-6f" transform="translate(688.720703 0)"/>
     <use xlink:href="#DejaVuSans-72" transform="translate(749.902344 0)"/>
     <use xlink:href="#DejaVuSans-65" transform="translate(788.765625 0)"/>
     <use xlink:href="#DejaVuSans-3a" transform="translate(850.289062 0)"/>
     <use xlink:href="#DejaVuSans-20" transform="translate(883.980469 0)"/>
     <use xlink:href="#DejaVuSans-62" transform="translate(915.767578 0)"/>
     <use xlink:href="#DejaVuSans-72" transform="translate(979.244141 0)"/>
     <use xlink:href="#DejaVuSans-61" transform="translate(1020.357422 0)"/>
     <use xlink:href="#DejaVuSans-6e" transform="translate(1081.636719 0)"/>
     <use xlink:href="#DejaVuSans-63" transform="translate(1145.015625 0)"/>
     <use xlink:href="#DejaVuSans-68" transform="translate(1199.996094 0)"/>
     <use xlink:href="#DejaVuSans-20" transform="translate(1263.375 0)"/>
     <use xlink:href="#DejaVuSans-6c" transform="translate(1295.162109 0)"/>
     <use xlink:href="#DejaVuSans-6f" transform="translate(1322.945312 0)"/>
     <use xlink:href="#DejaVuSans-6f" transform="translate(1384.126953 0)"/>
     <use xlink:href="#DejaVuSans-70" transform="translate(1445.308594 0)"/>
     <use xlink:href="#DejaVuSans-20" transform="translate(1508.785156 0)"/>
     <use xlink:href="#DejaVuSans-28" transform="translate(1540.572266 0)"/>
     <use xlink:href="#DejaVuSans-58" transform="translate(1579.585938 0)"/>
     <use xlink:href="#DejaVuSans-4c" transform="translate(1648.091797 0)"/>
     <use xlink:href="#DejaVuSans-45" transform="translate(1703.804688 0)"/>
     <use xlink:href="#DejaVuSans-4e" transform="translate(1766.988281 0)"/>
     <use xlink:href="#DejaVuSans-20" transform="translate(1841.792969 0)"/>
     <use xlink:href="#DejaVuSans-3d" transform="translate(1873.580078 0)"/>
     <use xlink:href="#DejaVuSans-20" transform="translate(1957.369141 0)"/>
     <use xlink:href="#DejaVuSans-33" transform="translate(1989.15625 0)"/>
     <use xlink:href="#DejaVuSans-32" transform="translate(2052.779297 0)"/>
     <use xlink:href="#DejaVuSans-29" transform="translate(2116.402344 0)"/>
    </g>
   </g>
  </g>
 </g>
 <defs>
  <clipPath id="p84e10d4b99">
   <rect x="7.2" y="33.077969" width="905.997273" height="245.88"/>
  </clipPath>
 </defs>
</svg>
