<?xml version="1.0" encoding="utf-8" standalone="no"?>
<!DOCTYPE svg PUBLIC "-//W3C//DTD SVG 1.1//EN"
  "http://www.w3.org/Graphics/SVG/1.1/DTD/svg11.dtd">
<svg xmlns:xlink="http://www.w3.org/1999/xlink" width="928.8pt" height="315.546406pt" viewBox="0 0 928.8 315.546406" xmlns="http://www.w3.org/2000/svg" version="1.1">
 <metadata>
  <rdf:RDF xmlns:dc="http://purl.org/dc/elements/1.1/" xmlns:cc="http://creativecommons.org/ns#" xmlns:rdf="http://www.w3.org/1999/02/22-rdf-syntax-ns#">
   <cc:Work>
    <dc:type rdf:resource="http://purl.org/dc/dcmitype/StillImage"/>
    <dc:date>2026-07-14T23:53:40.659730</dc:date>
    <dc:format>image/svg+xml</dc:format>
    <dc:creator>
     <cc:Agent>
      <dc:title>Matplotlib v3.10.3, https://matplotlib.org/</dc:title>
     </cc:Agent>
    </dc:creator>
   </cc:Work>
  </rdf:RDF>
 </metadata>
 <defs>
  <style type="text/css">*{stroke-linejoin: round; stroke-linecap: butt}</style>
 </defs>
 <g id="figure_1">
  <g id="patch_1">
   <path d="M 0 315.546406 
L 928.8 315.546406 
L 928.8 0 
L 0 0 
z
" style="fill: #ffffff"/>
  </g>
  <g id="axes_1">
   <g id="patch_2">
    <path d="M 7.2 278.957969 
L 921.6 278.957969 
L 921.6 33.077969 
L 7.2 33.077969 
z
" style="fill: #ffffff"/>
   </g>
   <g id="line2d_1">
    <path d="M 144.36 122.116332 
L 921.6 122.116332 
" clip-path="url(#p88184f9a2e)" style="fill: none; stroke: #dfe6ee; stroke-width: 0.8; stroke-linecap: square"/>
   </g>
   <g id="line2d_2">
    <path d="M 144.36 169.429605 
L 921.6 169.429605 
" clip-path="url(#p88184f9a2e)" style="fill: none; stroke: #dfe6ee; stroke-width: 0.8; stroke-linecap: square"/>
   </g>
   <g id="matplotlib.axis_1">
    <g id="xtick_1">
     <g id="line2d_3">
      <defs>
       <path id="m1e1eb3b363" d="M 0 0 
L 0 3.5 
" style="stroke: #000000; stroke-width: 0.8"/>
      </defs>
      <g>
       <use xlink:href="#m1e1eb3b363" x="167.22" y="278.957969" style="stroke: #000000; stroke-width: 0.8"/>
      </g>
     </g>
     <g id="text_1">
      <!-- 24 -->
      <g transform="translate(161.49375 292.796562) scale(0.09 -0.09)">
       <defs>
        <path id="DejaVuSans-32" d="M 1228 531 
L 3431 531 
L 3431 0 
L 469 0 
L 469 531 
Q 828 903 1448 1529 
Q 2069 2156 2228 2338 
Q 2531 2678 2651 2914 
Q 2772 3150 2772 3378 
Q 2772 3750 2511 3984 
Q 2250 4219 1831 4219 
Q 1534 4219 1204 4116 
Q 875 4013 500 3803 
L 500 4441 
Q 881 4594 1212 4672 
Q 1544 4750 1819 4750 
Q 2544 4750 2975 4387 
Q 3406 4025 3406 3419 
Q 3406 3131 3298 2873 
Q 3191 2616 2906 2266 
Q 2828 2175 2409 1742 
Q 1991 1309 1228 531 
z
" transform="scale(0.015625)"/>
        <path id="DejaVuSans-34" d="M 2419 4116 
L 825 1625 
L 2419 1625 
L 2419 4116 
z
M 2253 4666 
L 3047 4666 
L 3047 1625 
L 3713 1625 
L 3713 1100 
L 3047 1100 
L 3047 0 
L 2419 0 
L 2419 1100 
L 313 1100 
L 313 1709 
L 2253 4666 
z
" transform="scale(0.015625)"/>
       </defs>
       <use xlink:href="#DejaVuSans-32"/>
       <use xlink:href="#DejaVuSans-34" transform="translate(63.623047 0)"/>
      </g>
     </g>
    </g>
    <g id="xtick_2">
     <g id="line2d_4">
      <g>
       <use xlink:href="#m1e1eb3b363" x="350.1" y="278.957969" style="stroke: #000000; stroke-width: 0.8"/>
      </g>
     </g>
     <g id="text_2">
      <!-- 28 -->
      <g transform="translate(344.37375 292.796562) scale(0.09 -0.09)">
       <defs>
        <path id="DejaVuSans-38" d="M 2034 2216 
Q 1584 2216 1326 1975 
Q 1069 1734 1069 1313 
Q 1069 891 1326 650 
Q 1584 409 2034 409 
Q 2484 409 2743 651 
Q 3003 894 3003 1313 
Q 3003 1734 2745 1975 
Q 2488 2216 2034 2216 
z
M 1403 2484 
Q 997 2584 770 2862 
Q 544 3141 544 3541 
Q 544 4100 942 4425 
Q 1341 4750 2034 4750 
Q 2731 4750 3128 4425 
Q 3525 4100 3525 3541 
Q 3525 3141 3298 2862 
Q 3072 2584 2669 2484 
Q 3125 2378 3379 2068 
Q 3634 1759 3634 1313 
Q 3634 634 3220 271 
Q 2806 -91 2034 -91 
Q 1263 -91 848 271 
Q 434 634 434 1313 
Q 434 1759 690 2068 
Q 947 2378 1403 2484 
z
M 1172 3481 
Q 1172 3119 1398 2916 
Q 1625 2713 2034 2713 
Q 2441 2713 2670 2916 
Q 2900 3119 2900 3481 
Q 2900 3844 2670 4047 
Q 2441 4250 2034 4250 
Q 1625 4250 1398 4047 
Q 1172 3844 1172 3481 
z
" transform="scale(0.015625)"/>
       </defs>
       <use xlink:href="#DejaVuSans-32"/>
       <use xlink:href="#DejaVuSans-38" transform="translate(63.623047 0)"/>
      </g>
     </g>
    </g>
    <g id="xtick_3">
     <g id="line2d_5">
      <g>
       <use xlink:href="#m1e1eb3b363" x="532.98" y="278.957969" style="stroke: #000000; stroke-width: 0.8"/>
      </g>
     </g>
     <g id="text_3">
      <!-- 32 -->
      <g transform="translate(527.25375 292.796562) scale(0.09 -0.09)">
       <defs>
        <path id="DejaVuSans-33" d="M 2597 2516 
Q 3050 2419 3304 2112 
Q 3559 1806 3559 1356 
Q 3559 666 3084 287 
Q 2609 -91 1734 -91 
Q 1441 -91 1130 -33 
Q 819 25 488 141 
L 488 750 
Q 750 597 1062 519 
Q 1375 441 1716 441 
Q 2309 441 2620 675 
Q 2931 909 2931 1356 
Q 2931 1769 2642 2001 
Q 2353 2234 1838 2234 
L 1294 2234 
L 1294 2753 
L 1863 2753 
Q 2328 2753 2575 2939 
Q 2822 3125 2822 3475 
Q 2822 3834 2567 4026 
Q 2313 4219 1838 4219 
Q 1578 4219 1281 4162 
Q 984 4106 628 3988 
L 628 4550 
Q 988 4650 1302 4700 
Q 1616 4750 1894 4750 
Q 2613 4750 3031 4423 
Q 3450 4097 3450 3541 
Q 3450 3153 3228 2886 
Q 3006 2619 2597 2516 
z
" transform="scale(0.015625)"/>
       </defs>
       <use xlink:href="#DejaVuSans-33"/>
       <use xlink:href="#DejaVuSans-32" transform="translate(63.623047 0)"/>
      </g>
     </g>
    </g>
    <g id="xtick_4">
     <g id="line2d_6">
      <g>
       <use xlink:href="#m1e1eb3b363" x="715.86" y="278.957969" style="stroke: #000000; stroke-width: 0.8"/>
      </g>
     </g>
     <g id="text_4">
      <!-- 36 -->
      <g transform="translate(710.13375 292.796562) scale(0.09 -0.09)">
       <defs>
        <path id="DejaVuSans-36" d="M 2113 2584 
Q 1688 2584 1439 2293 
Q 1191 2003 1191 1497 
Q 1191 994 1439 701 
Q 1688 409 2113 409 
Q 2538 409 2786 701 
Q 3034 994 3034 1497 
Q 3034 2003 2786 2293 
Q 2538 2584 2113 2584 
z
M 3366 4563 
L 3366 3988 
Q 3128 4100 2886 4159 
Q 2644 4219 2406 4219 
Q 1781 4219 1451 3797 
Q 1122 3375 1075 2522 
Q 1259 2794 1537 2939 
Q 1816 3084 2150 3084 
Q 2853 3084 3261 2657 
Q 3669 2231 3669 1497 
Q 3669 778 3244 343 
Q 2819 -91 2113 -91 
Q 1303 -91 875 529 
Q 447 1150 447 2328 
Q 447 3434 972 4092 
Q 1497 4750 2381 4750 
Q 2619 4750 2861 4703 
Q 3103 4656 3366 4563 
z
" transform="scale(0.015625)"/>
       </defs>
       <use xlink:href="#DejaVuSans-33"/>
       <use xlink:href="#DejaVuSans-36" transform="translate(63.623047 0)"/>
      </g>
     </g>
    </g>
    <g id="xtick_5">
     <g id="line2d_7">
      <g>
       <use xlink:href="#m1e1eb3b363" x="898.74" y="278.957969" style="stroke: #000000; stroke-width: 0.8"/>
      </g>
     </g>
     <g id="text_5">
      <!-- 40 -->
      <g transform="translate(893.01375 292.796562) scale(0.09 -0.09)">
       <defs>
        <path id="DejaVuSans-30" d="M 2034 4250 
Q 1547 4250 1301 3770 
Q 1056 3291 1056 2328 
Q 1056 1369 1301 889 
Q 1547 409 2034 409 
Q 2525 409 2770 889 
Q 3016 1369 3016 2328 
Q 3016 3291 2770 3770 
Q 2525 4250 2034 4250 
z
M 2034 4750 
Q 2819 4750 3233 4129 
Q 3647 3509 3647 2328 
Q 3647 1150 3233 529 
Q 2819 -91 2034 -91 
Q 1250 -91 836 529 
Q 422 1150 422 2328 
Q 422 3509 836 4129 
Q 1250 4750 2034 4750 
z
" transform="scale(0.015625)"/>
       </defs>
       <use xlink:href="#DejaVuSans-34"/>
       <use xlink:href="#DejaVuSans-30" transform="translate(63.623047 0)"/>
      </g>
     </g>
    </g>
    <g id="text_6">
     <!-- clock cycles -->
     <g transform="translate(434.440625 306.266719) scale(0.1 -0.1)">
      <defs>
       <path id="DejaVuSans-63" d="M 3122 3366 
L 3122 2828 
Q 2878 2963 2633 3030 
Q 2388 3097 2138 3097 
Q 1578 3097 1268 2742 
Q 959 2388 959 1747 
Q 959 1106 1268 751 
Q 1578 397 2138 397 
Q 2388 397 2633 464 
Q 2878 531 3122 666 
L 3122 134 
Q 2881 22 2623 -34 
Q 2366 -91 2075 -91 
Q 1284 -91 818 406 
Q 353 903 353 1747 
Q 353 2603 823 3093 
Q 1294 3584 2113 3584 
Q 2378 3584 2631 3529 
Q 2884 3475 3122 3366 
z
" transform="scale(0.015625)"/>
       <path id="DejaVuSans-6c" d="M 603 4863 
L 1178 4863 
L 1178 0 
L 603 0 
L 603 4863 
z
" transform="scale(0.015625)"/>
       <path id="DejaVuSans-6f" d="M 1959 3097 
Q 1497 3097 1228 2736 
Q 959 2375 959 1747 
Q 959 1119 1226 758 
Q 1494 397 1959 397 
Q 2419 397 2687 759 
Q 2956 1122 2956 1747 
Q 2956 2369 2687 2733 
Q 2419 3097 1959 3097 
z
M 1959 3584 
Q 2709 3584 3137 3096 
Q 3566 2609 3566 1747 
Q 3566 888 3137 398 
Q 2709 -91 1959 -91 
Q 1206 -91 779 398 
Q 353 888 353 1747 
Q 353 2609 779 3096 
Q 1206 3584 1959 3584 
z
" transform="scale(0.015625)"/>
       <path id="DejaVuSans-6b" d="M 581 4863 
L 1159 4863 
L 1159 1991 
L 2875 3500 
L 3609 3500 
L 1753 1863 
L 3688 0 
L 2938 0 
L 1159 1709 
L 1159 0 
L 581 0 
L 581 4863 
z
" transform="scale(0.015625)"/>
       <path id="DejaVuSans-20" transform="scale(0.015625)"/>
       <path id="DejaVuSans-79" d="M 2059 -325 
Q 1816 -950 1584 -1140 
Q 1353 -1331 966 -1331 
L 506 -1331 
L 506 -850 
L 844 -850 
Q 1081 -850 1212 -737 
Q 1344 -625 1503 -206 
L 1606 56 
L 191 3500 
L 800 3500 
L 1894 763 
L 2988 3500 
L 3597 3500 
L 2059 -325 
z
" transform="scale(0.015625)"/>
       <path id="DejaVuSans-65" d="M 3597 1894 
L 3597 1613 
L 953 1613 
Q 991 1019 1311 708 
Q 1631 397 2203 397 
Q 2534 397 2845 478 
Q 3156 559 3463 722 
L 3463 178 
Q 3153 47 2828 -22 
Q 2503 -91 2169 -91 
Q 1331 -91 842 396 
Q 353 884 353 1716 
Q 353 2575 817 3079 
Q 1281 3584 2069 3584 
Q 2775 3584 3186 3129 
Q 3597 2675 3597 1894 
z
M 3022 2063 
Q 3016 2534 2758 2815 
Q 2500 3097 2075 3097 
Q 1594 3097 1305 2825 
Q 1016 2553 972 2059 
L 3022 2063 
z
" transform="scale(0.015625)"/>
       <path id="DejaVuSans-73" d="M 2834 3397 
L 2834 2853 
Q 2591 2978 2328 3040 
Q 2066 3103 1784 3103 
Q 1356 3103 1142 2972 
Q 928 2841 928 2578 
Q 928 2378 1081 2264 
Q 1234 2150 1697 2047 
L 1894 2003 
Q 2506 1872 2764 1633 
Q 3022 1394 3022 966 
Q 3022 478 2636 193 
Q 2250 -91 1575 -91 
Q 1294 -91 989 -36 
Q 684 19 347 128 
L 347 722 
Q 666 556 975 473 
Q 1284 391 1588 391 
Q 1994 391 2212 530 
Q 2431 669 2431 922 
Q 2431 1156 2273 1281 
Q 2116 1406 1581 1522 
L 1381 1569 
Q 847 1681 609 1914 
Q 372 2147 372 2553 
Q 372 3047 722 3315 
Q 1072 3584 1716 3584 
Q 2034 3584 2315 3537 
Q 2597 3491 2834 3397 
z
" transform="scale(0.015625)"/>
      </defs>
      <use xlink:href="#DejaVuSans-63"/>
      <use xlink:href="#DejaVuSans-6c" transform="translate(54.980469 0)"/>
      <use xlink:href="#DejaVuSans-6f" transform="translate(82.763672 0)"/>
      <use xlink:href="#DejaVuSans-63" transform="translate(143.945312 0)"/>
      <use xlink:href="#DejaVuSans-6b" transform="translate(198.925781 0)"/>
      <use xlink:href="#DejaVuSans-20" transform="translate(256.835938 0)"/>
      <use xlink:href="#DejaVuSans-63" transform="translate(288.623047 0)"/>
      <use xlink:href="#DejaVuSans-79" transform="translate(343.603516 0)"/>
      <use xlink:href="#DejaVuSans-63" transform="translate(402.783203 0)"/>
      <use xlink:href="#DejaVuSans-6c" transform="translate(457.763672 0)"/>
      <use xlink:href="#DejaVuSans-65" transform="translate(485.546875 0)"/>
      <use xlink:href="#DejaVuSans-73" transform="translate(547.070312 0)"/>
     </g>
    </g>
   </g>
   <g id="matplotlib.axis_2"/>
   <g id="patch_3">
    <path d="M 144.36 278.957969 
L 921.6 278.957969 
" style="fill: none; stroke: #000000; stroke-width: 0.8; stroke-linejoin: miter; stroke-linecap: square"/>
   </g>
   <g id="text_7">
    <!-- pc -->
    <g transform="translate(69.157656 64.455955) scale(0.11 -0.11)">
     <defs>
      <path id="DejaVuSansMono-70" d="M 1172 441 
L 1172 -1331 
L 594 -1331 
L 594 3500 
L 1172 3500 
L 1172 3053 
Q 1316 3313 1555 3448 
Q 1794 3584 2106 3584 
Q 2741 3584 3102 3093 
Q 3463 2603 3463 1734 
Q 3463 881 3100 395 
Q 2738 -91 2106 -91 
Q 1788 -91 1548 45 
Q 1309 181 1172 441 
z
M 2859 1747 
Q 2859 2416 2648 2756 
Q 2438 3097 2022 3097 
Q 1603 3097 1387 2755 
Q 1172 2413 1172 1747 
Q 1172 1084 1387 740 
Q 1603 397 2022 397 
Q 2438 397 2648 737 
Q 2859 1078 2859 1747 
z
" transform="scale(0.015625)"/>
      <path id="DejaVuSansMono-63" d="M 3316 178 
Q 3084 44 2839 -23 
Q 2594 -91 2338 -91 
Q 1525 -91 1067 396 
Q 609 884 609 1747 
Q 609 2609 1067 3096 
Q 1525 3584 2338 3584 
Q 2591 3584 2831 3518 
Q 3072 3453 3316 3316 
L 3316 2713 
Q 3088 2916 2858 3006 
Q 2628 3097 2338 3097 
Q 1797 3097 1506 2747 
Q 1216 2397 1216 1747 
Q 1216 1100 1508 748 
Q 1800 397 2338 397 
Q 2638 397 2875 489 
Q 3113 581 3316 775 
L 3316 178 
z
" transform="scale(0.015625)"/>
     </defs>
     <use xlink:href="#DejaVuSansMono-70"/>
     <use xlink:href="#DejaVuSansMono-63" transform="translate(60.205078 0)"/>
    </g>
   </g>
   <g id="line2d_8">
    <path d="M 144.36 47.979787 
L 464.4 47.979787 
" clip-path="url(#p88184f9a2e)" style="fill: none; stroke: #08306b; stroke-width: 1.7; stroke-linecap: square"/>
   </g>
   <g id="line2d_9">
    <path d="M 144.36 74.80306 
L 464.4 74.80306 
" clip-path="url(#p88184f9a2e)" style="fill: none; stroke: #08306b; stroke-width: 1.7; stroke-linecap: square"/>
   </g>
   <g id="line2d_10">
    <path d="M 144.36 74.80306 
L 144.36 47.979787 
" clip-path="url(#p88184f9a2e)" style="fill: none; stroke: #08306b; stroke-width: 1.2; stroke-linecap: square"/>
   </g>
   <g id="line2d_11">
    <path d="M 464.4 74.80306 
L 464.4 47.979787 
" clip-path="url(#p88184f9a2e)" style="fill: none; stroke: #08306b; stroke-width: 1.2; stroke-linecap: square"/>
   </g>
   <g id="text_8">
    <!-- 0x28 -->
    <g style="fill: #08306b" transform="translate(293.543437 63.898767) scale(0.09 -0.09)">
     <defs>
      <path id="DejaVuSansMono-30" d="M 1509 2344 
Q 1509 2516 1629 2641 
Q 1750 2766 1919 2766 
Q 2094 2766 2219 2641 
Q 2344 2516 2344 2344 
Q 2344 2169 2220 2047 
Q 2097 1925 1919 1925 
Q 1744 1925 1626 2044 
Q 1509 2163 1509 2344 
z
M 1925 4250 
Q 1484 4250 1267 3775 
Q 1050 3300 1050 2328 
Q 1050 1359 1267 884 
Q 1484 409 1925 409 
Q 2369 409 2586 884 
Q 2803 1359 2803 2328 
Q 2803 3300 2586 3775 
Q 2369 4250 1925 4250 
z
M 1925 4750 
Q 2672 4750 3055 4137 
Q 3438 3525 3438 2328 
Q 3438 1134 3055 521 
Q 2672 -91 1925 -91 
Q 1178 -91 797 521 
Q 416 1134 416 2328 
Q 416 3525 797 4137 
Q 1178 4750 1925 4750 
z
" transform="scale(0.015625)"/>
      <path id="DejaVuSansMono-78" d="M 3494 3500 
L 2241 1825 
L 3616 0 
L 2950 0 
L 1925 1403 
L 903 0 
L 238 0 
L 1613 1825 
L 359 3500 
L 997 3500 
L 1925 2234 
L 2847 3500 
L 3494 3500 
z
" transform="scale(0.015625)"/>
      <path id="DejaVuSansMono-32" d="M 1166 531 
L 3309 531 
L 3309 0 
L 475 0 
L 475 531 
Q 1059 1147 1496 1619 
Q 1934 2091 2100 2284 
Q 2413 2666 2522 2902 
Q 2631 3138 2631 3384 
Q 2631 3775 2401 3997 
Q 2172 4219 1772 4219 
Q 1488 4219 1175 4116 
Q 863 4013 513 3803 
L 513 4441 
Q 834 4594 1145 4672 
Q 1456 4750 1759 4750 
Q 2444 4750 2861 4386 
Q 3278 4022 3278 3431 
Q 3278 3131 3139 2831 
Q 3000 2531 2688 2169 
Q 2513 1966 2180 1606 
Q 1847 1247 1166 531 
z
" transform="scale(0.015625)"/>
      <path id="DejaVuSansMono-38" d="M 1925 2216 
Q 1503 2216 1273 1980 
Q 1044 1744 1044 1313 
Q 1044 881 1276 642 
Q 1509 403 1925 403 
Q 2350 403 2579 639 
Q 2809 875 2809 1313 
Q 2809 1741 2576 1978 
Q 2344 2216 1925 2216 
z
M 1375 2478 
Q 972 2581 745 2862 
Q 519 3144 519 3541 
Q 519 4097 897 4423 
Q 1275 4750 1925 4750 
Q 2578 4750 2956 4423 
Q 3334 4097 3334 3541 
Q 3334 3144 3107 2862 
Q 2881 2581 2478 2478 
Q 2947 2375 3195 2062 
Q 3444 1750 3444 1253 
Q 3444 622 3041 265 
Q 2638 -91 1925 -91 
Q 1213 -91 811 264 
Q 409 619 409 1247 
Q 409 1747 657 2061 
Q 906 2375 1375 2478 
z
M 1147 3481 
Q 1147 3106 1347 2909 
Q 1547 2713 1925 2713 
Q 2306 2713 2506 2909 
Q 2706 3106 2706 3481 
Q 2706 3863 2507 4063 
Q 2309 4263 1925 4263 
Q 1547 4263 1347 4061 
Q 1147 3859 1147 3481 
z
" transform="scale(0.015625)"/>
     </defs>
     <use xlink:href="#DejaVuSansMono-30"/>
     <use xlink:href="#DejaVuSansMono-78" transform="translate(60.205078 0)"/>
     <use xlink:href="#DejaVuSansMono-32" transform="translate(120.410156 0)"/>
     <use xlink:href="#DejaVuSansMono-38" transform="translate(180.615234 0)"/>
    </g>
   </g>
   <g id="line2d_12">
    <path d="M 464.4 47.979787 
L 510.12 47.979787 
" clip-path="url(#p88184f9a2e)" style="fill: none; stroke: #08306b; stroke-width: 1.7; stroke-linecap: square"/>
   </g>
   <g id="line2d_13">
    <path d="M 464.4 74.80306 
L 510.12 74.80306 
" clip-path="url(#p88184f9a2e)" style="fill: none; stroke: #08306b; stroke-width: 1.7; stroke-linecap: square"/>
   </g>
   <g id="line2d_14">
    <path d="M 464.4 74.80306 
L 464.4 47.979787 
" clip-path="url(#p88184f9a2e)" style="fill: none; stroke: #08306b; stroke-width: 1.2; stroke-linecap: square"/>
   </g>
   <g id="line2d_15">
    <path d="M 510.12 74.80306 
L 510.12 47.979787 
" clip-path="url(#p88184f9a2e)" style="fill: none; stroke: #08306b; stroke-width: 1.2; stroke-linecap: square"/>
   </g>
   <g id="text_9">
    <!-- 0x2C -->
    <g style="fill: #08306b" transform="translate(476.423437 63.898767) scale(0.09 -0.09)">
     <defs>
      <path id="DejaVuSansMono-43" d="M 3353 166 
Q 3113 38 2859 -26 
Q 2606 -91 2322 -91 
Q 1425 -91 929 543 
Q 434 1178 434 2328 
Q 434 3472 932 4111 
Q 1431 4750 2322 4750 
Q 2606 4750 2859 4686 
Q 3113 4622 3353 4494 
L 3353 3847 
Q 3122 4038 2856 4138 
Q 2591 4238 2322 4238 
Q 1706 4238 1400 3763 
Q 1094 3288 1094 2328 
Q 1094 1372 1400 897 
Q 1706 422 2322 422 
Q 2597 422 2861 522 
Q 3125 622 3353 813 
L 3353 166 
z
" transform="scale(0.015625)"/>
     </defs>
     <use xlink:href="#DejaVuSansMono-30"/>
     <use xlink:href="#DejaVuSansMono-78" transform="translate(60.205078 0)"/>
     <use xlink:href="#DejaVuSansMono-32" transform="translate(120.410156 0)"/>
     <use xlink:href="#DejaVuSansMono-43" transform="translate(180.615234 0)"/>
    </g>
   </g>
   <g id="line2d_16">
    <path d="M 510.12 47.979787 
L 921.6 47.979787 
" clip-path="url(#p88184f9a2e)" style="fill: none; stroke: #08306b; stroke-width: 1.7; stroke-linecap: square"/>
   </g>
   <g id="line2d_17">
    <path d="M 510.12 74.80306 
L 921.6 74.80306 
" clip-path="url(#p88184f9a2e)" style="fill: none; stroke: #08306b; stroke-width: 1.7; stroke-linecap: square"/>
   </g>
   <g id="line2d_18">
    <path d="M 510.12 74.80306 
L 510.12 47.979787 
" clip-path="url(#p88184f9a2e)" style="fill: none; stroke: #08306b; stroke-width: 1.2; stroke-linecap: square"/>
   </g>
   <g id="line2d_19">
    <path d="M 921.6 74.80306 
L 921.6 47.979787 
" clip-path="url(#p88184f9a2e)" style="fill: none; stroke: #08306b; stroke-width: 1.2; stroke-linecap: square"/>
   </g>
   <g id="text_10">
    <!-- 0x30 -->
    <g style="fill: #08306b" transform="translate(705.023438 63.898767) scale(0.09 -0.09)">
     <defs>
      <path id="DejaVuSansMono-33" d="M 2425 2497 
Q 2884 2375 3128 2064 
Q 3372 1753 3372 1288 
Q 3372 644 2939 276 
Q 2506 -91 1741 -91 
Q 1419 -91 1084 -31 
Q 750 28 428 141 
L 428 769 
Q 747 603 1056 522 
Q 1366 441 1672 441 
Q 2191 441 2469 675 
Q 2747 909 2747 1350 
Q 2747 1756 2469 1995 
Q 2191 2234 1716 2234 
L 1234 2234 
L 1234 2753 
L 1716 2753 
Q 2150 2753 2394 2943 
Q 2638 3134 2638 3475 
Q 2638 3834 2411 4026 
Q 2184 4219 1766 4219 
Q 1488 4219 1191 4156 
Q 894 4094 569 3969 
L 569 4550 
Q 947 4650 1242 4700 
Q 1538 4750 1766 4750 
Q 2447 4750 2855 4408 
Q 3263 4066 3263 3500 
Q 3263 3116 3048 2859 
Q 2834 2603 2425 2497 
z
" transform="scale(0.015625)"/>
     </defs>
     <use xlink:href="#DejaVuSansMono-30"/>
     <use xlink:href="#DejaVuSansMono-78" transform="translate(60.205078 0)"/>
     <use xlink:href="#DejaVuSansMono-33" transform="translate(120.410156 0)"/>
     <use xlink:href="#DejaVuSansMono-30" transform="translate(180.615234 0)"/>
    </g>
   </g>
   <g id="text_11">
    <!-- timer_irq -->
    <g transform="translate(45.979453 111.58704) scale(0.11 -0.11)">
     <defs>
      <path id="DejaVuSansMono-74" d="M 1919 4494 
L 1919 3500 
L 3225 3500 
L 3225 3053 
L 1919 3053 
L 1919 1153 
Q 1919 766 2066 612 
Q 2213 459 2578 459 
L 3225 459 
L 3225 0 
L 2522 0 
Q 1875 0 1609 259 
Q 1344 519 1344 1153 
L 1344 3053 
L 409 3053 
L 409 3500 
L 1344 3500 
L 1344 4494 
L 1919 4494 
z
" transform="scale(0.015625)"/>
      <path id="DejaVuSansMono-69" d="M 800 3500 
L 2272 3500 
L 2272 447 
L 3413 447 
L 3413 0 
L 556 0 
L 556 447 
L 1697 447 
L 1697 3053 
L 800 3053 
L 800 3500 
z
M 1697 4863 
L 2272 4863 
L 2272 4134 
L 1697 4134 
L 1697 4863 
z
" transform="scale(0.015625)"/>
      <path id="DejaVuSansMono-6d" d="M 2113 3144 
Q 2219 3369 2383 3476 
Q 2547 3584 2778 3584 
Q 3200 3584 3373 3257 
Q 3547 2931 3547 2028 
L 3547 0 
L 3022 0 
L 3022 2003 
Q 3022 2744 2939 2923 
Q 2856 3103 2638 3103 
Q 2388 3103 2295 2911 
Q 2203 2719 2203 2003 
L 2203 0 
L 1678 0 
L 1678 2003 
Q 1678 2753 1589 2928 
Q 1500 3103 1269 3103 
Q 1041 3103 952 2911 
Q 863 2719 863 2003 
L 863 0 
L 341 0 
L 341 3500 
L 863 3500 
L 863 3200 
Q 966 3388 1120 3486 
Q 1275 3584 1472 3584 
Q 1709 3584 1867 3475 
Q 2025 3366 2113 3144 
z
" transform="scale(0.015625)"/>
      <path id="DejaVuSansMono-65" d="M 3475 1894 
L 3475 1613 
L 984 1613 
L 984 1594 
Q 984 1022 1282 709 
Q 1581 397 2125 397 
Q 2400 397 2700 484 
Q 3000 572 3341 750 
L 3341 178 
Q 3013 44 2708 -23 
Q 2403 -91 2119 -91 
Q 1303 -91 843 398 
Q 384 888 384 1747 
Q 384 2584 834 3084 
Q 1284 3584 2034 3584 
Q 2703 3584 3089 3131 
Q 3475 2678 3475 1894 
z
M 2900 2063 
Q 2888 2569 2661 2833 
Q 2434 3097 2009 3097 
Q 1594 3097 1325 2822 
Q 1056 2547 1006 2059 
L 2900 2063 
z
" transform="scale(0.015625)"/>
      <path id="DejaVuSansMono-72" d="M 3609 2778 
Q 3425 2922 3234 2987 
Q 3044 3053 2816 3053 
Q 2278 3053 1993 2715 
Q 1709 2378 1709 1741 
L 1709 0 
L 1131 0 
L 1131 3500 
L 1709 3500 
L 1709 2816 
Q 1853 3188 2151 3386 
Q 2450 3584 2859 3584 
Q 3072 3584 3256 3531 
Q 3441 3478 3609 3366 
L 3609 2778 
z
" transform="scale(0.015625)"/>
      <path id="DejaVuSansMono-5f" d="M 3853 -1259 
L 3853 -1509 
L 0 -1509 
L 0 -1259 
L 3853 -1259 
z
" transform="scale(0.015625)"/>
      <path id="DejaVuSansMono-71" d="M 1038 1734 
Q 1038 1066 1248 725 
Q 1459 384 1875 384 
Q 2291 384 2505 726 
Q 2719 1069 2719 1734 
Q 2719 2400 2505 2742 
Q 2291 3084 1875 3084 
Q 1459 3084 1248 2743 
Q 1038 2403 1038 1734 
z
M 2719 434 
Q 2578 175 2339 36 
Q 2100 -103 1784 -103 
Q 1156 -103 792 383 
Q 428 869 428 1722 
Q 428 2591 790 3081 
Q 1153 3572 1784 3572 
Q 2097 3572 2336 3436 
Q 2575 3300 2719 3041 
L 2719 3488 
L 3297 3488 
L 3297 -1344 
L 2719 -1344 
L 2719 434 
z
" transform="scale(0.015625)"/>
     </defs>
     <use xlink:href="#DejaVuSansMono-74"/>
     <use xlink:href="#DejaVuSansMono-69" transform="translate(60.205078 0)"/>
     <use xlink:href="#DejaVuSansMono-6d" transform="translate(120.410156 0)"/>
     <use xlink:href="#DejaVuSansMono-65" transform="translate(180.615234 0)"/>
     <use xlink:href="#DejaVuSansMono-72" transform="translate(240.820312 0)"/>
     <use xlink:href="#DejaVuSansMono-5f" transform="translate(301.025391 0)"/>
     <use xlink:href="#DejaVuSansMono-69" transform="translate(361.230469 0)"/>
     <use xlink:href="#DejaVuSansMono-72" transform="translate(421.435547 0)"/>
     <use xlink:href="#DejaVuSansMono-71" transform="translate(481.640625 0)"/>
    </g>
   </g>
   <g id="line2d_20">
    <path d="M 144.36 122.116332 
L 190.08 122.116332 
L 190.08 122.116332 
L 235.8 122.116332 
L 235.8 122.116332 
L 281.52 122.116332 
L 281.52 122.116332 
L 327.24 122.116332 
L 327.24 122.116332 
L 372.96 122.116332 
L 372.96 122.116332 
L 418.68 122.116332 
L 418.68 95.29306 
L 464.4 95.29306 
L 464.4 95.29306 
L 510.12 95.29306 
L 510.12 95.29306 
L 555.84 95.29306 
L 555.84 95.29306 
L 601.56 95.29306 
L 601.56 95.29306 
L 647.28 95.29306 
L 647.28 95.29306 
L 693 95.29306 
L 693 95.29306 
L 738.72 95.29306 
L 738.72 95.29306 
L 784.44 95.29306 
L 784.44 95.29306 
L 830.16 95.29306 
L 830.16 95.29306 
L 875.88 95.29306 
L 875.88 95.29306 
L 921.6 95.29306 
L 921.6 95.29306 
" clip-path="url(#p88184f9a2e)" style="fill: none; stroke: #08306b; stroke-width: 1.8; stroke-linecap: square"/>
   </g>
   <g id="text_12">
    <!-- trap_taken -->
    <g transform="translate(42.668281 158.900313) scale(0.11 -0.11)">
     <defs>
      <path id="DejaVuSansMono-61" d="M 2194 1759 
L 2003 1759 
Q 1500 1759 1245 1582 
Q 991 1406 991 1056 
Q 991 741 1181 566 
Q 1372 391 1709 391 
Q 2184 391 2456 720 
Q 2728 1050 2731 1631 
L 2731 1759 
L 2194 1759 
z
M 3309 1997 
L 3309 0 
L 2731 0 
L 2731 519 
Q 2547 206 2267 57 
Q 1988 -91 1588 -91 
Q 1053 -91 734 211 
Q 416 513 416 1019 
Q 416 1603 808 1906 
Q 1200 2209 1959 2209 
L 2731 2209 
L 2731 2300 
Q 2728 2719 2518 2908 
Q 2309 3097 1850 3097 
Q 1556 3097 1256 3012 
Q 956 2928 672 2766 
L 672 3341 
Q 991 3463 1283 3523 
Q 1575 3584 1850 3584 
Q 2284 3584 2592 3456 
Q 2900 3328 3091 3072 
Q 3209 2916 3259 2686 
Q 3309 2456 3309 1997 
z
" transform="scale(0.015625)"/>
      <path id="DejaVuSansMono-6b" d="M 738 4863 
L 1331 4863 
L 1331 2047 
L 2841 3500 
L 3541 3500 
L 2163 2181 
L 3756 0 
L 3053 0 
L 1759 1806 
L 1331 1403 
L 1331 0 
L 738 0 
L 738 4863 
z
" transform="scale(0.015625)"/>
      <path id="DejaVuSansMono-6e" d="M 3284 2169 
L 3284 0 
L 2706 0 
L 2706 2169 
Q 2706 2641 2540 2862 
Q 2375 3084 2022 3084 
Q 1619 3084 1401 2798 
Q 1184 2513 1184 1978 
L 1184 0 
L 609 0 
L 609 3500 
L 1184 3500 
L 1184 2975 
Q 1338 3275 1600 3429 
Q 1863 3584 2222 3584 
Q 2756 3584 3020 3232 
Q 3284 2881 3284 2169 
z
" transform="scale(0.015625)"/>
     </defs>
     <use xlink:href="#DejaVuSansMono-74"/>
     <use xlink:href="#DejaVuSansMono-72" transform="translate(60.205078 0)"/>
     <use xlink:href="#DejaVuSansMono-61" transform="translate(120.410156 0)"/>
     <use xlink:href="#DejaVuSansMono-70" transform="translate(180.615234 0)"/>
     <use xlink:href="#DejaVuSansMono-5f" transform="translate(240.820312 0)"/>
     <use xlink:href="#DejaVuSansMono-74" transform="translate(301.025391 0)"/>
     <use xlink:href="#DejaVuSansMono-61" transform="translate(361.230469 0)"/>
     <use xlink:href="#DejaVuSansMono-6b" transform="translate(421.435547 0)"/>
     <use xlink:href="#DejaVuSansMono-65" transform="translate(481.640625 0)"/>
     <use xlink:href="#DejaVuSansMono-6e" transform="translate(541.845703 0)"/>
    </g>
   </g>
   <g id="line2d_21">
    <path d="M 144.36 169.429605 
L 190.08 169.429605 
L 190.08 169.429605 
L 235.8 169.429605 
L 235.8 169.429605 
L 281.52 169.429605 
L 281.52 169.429605 
L 327.24 169.429605 
L 327.24 169.429605 
L 372.96 169.429605 
L 372.96 169.429605 
L 418.68 169.429605 
L 418.68 142.606332 
L 464.4 142.606332 
L 464.4 169.429605 
L 510.12 169.429605 
L 510.12 169.429605 
L 555.84 169.429605 
L 555.84 169.429605 
L 601.56 169.429605 
L 601.56 169.429605 
L 647.28 169.429605 
L 647.28 169.429605 
L 693 169.429605 
L 693 169.429605 
L 738.72 169.429605 
L 738.72 169.429605 
L 784.44 169.429605 
L 784.44 169.429605 
L 830.16 169.429605 
L 830.16 169.429605 
L 875.88 169.429605 
L 875.88 169.429605 
L 921.6 169.429605 
L 921.6 169.429605 
" clip-path="url(#p88184f9a2e)" style="fill: none; stroke: #08306b; stroke-width: 1.8; stroke-linecap: square"/>
   </g>
   <g id="text_13">
    <!-- mcause -->
    <g transform="translate(55.912969 206.395773) scale(0.11 -0.11)">
     <defs>
      <path id="DejaVuSansMono-75" d="M 609 1325 
L 609 3494 
L 1184 3494 
L 1184 1325 
Q 1184 853 1351 631 
Q 1519 409 1869 409 
Q 2275 409 2490 695 
Q 2706 981 2706 1516 
L 2706 3494 
L 3284 3494 
L 3284 0 
L 2706 0 
L 2706 525 
Q 2553 222 2289 65 
Q 2025 -91 1672 -91 
Q 1134 -91 871 261 
Q 609 613 609 1325 
z
" transform="scale(0.015625)"/>
      <path id="DejaVuSansMono-73" d="M 3041 3378 
L 3041 2816 
Q 2794 2959 2544 3031 
Q 2294 3103 2034 3103 
Q 1644 3103 1451 2976 
Q 1259 2850 1259 2591 
Q 1259 2356 1403 2240 
Q 1547 2125 2119 2016 
L 2350 1972 
Q 2778 1891 2998 1647 
Q 3219 1403 3219 1013 
Q 3219 494 2850 201 
Q 2481 -91 1825 -91 
Q 1566 -91 1281 -36 
Q 997 19 666 128 
L 666 722 
Q 988 556 1281 473 
Q 1575 391 1838 391 
Q 2219 391 2428 545 
Q 2638 700 2638 978 
Q 2638 1378 1872 1531 
L 1847 1538 
L 1631 1581 
Q 1134 1678 906 1908 
Q 678 2138 678 2534 
Q 678 3038 1018 3311 
Q 1359 3584 1991 3584 
Q 2272 3584 2531 3532 
Q 2791 3481 3041 3378 
z
" transform="scale(0.015625)"/>
     </defs>
     <use xlink:href="#DejaVuSansMono-6d"/>
     <use xlink:href="#DejaVuSansMono-63" transform="translate(60.205078 0)"/>
     <use xlink:href="#DejaVuSansMono-61" transform="translate(120.410156 0)"/>
     <use xlink:href="#DejaVuSansMono-75" transform="translate(180.615234 0)"/>
     <use xlink:href="#DejaVuSansMono-73" transform="translate(240.820312 0)"/>
     <use xlink:href="#DejaVuSansMono-65" transform="translate(301.025391 0)"/>
    </g>
   </g>
   <g id="line2d_22">
    <path d="M 144.36 189.919605 
L 464.4 189.919605 
" clip-path="url(#p88184f9a2e)" style="fill: none; stroke: #08306b; stroke-width: 1.7; stroke-linecap: square"/>
   </g>
   <g id="line2d_23">
    <path d="M 144.36 216.742878 
L 464.4 216.742878 
" clip-path="url(#p88184f9a2e)" style="fill: none; stroke: #08306b; stroke-width: 1.7; stroke-linecap: square"/>
   </g>
   <g id="line2d_24">
    <path d="M 144.36 216.742878 
L 144.36 189.919605 
" clip-path="url(#p88184f9a2e)" style="fill: none; stroke: #08306b; stroke-width: 1.2; stroke-linecap: square"/>
   </g>
   <g id="line2d_25">
    <path d="M 464.4 216.742878 
L 464.4 189.919605 
" clip-path="url(#p88184f9a2e)" style="fill: none; stroke: #08306b; stroke-width: 1.2; stroke-linecap: square"/>
   </g>
   <g id="text_14">
    <!-- 0x0 -->
    <g style="fill: #08306b" transform="translate(296.252578 205.838585) scale(0.09 -0.09)">
     <use xlink:href="#DejaVuSansMono-30"/>
     <use xlink:href="#DejaVuSansMono-78" transform="translate(60.205078 0)"/>
     <use xlink:href="#DejaVuSansMono-30" transform="translate(120.410156 0)"/>
    </g>
   </g>
   <g id="line2d_26">
    <path d="M 464.4 189.919605 
L 921.6 189.919605 
" clip-path="url(#p88184f9a2e)" style="fill: none; stroke: #08306b; stroke-width: 1.7; stroke-linecap: square"/>
   </g>
   <g id="line2d_27">
    <path d="M 464.4 216.742878 
L 921.6 216.742878 
" clip-path="url(#p88184f9a2e)" style="fill: none; stroke: #08306b; stroke-width: 1.7; stroke-linecap: square"/>
   </g>
   <g id="line2d_28">
    <path d="M 464.4 216.742878 
L 464.4 189.919605 
" clip-path="url(#p88184f9a2e)" style="fill: none; stroke: #08306b; stroke-width: 1.2; stroke-linecap: square"/>
   </g>
   <g id="line2d_29">
    <path d="M 921.6 216.742878 
L 921.6 189.919605 
" clip-path="url(#p88184f9a2e)" style="fill: none; stroke: #08306b; stroke-width: 1.2; stroke-linecap: square"/>
   </g>
   <g id="text_15">
    <!-- 0x80000007 -->
    <g style="fill: #08306b" transform="translate(665.908594 205.838585) scale(0.09 -0.09)">
     <defs>
      <path id="DejaVuSansMono-37" d="M 434 4666 
L 3372 4666 
L 3372 4397 
L 1703 0 
L 1044 0 
L 2669 4134 
L 434 4134 
L 434 4666 
z
" transform="scale(0.015625)"/>
     </defs>
     <use xlink:href="#DejaVuSansMono-30"/>
     <use xlink:href="#DejaVuSansMono-78" transform="translate(60.205078 0)"/>
     <use xlink:href="#DejaVuSansMono-38" transform="translate(120.410156 0)"/>
     <use xlink:href="#DejaVuSansMono-30" transform="translate(180.615234 0)"/>
     <use xlink:href="#DejaVuSansMono-30" transform="translate(240.820312 0)"/>
     <use xlink:href="#DejaVuSansMono-30" transform="translate(301.025391 0)"/>
     <use xlink:href="#DejaVuSansMono-30" transform="translate(361.230469 0)"/>
     <use xlink:href="#DejaVuSansMono-30" transform="translate(421.435547 0)"/>
     <use xlink:href="#DejaVuSansMono-30" transform="translate(481.640625 0)"/>
     <use xlink:href="#DejaVuSansMono-37" transform="translate(541.845703 0)"/>
    </g>
   </g>
   <g id="text_16">
    <!-- mepc -->
    <g transform="translate(62.535313 253.709045) scale(0.11 -0.11)">
     <use xlink:href="#DejaVuSansMono-6d"/>
     <use xlink:href="#DejaVuSansMono-65" transform="translate(60.205078 0)"/>
     <use xlink:href="#DejaVuSansMono-70" transform="translate(120.410156 0)"/>
     <use xlink:href="#DejaVuSansMono-63" transform="translate(180.615234 0)"/>
    </g>
   </g>
   <g id="line2d_30">
    <path d="M 144.36 237.232878 
L 464.4 237.232878 
" clip-path="url(#p88184f9a2e)" style="fill: none; stroke: #08306b; stroke-width: 1.7; stroke-linecap: square"/>
   </g>
   <g id="line2d_31">
    <path d="M 144.36 264.056151 
L 464.4 264.056151 
" clip-path="url(#p88184f9a2e)" style="fill: none; stroke: #08306b; stroke-width: 1.7; stroke-linecap: square"/>
   </g>
   <g id="line2d_32">
    <path d="M 144.36 264.056151 
L 144.36 237.232878 
" clip-path="url(#p88184f9a2e)" style="fill: none; stroke: #08306b; stroke-width: 1.2; stroke-linecap: square"/>
   </g>
   <g id="line2d_33">
    <path d="M 464.4 264.056151 
L 464.4 237.232878 
" clip-path="url(#p88184f9a2e)" style="fill: none; stroke: #08306b; stroke-width: 1.2; stroke-linecap: square"/>
   </g>
   <g id="text_17">
    <!-- 0x0 -->
    <g style="fill: #08306b" transform="translate(296.252578 253.151858) scale(0.09 -0.09)">
     <use xlink:href="#DejaVuSansMono-30"/>
     <use xlink:href="#DejaVuSansMono-78" transform="translate(60.205078 0)"/>
     <use xlink:href="#DejaVuSansMono-30" transform="translate(120.410156 0)"/>
    </g>
   </g>
   <g id="line2d_34">
    <path d="M 464.4 237.232878 
L 921.6 237.232878 
" clip-path="url(#p88184f9a2e)" style="fill: none; stroke: #08306b; stroke-width: 1.7; stroke-linecap: square"/>
   </g>
   <g id="line2d_35">
    <path d="M 464.4 264.056151 
L 921.6 264.056151 
" clip-path="url(#p88184f9a2e)" style="fill: none; stroke: #08306b; stroke-width: 1.7; stroke-linecap: square"/>
   </g>
   <g id="line2d_36">
    <path d="M 464.4 264.056151 
L 464.4 237.232878 
" clip-path="url(#p88184f9a2e)" style="fill: none; stroke: #08306b; stroke-width: 1.2; stroke-linecap: square"/>
   </g>
   <g id="line2d_37">
    <path d="M 921.6 264.056151 
L 921.6 237.232878 
" clip-path="url(#p88184f9a2e)" style="fill: none; stroke: #08306b; stroke-width: 1.2; stroke-linecap: square"/>
   </g>
   <g id="text_18">
    <!-- 0x28 -->
    <g style="fill: #08306b" transform="translate(682.163437 253.151858) scale(0.09 -0.09)">
     <use xlink:href="#DejaVuSansMono-30"/>
     <use xlink:href="#DejaVuSansMono-78" transform="translate(60.205078 0)"/>
     <use xlink:href="#DejaVuSansMono-32" transform="translate(120.410156 0)"/>
     <use xlink:href="#DejaVuSansMono-38" transform="translate(180.615234 0)"/>
    </g>
   </g>
   <g id="text_19">
    <!-- Machine Timer Trap -->
    <g transform="translate(400.689844 17.077969) scale(0.13 -0.13)">
     <defs>
      <path id="DejaVuSans-4d" d="M 628 4666 
L 1569 4666 
L 2759 1491 
L 3956 4666 
L 4897 4666 
L 4897 0 
L 4281 0 
L 4281 4097 
L 3078 897 
L 2444 897 
L 1241 4097 
L 1241 0 
L 628 0 
L 628 4666 
z
" transform="scale(0.015625)"/>
      <path id="DejaVuSans-61" d="M 2194 1759 
Q 1497 1759 1228 1600 
Q 959 1441 959 1056 
Q 959 750 1161 570 
Q 1363 391 1709 391 
Q 2188 391 2477 730 
Q 2766 1069 2766 1631 
L 2766 1759 
L 2194 1759 
z
M 3341 1997 
L 3341 0 
L 2766 0 
L 2766 531 
Q 2569 213 2275 61 
Q 1981 -91 1556 -91 
Q 1019 -91 701 211 
Q 384 513 384 1019 
Q 384 1609 779 1909 
Q 1175 2209 1959 2209 
L 2766 2209 
L 2766 2266 
Q 2766 2663 2505 2880 
Q 2244 3097 1772 3097 
Q 1472 3097 1187 3025 
Q 903 2953 641 2809 
L 641 3341 
Q 956 3463 1253 3523 
Q 1550 3584 1831 3584 
Q 2591 3584 2966 3190 
Q 3341 2797 3341 1997 
z
" transform="scale(0.015625)"/>
      <path id="DejaVuSans-68" d="M 3513 2113 
L 3513 0 
L 2938 0 
L 2938 2094 
Q 2938 2591 2744 2837 
Q 2550 3084 2163 3084 
Q 1697 3084 1428 2787 
Q 1159 2491 1159 1978 
L 1159 0 
L 581 0 
L 581 4863 
L 1159 4863 
L 1159 2956 
Q 1366 3272 1645 3428 
Q 1925 3584 2291 3584 
Q 2894 3584 3203 3211 
Q 3513 2838 3513 2113 
z
" transform="scale(0.015625)"/>
      <path id="DejaVuSans-69" d="M 603 3500 
L 1178 3500 
L 1178 0 
L 603 0 
L 603 3500 
z
M 603 4863 
L 1178 4863 
L 1178 4134 
L 603 4134 
L 603 4863 
z
" transform="scale(0.015625)"/>
      <path id="DejaVuSans-6e" d="M 3513 2113 
L 3513 0 
L 2938 0 
L 2938 2094 
Q 2938 2591 2744 2837 
Q 2550 3084 2163 3084 
Q 1697 3084 1428 2787 
Q 1159 2491 1159 1978 
L 1159 0 
L 581 0 
L 581 3500 
L 1159 3500 
L 1159 2956 
Q 1366 3272 1645 3428 
Q 1925 3584 2291 3584 
Q 2894 3584 3203 3211 
Q 3513 2838 3513 2113 
z
" transform="scale(0.015625)"/>
      <path id="DejaVuSans-54" d="M -19 4666 
L 3928 4666 
L 3928 4134 
L 2272 4134 
L 2272 0 
L 1638 0 
L 1638 4134 
L -19 4134 
L -19 4666 
z
" transform="scale(0.015625)"/>
      <path id="DejaVuSans-6d" d="M 3328 2828 
Q 3544 3216 3844 3400 
Q 4144 3584 4550 3584 
Q 5097 3584 5394 3201 
Q 5691 2819 5691 2113 
L 5691 0 
L 5113 0 
L 5113 2094 
Q 5113 2597 4934 2840 
Q 4756 3084 4391 3084 
Q 3944 3084 3684 2787 
Q 3425 2491 3425 1978 
L 3425 0 
L 2847 0 
L 2847 2094 
Q 2847 2600 2669 2842 
Q 2491 3084 2119 3084 
Q 1678 3084 1418 2786 
Q 1159 2488 1159 1978 
L 1159 0 
L 581 0 
L 581 3500 
L 1159 3500 
L 1159 2956 
Q 1356 3278 1631 3431 
Q 1906 3584 2284 3584 
Q 2666 3584 2933 3390 
Q 3200 3197 3328 2828 
z
" transform="scale(0.015625)"/>
      <path id="DejaVuSans-72" d="M 2631 2963 
Q 2534 3019 2420 3045 
Q 2306 3072 2169 3072 
Q 1681 3072 1420 2755 
Q 1159 2438 1159 1844 
L 1159 0 
L 581 0 
L 581 3500 
L 1159 3500 
L 1159 2956 
Q 1341 3275 1631 3429 
Q 1922 3584 2338 3584 
Q 2397 3584 2469 3576 
Q 2541 3569 2628 3553 
L 2631 2963 
z
" transform="scale(0.015625)"/>
      <path id="DejaVuSans-70" d="M 1159 525 
L 1159 -1331 
L 581 -1331 
L 581 3500 
L 1159 3500 
L 1159 2969 
Q 1341 3281 1617 3432 
Q 1894 3584 2278 3584 
Q 2916 3584 3314 3078 
Q 3713 2572 3713 1747 
Q 3713 922 3314 415 
Q 2916 -91 2278 -91 
Q 1894 -91 1617 61 
Q 1341 213 1159 525 
z
M 3116 1747 
Q 3116 2381 2855 2742 
Q 2594 3103 2138 3103 
Q 1681 3103 1420 2742 
Q 1159 2381 1159 1747 
Q 1159 1113 1420 752 
Q 1681 391 2138 391 
Q 2594 391 2855 752 
Q 3116 1113 3116 1747 
z
" transform="scale(0.015625)"/>
     </defs>
     <use xlink:href="#DejaVuSans-4d"/>
     <use xlink:href="#DejaVuSans-61" transform="translate(86.279297 0)"/>
     <use xlink:href="#DejaVuSans-63" transform="translate(147.558594 0)"/>
     <use xlink:href="#DejaVuSans-68" transform="translate(202.539062 0)"/>
     <use xlink:href="#DejaVuSans-69" transform="translate(265.917969 0)"/>
     <use xlink:href="#DejaVuSans-6e" transform="translate(293.701172 0)"/>
     <use xlink:href="#DejaVuSans-65" transform="translate(357.080078 0)"/>
     <use xlink:href="#DejaVuSans-20" transform="translate(418.603516 0)"/>
     <use xlink:href="#DejaVuSans-54" transform="translate(450.390625 0)"/>
     <use xlink:href="#DejaVuSans-69" transform="translate(508.349609 0)"/>
     <use xlink:href="#DejaVuSans-6d" transform="translate(536.132812 0)"/>
     <use xlink:href="#DejaVuSans-65" transform="translate(633.544922 0)"/>
     <use xlink:href="#DejaVuSans-72" transform="translate(695.068359 0)"/>
     <use xlink:href="#DejaVuSans-20" transform="translate(736.181641 0)"/>
     <use xlink:href="#DejaVuSans-54" transform="translate(767.96875 0)"/>
     <use xlink:href="#DejaVuSans-72" transform="translate(814.302734 0)"/>
     <use xlink:href="#DejaVuSans-61" transform="translate(855.416016 0)"/>
     <use xlink:href="#DejaVuSans-70" transform="translate(916.695312 0)"/>
    </g>
   </g>
  </g>
 </g>
 <defs>
  <clipPath id="p88184f9a2e">
   <rect x="7.2" y="33.077969" width="914.4" height="245.88"/>
  </clipPath>
 </defs>
</svg>
